<svg width="96" height="96" viewBox="0 0 96 96" fill="none" xmlns="http://www.w3.org/2000/svg">
<g clip-path="url(#clip0_231_11990)">
<g filter="url(#filter0_dd_231_11990)">
<path d="M48 28.6666C48 24.2484 51.5817 20.6667 56 20.6667H83C86.3137 20.6667 89 23.3529 89 26.6667V69.3333C89 72.647 86.3137 75.3333 83 75.3333H59.0183C55.9882 75.3333 53.2181 77.0453 51.8629 79.7556L49.7949 83.8916C49.6255 84.2304 49.2793 84.4444 48.9005 84.4444H48V28.6666Z" fill="url(#paint0_linear_231_11990)"/>
</g>
<g filter="url(#filter1_dddiiif_231_11990)">
<path d="M48 34.3333L45.5323 26.0762C43.2792 22.6966 39.4862 20.6667 35.4244 20.6667H13.0741C9.71946 20.6667 7 23.3861 7 26.7407V69.2593C7 72.6139 9.71946 75.3333 13.0741 75.3333H34.418C39.0193 75.3333 43.2258 77.9331 45.2836 82.0487L46.0618 83.605C46.319 84.1195 46.8448 84.4444 47.42 84.4444H48V34.3333Z" fill="white" fill-opacity="0.01" shape-rendering="crispEdges"/>
</g>
<g filter="url(#filter2_dd_231_11990)">
<path d="M16.1094 15.5555C16.1094 13.3464 17.9002 11.5555 20.1094 11.5555H25.9983C38.1485 11.5555 47.9983 21.4053 47.9983 33.5555V83.6852C47.9983 84.1045 47.6583 84.4444 47.239 84.4444C46.8197 84.4444 46.4797 84.1045 46.4797 83.6852V81.4074C46.4797 73.0208 39.6811 66.2222 31.2946 66.2222H20.1094C17.9002 66.2222 16.1094 64.4313 16.1094 62.2222V15.5555Z" fill="white"/>
</g>
<path d="M16.1094 15.5555C16.1094 13.3464 17.9002 11.5555 20.1094 11.5555H25.9983C38.1485 11.5555 47.9983 21.4053 47.9983 33.5555V83.6852C47.9983 84.1045 47.6583 84.4444 47.239 84.4444C46.8197 84.4444 46.4797 84.1045 46.4797 83.6852V81.4074C46.4797 73.0208 39.6811 66.2222 31.2946 66.2222H20.1094C17.9002 66.2222 16.1094 64.4313 16.1094 62.2222V15.5555Z" fill="url(#paint1_linear_231_11990)"/>
<path d="M58.5185 63C57.6799 63 57 63.6716 57 64.5C57 65.3284 57.6799 66 58.5185 66H78.4815C79.3201 66 80 65.3284 80 64.5C80 63.6716 79.3201 63 78.4815 63H58.5185Z" fill="url(#paint2_linear_231_11990)"/>
<g filter="url(#filter3_dd_231_11990)">
<path fill-rule="evenodd" clip-rule="evenodd" d="M79.2067 35.3592C80.2741 36.4266 80.2741 38.1573 79.2067 39.2247L67.1328 51.299C66.0653 52.3665 64.3347 52.3665 63.2672 51.299L57.8006 45.8324C56.7331 44.7649 56.7331 43.0343 57.8006 41.9668C58.868 40.8994 60.5987 40.8994 61.6661 41.9668L65.2 45.5008L75.3412 35.3592C76.4086 34.2917 78.1393 34.2917 79.2067 35.3592Z" fill="#CD8C2A"/>
</g>
</g>
<defs>
<filter id="filter0_dd_231_11990" x="41" y="18.6667" width="51" height="73.7778" filterUnits="userSpaceOnUse" color-interpolation-filters="sRGB">
<feFlood flood-opacity="0" result="BackgroundImageFix"/>
<feColorMatrix in="SourceAlpha" type="matrix" values="0 0 0 0 0 0 0 0 0 0 0 0 0 0 0 0 0 0 127 0" result="hardAlpha"/>
<feOffset dx="-2" dy="3"/>
<feGaussianBlur stdDeviation="2.5"/>
<feColorMatrix type="matrix" values="0 0 0 0 0 0 0 0 0 0 0 0 0 0 0 0 0 0 0.24 0"/>
<feBlend mode="normal" in2="BackgroundImageFix" result="effect1_dropShadow_231_11990"/>
<feColorMatrix in="SourceAlpha" type="matrix" values="0 0 0 0 0 0 0 0 0 0 0 0 0 0 0 0 0 0 127 0" result="hardAlpha"/>
<feOffset dx="-1" dy="2"/>
<feGaussianBlur stdDeviation="1.5"/>
<feComposite in2="hardAlpha" operator="out"/>
<feColorMatrix type="matrix" values="0 0 0 0 0 0 0 0 0 0 0 0 0 0 0 0 0 0 0.12 0"/>
<feBlend mode="normal" in2="effect1_dropShadow_231_11990" result="effect2_dropShadow_231_11990"/>
<feBlend mode="normal" in="SourceGraphic" in2="effect2_dropShadow_231_11990" result="shape"/>
</filter>
<filter id="filter1_dddiiif_231_11990" x="-1" y="12.6667" width="57" height="81.7778" filterUnits="userSpaceOnUse" color-interpolation-filters="sRGB">
<feFlood flood-opacity="0" result="BackgroundImageFix"/>
<feColorMatrix in="SourceAlpha" type="matrix" values="0 0 0 0 0 0 0 0 0 0 0 0 0 0 0 0 0 0 127 0" result="hardAlpha"/>
<feOffset dx="-2" dy="2"/>
<feGaussianBlur stdDeviation="3"/>
<feComposite in2="hardAlpha" operator="out"/>
<feColorMatrix type="matrix" values="0 0 0 0 0 0 0 0 0 0 0 0 0 0 0 0 0 0 0.14 0"/>
<feBlend mode="normal" in2="BackgroundImageFix" result="effect1_dropShadow_231_11990"/>
<feColorMatrix in="SourceAlpha" type="matrix" values="0 0 0 0 0 0 0 0 0 0 0 0 0 0 0 0 0 0 127 0" result="hardAlpha"/>
<feOffset dx="-2" dy="4"/>
<feGaussianBlur stdDeviation="3"/>
<feComposite in2="hardAlpha" operator="out"/>
<feColorMatrix type="matrix" values="0 0 0 0 0 0 0 0 0 0 0 0 0 0 0 0 0 0 0.08 0"/>
<feBlend mode="normal" in2="effect1_dropShadow_231_11990" result="effect2_dropShadow_231_11990"/>
<feColorMatrix in="SourceAlpha" type="matrix" values="0 0 0 0 0 0 0 0 0 0 0 0 0 0 0 0 0 0 127 0" result="hardAlpha"/>
<feOffset dx="2" dy="-2"/>
<feGaussianBlur stdDeviation="3"/>
<feComposite in2="hardAlpha" operator="out"/>
<feColorMatrix type="matrix" values="0 0 0 0 1 0 0 0 0 1 0 0 0 0 1 0 0 0 0.85 0"/>
<feBlend mode="normal" in2="effect2_dropShadow_231_11990" result="effect3_dropShadow_231_11990"/>
<feBlend mode="normal" in="SourceGraphic" in2="effect3_dropShadow_231_11990" result="shape"/>
<feColorMatrix in="SourceAlpha" type="matrix" values="0 0 0 0 0 0 0 0 0 0 0 0 0 0 0 0 0 0 127 0" result="hardAlpha"/>
<feOffset dx="-2" dy="4"/>
<feGaussianBlur stdDeviation="4"/>
<feComposite in2="hardAlpha" operator="arithmetic" k2="-1" k3="1"/>
<feColorMatrix type="matrix" values="0 0 0 0 0 0 0 0 0 0 0 0 0 0 0 0 0 0 0.12 0"/>
<feBlend mode="normal" in2="shape" result="effect4_innerShadow_231_11990"/>
<feColorMatrix in="SourceAlpha" type="matrix" values="0 0 0 0 0 0 0 0 0 0 0 0 0 0 0 0 0 0 127 0" result="hardAlpha"/>
<feOffset dx="-2" dy="4"/>
<feGaussianBlur stdDeviation="3"/>
<feComposite in2="hardAlpha" operator="arithmetic" k2="-1" k3="1"/>
<feColorMatrix type="matrix" values="0 0 0 0 0 0 0 0 0 0 0 0 0 0 0 0 0 0 0.08 0"/>
<feBlend mode="normal" in2="effect4_innerShadow_231_11990" result="effect5_innerShadow_231_11990"/>
<feColorMatrix in="SourceAlpha" type="matrix" values="0 0 0 0 0 0 0 0 0 0 0 0 0 0 0 0 0 0 127 0" result="hardAlpha"/>
<feOffset dx="5" dy="-5"/>
<feGaussianBlur stdDeviation="5"/>
<feComposite in2="hardAlpha" operator="arithmetic" k2="-1" k3="1"/>
<feColorMatrix type="matrix" values="0 0 0 0 1 0 0 0 0 1 0 0 0 0 1 0 0 0 0.65 0"/>
<feBlend mode="normal" in2="effect5_innerShadow_231_11990" result="effect6_innerShadow_231_11990"/>
<feGaussianBlur stdDeviation="0.1875" result="effect7_foregroundBlur_231_11990"/>
</filter>
<filter id="filter2_dd_231_11990" x="9.10938" y="9.55554" width="41.8906" height="82.8889" filterUnits="userSpaceOnUse" color-interpolation-filters="sRGB">
<feFlood flood-opacity="0" result="BackgroundImageFix"/>
<feColorMatrix in="SourceAlpha" type="matrix" values="0 0 0 0 0 0 0 0 0 0 0 0 0 0 0 0 0 0 127 0" result="hardAlpha"/>
<feOffset dx="-2" dy="3"/>
<feGaussianBlur stdDeviation="2.5"/>
<feColorMatrix type="matrix" values="0 0 0 0 0 0 0 0 0 0 0 0 0 0 0 0 0 0 0.12 0"/>
<feBlend mode="normal" in2="BackgroundImageFix" result="effect1_dropShadow_231_11990"/>
<feColorMatrix in="SourceAlpha" type="matrix" values="0 0 0 0 0 0 0 0 0 0 0 0 0 0 0 0 0 0 127 0" result="hardAlpha"/>
<feOffset dx="-1" dy="2"/>
<feGaussianBlur stdDeviation="1.5"/>
<feComposite in2="hardAlpha" operator="out"/>
<feColorMatrix type="matrix" values="0 0 0 0 0 0 0 0 0 0 0 0 0 0 0 0 0 0 0.08 0"/>
<feBlend mode="normal" in2="effect1_dropShadow_231_11990" result="effect2_dropShadow_231_11990"/>
<feBlend mode="normal" in="SourceGraphic" in2="effect2_dropShadow_231_11990" result="shape"/>
</filter>
<filter id="filter3_dd_231_11990" x="50" y="32.5586" width="33.0078" height="27.541" filterUnits="userSpaceOnUse" color-interpolation-filters="sRGB">
<feFlood flood-opacity="0" result="BackgroundImageFix"/>
<feColorMatrix in="SourceAlpha" type="matrix" values="0 0 0 0 0 0 0 0 0 0 0 0 0 0 0 0 0 0 127 0" result="hardAlpha"/>
<feOffset dx="-2" dy="3"/>
<feGaussianBlur stdDeviation="2.5"/>
<feColorMatrix type="matrix" values="0 0 0 0 0 0 0 0 0 0 0 0 0 0 0 0 0 0 0.12 0"/>
<feBlend mode="normal" in2="BackgroundImageFix" result="effect1_dropShadow_231_11990"/>
<feColorMatrix in="SourceAlpha" type="matrix" values="0 0 0 0 0 0 0 0 0 0 0 0 0 0 0 0 0 0 127 0" result="hardAlpha"/>
<feOffset dx="-1" dy="2"/>
<feGaussianBlur stdDeviation="1.5"/>
<feComposite in2="hardAlpha" operator="out"/>
<feColorMatrix type="matrix" values="0 0 0 0 0 0 0 0 0 0 0 0 0 0 0 0 0 0 0.08 0"/>
<feBlend mode="normal" in2="effect1_dropShadow_231_11990" result="effect2_dropShadow_231_11990"/>
<feBlend mode="normal" in="SourceGraphic" in2="effect2_dropShadow_231_11990" result="shape"/>
</filter>
<linearGradient id="paint0_linear_231_11990" x1="92.037" y1="13.8333" x2="28.9209" y2="55.6414" gradientUnits="userSpaceOnUse">
<stop offset="0.0528801" stop-color="#F7F6F4"/>
<stop offset="0.701911" stop-color="#E8E6DF"/>
</linearGradient>
<linearGradient id="paint1_linear_231_11990" x1="6.239" y1="65.4629" x2="60.5475" y2="61.7424" gradientUnits="userSpaceOnUse">
<stop stop-color="#3DD9EB" stop-opacity="0"/>
<stop offset="0.815" stop-color="#1D0A5B"/>
<stop offset="0.948715" stop-color="#1D0A5B"/>
</linearGradient>
<linearGradient id="paint2_linear_231_11990" x1="80" y1="63" x2="79.2305" y2="68.8996" gradientUnits="userSpaceOnUse">
<stop offset="0.248777" stop-color="#C4BEB6"/>
<stop offset="1" stop-color="#8C8279"/>
</linearGradient>
<clipPath id="clip0_231_11990">
<rect width="96" height="96" fill="white"/>
</clipPath>
</defs>
</svg>
