<svg width="206" height="50" viewBox="0 0 206 50" fill="none" xmlns="http://www.w3.org/2000/svg">
<path d="M205.927 44.5899H197.572L190.783 35.2426L183.995 44.5899H175.744L186.188 29.9685L175.901 16.0781H184.36L190.783 25.0598L197.311 16.0781H205.77L195.535 29.864L205.927 44.5899Z" fill="white"/>
<path d="M156.52 45.2166C152.343 45.2166 149.001 43.8763 146.494 41.1958C143.988 38.4803 142.734 34.8424 142.734 30.2819C142.734 25.7562 143.97 22.1531 146.442 19.4725C148.914 16.7571 152.169 15.3994 156.207 15.3994C159.932 15.3994 162.856 16.4438 164.98 18.5326V16.0783H172.082V44.59H165.084V41.8224C163.204 44.0852 160.35 45.2166 156.52 45.2166ZM158.087 38.7414C161.359 38.7414 163.692 37.4882 165.084 34.9817V25.53C164.388 24.3811 163.378 23.4934 162.056 22.8668C160.733 22.2053 159.358 21.8746 157.93 21.8746C155.598 21.8746 153.718 22.6231 152.291 24.12C150.863 25.5822 150.15 27.6361 150.15 30.2819C150.15 32.8929 150.863 34.9642 152.291 36.496C153.718 37.993 155.65 38.7414 158.087 38.7414Z" fill="white"/>
<path d="M122.525 44.5895V16.0778H129.471V19.7854C131.664 16.8959 134.623 15.4512 138.348 15.4512C139.218 15.4512 139.88 15.5382 140.332 15.7123V23.4929C139.009 23.1448 137.86 22.9708 136.886 22.9708C134.762 22.9708 133.039 23.667 131.716 25.0595C130.393 26.452 129.732 28.4712 129.732 31.117V44.5895H122.525Z" fill="white"/>
<path d="M101.541 45.2162C96.8067 45.2162 92.9947 43.8759 90.1052 41.1953C87.2506 38.4799 85.8232 34.8419 85.8232 30.2815C85.8232 25.7906 87.268 22.2049 90.1574 19.5243C93.0469 16.8089 96.8415 15.4512 101.541 15.4512C106.241 15.4512 110.018 16.8089 112.873 19.5243C115.727 22.2049 117.155 25.7906 117.155 30.2815C117.155 34.8419 115.727 38.4799 112.873 41.1953C110.018 43.8759 106.241 45.2162 101.541 45.2162ZM101.541 38.6365C103.978 38.6365 105.945 37.8707 107.442 36.3389C108.974 34.8071 109.74 32.788 109.74 30.2815C109.74 27.8097 108.974 25.8254 107.442 24.3285C105.945 22.7967 103.978 22.0308 101.541 22.0308C99.0695 22.0308 97.0678 22.7967 95.536 24.3285C94.0391 25.8254 93.2906 27.8097 93.2906 30.2815C93.2906 32.788 94.0391 34.8071 95.536 36.3389C97.0678 37.8707 99.0695 38.6365 101.541 38.6365Z" fill="white"/>
<path d="M67.4395 38.6369H82.9486V44.5899H57.0479V40.9345L72.1392 22.0311H57.8834V16.0781H82.8442V19.6813L67.4395 38.6369Z" fill="white"/>
<path d="M51.75 11.2739C50.9145 12.1443 49.8876 12.5794 48.6691 12.5794C47.4507 12.5794 46.4063 12.1443 45.536 11.2739C44.6656 10.4036 44.2305 9.35924 44.2305 8.14079C44.2305 6.92234 44.6656 5.87795 45.536 5.00763C46.4063 4.13731 47.4507 3.70215 48.6691 3.70215C49.8876 3.70215 50.9145 4.13731 51.75 5.00763C52.6204 5.87795 53.0555 6.92234 53.0555 8.14079C53.0555 9.35924 52.6204 10.4036 51.75 11.2739ZM44.9615 44.5899V16.0781H52.2722V44.5899H44.9615Z" fill="white"/>
<path fill-rule="evenodd" clip-rule="evenodd" d="M11.8615 5.93075C11.8615 2.65529 9.20621 0 5.93075 0C2.65528 0 0 2.65529 0 5.93075V33.4663V33.8356L0.0457978 34.202C0.767555 39.976 6.14739 49.5322 19.7128 49.9844C28.0513 50.2624 33.6862 46.7913 36.9703 42.0338C39.977 37.6783 40.668 32.7796 40.668 30.0774C40.668 24.7678 38.3851 18.7964 33.937 14.9838C33.1203 14.2838 32.1681 13.8447 31.1818 13.6587C31.2909 14.1721 31.3482 14.7046 31.3482 15.2505C31.3482 18.984 28.665 22.0908 25.1218 22.7477C25.4199 23.2003 25.7856 23.6194 26.2177 23.9897C27.7004 25.2606 28.8065 27.7616 28.8065 30.0774C28.8065 31.2112 28.4384 33.5141 27.2088 35.2953C26.2567 36.6745 24.4782 38.2752 20.1079 38.1295C16.4521 38.0077 14.521 36.7775 13.4706 35.722C12.445 34.6913 12.0022 33.5648 11.8615 32.9734V5.93075Z" fill="white"/>
<path d="M29.6536 15.2507C29.6536 18.994 26.619 22.0286 22.8757 22.0286C19.1323 22.0286 16.0977 18.994 16.0977 15.2507C16.0977 11.5073 19.1323 8.47266 22.8757 8.47266C26.619 8.47266 29.6536 11.5073 29.6536 15.2507Z" fill="white"/>
</svg>
