<svg width="1858" height="80" viewBox="0 0 1858 80" fill="none" xmlns="http://www.w3.org/2000/svg">
<g clip-path="url(#clip0_223_8017)">
<path d="M136.453 35.6123C135.586 35.6123 134.209 35.8164 132.627 36.4286V28.2654H129.311L129.413 50.5103C131.402 51.1735 133.239 51.5307 135.178 51.5307C140.688 51.5307 143.8 48.5715 143.8 43.5715C143.851 38.7246 140.892 35.6123 136.453 35.6123ZM135.535 48.5205C134.617 48.5205 133.647 48.3164 132.627 47.9593V39.4389C133.443 39.0817 134.617 38.6225 135.79 38.6225C138.545 38.6225 140.331 40.4593 140.331 43.5715C140.382 46.7348 138.596 48.5205 135.535 48.5205Z" fill="#C2C4C7"/>
<path d="M159.771 25.1021H156.506V54.3367H159.771V25.1021Z" fill="#C2C4C7"/>
<path d="M180.587 35.6633C176.097 35.6633 173.189 38.8776 173.036 43.4184C172.883 47.6021 175.332 51.1225 180.383 51.6327C182.934 51.8878 184.975 51.4797 186.914 50.5103V47.398C185.434 48.3164 182.679 48.7756 180.791 48.6225C178.444 48.4184 176.761 47.0919 176.505 44.2858H187.781C187.985 39.1327 185.281 35.6633 180.587 35.6633ZM176.71 41.8368C177.373 39.796 179.21 38.5715 181.148 38.6735C183.036 38.7756 184.107 39.847 184.21 41.8368H176.71Z" fill="#C2C4C7"/>
<path d="M231.098 45.6123V35.9695H227.781V46.0205C227.781 49.3878 230.383 51.4287 234.567 51.4287C238.7 51.4287 241.353 49.3878 241.353 46.0205V35.9695H238.036V45.6123C238.036 47.9593 236.659 49.0307 234.567 49.0307C232.475 49.0307 231.098 47.9593 231.098 45.6123Z" fill="#C2C4C7"/>
<path d="M110.18 35.5613V36.6837C109.057 35.9694 107.833 35.6633 106.353 35.6633C101.965 35.6633 98.9551 38.7756 98.9551 43.6225C98.9551 48.6735 102.067 51.6327 107.578 51.5817C109.669 51.5817 111.965 51.1735 113.343 50.5613L113.445 35.6123H110.18V35.5613ZM110.129 48.1633C108.955 48.4694 108.037 48.5205 107.322 48.5205C104.261 48.5715 102.475 46.7347 102.475 43.6225C102.475 40.5103 104.261 38.6735 107.016 38.6735C108.139 38.6735 109.159 39.0307 110.18 39.745L110.129 48.1633Z" fill="#C2C4C7"/>
<path d="M211.709 35.5613V36.6837C210.586 35.9694 209.362 35.6633 207.882 35.6633C203.495 35.6633 200.484 38.7756 200.484 43.6225C200.484 48.6735 203.597 51.6327 209.107 51.5817C211.199 51.5817 213.495 51.1735 214.872 50.5613L214.974 35.6123H211.709V35.5613ZM211.607 48.1633C210.433 48.4694 209.413 48.5205 208.801 48.5205C205.739 48.5205 203.954 46.7347 203.954 43.6225C203.954 40.5103 205.739 38.6735 208.495 38.6735C209.617 38.6735 210.637 39.0307 211.658 39.745L211.607 48.1633Z" fill="#C2C4C7"/>
<path d="M75.0258 38.5714H66.1992V41.5816H75.0258V51.6326H78.2911V41.5816H87.0666V38.5714H78.2911V29.2856H75.0258V38.5714Z" fill="#C2C4C7"/>
<path d="M246.708 35.8164C245.637 35.8164 244.77 36.6838 244.77 37.7552C244.77 38.8776 245.637 39.694 246.708 39.694C247.78 39.694 248.647 38.8266 248.647 37.7552C248.647 36.6838 247.78 35.8164 246.708 35.8164ZM246.708 39.4389C245.841 39.4389 245.127 38.7246 245.127 37.7552C245.127 36.8368 245.841 36.1225 246.708 36.1225C247.576 36.1225 248.29 36.8878 248.29 37.8062C248.29 38.7246 247.627 39.4389 246.708 39.4389Z" fill="#C2C4C7"/>
<path d="M247.425 38.3673C247.374 38.0612 247.272 37.8571 247.068 37.8571C247.323 37.806 247.476 37.602 247.476 37.3469C247.476 37.1428 247.425 36.9897 247.272 36.8877C247.119 36.7856 246.914 36.7346 246.608 36.7346C246.353 36.7346 246.2 36.7346 245.996 36.7856V38.9795H246.353V37.9591H246.608C246.863 37.9591 247.016 38.0612 247.068 38.3673C247.119 38.6734 247.17 38.8775 247.221 38.9285H247.578C247.578 38.8265 247.476 38.7244 247.425 38.3673ZM246.608 37.704H246.353V36.9387C246.404 36.9387 246.506 36.9387 246.608 36.9387C247.016 36.9387 247.119 37.1428 247.119 37.3469C247.119 37.602 246.914 37.704 246.608 37.704Z" fill="#C2C4C7"/>
<path d="M36.5552 41.4287H29.5654V49.0817H26.8103V41.4287H19.7695V38.7756H26.8103V31.1226H29.5654V38.7756H36.5552V41.4287Z" fill="#C2C4C7"/>
<path d="M22.5254 50.8672H16.2499V43.9795H13.9029V50.8672H7.52539V52.9081H13.9029V59.6938H16.2499V52.9081H22.5254V50.8672Z" fill="#C2C4C7"/>
<path d="M49.3103 26.7347H42.9838V19.8979H40.6368V26.7347H34.3613V28.8775H40.6368V35.6633H42.9838V28.8775H49.3103V26.7347Z" fill="#C2C4C7"/>
<path d="M33.5458 58.3164H29.3111V53.5715H27.2703V58.3164H22.9336V60.1532H27.2703V65.0001H29.3111V60.1532H33.5458V58.3164Z" fill="#C2C4C7"/>
<path d="M22.4748 26.6837H16.0973V19.8979H13.8014V26.6837H7.42383V28.7245H13.8014V35.6633H16.0973V28.7245H22.4748V26.6837Z" fill="#C2C4C7"/>
<path d="M54.1572 39.1836H49.9225V34.4387H47.8306V39.1836H43.5449V41.0204H47.8306V45.7653H49.9225V41.0204H54.1572V39.1836Z" fill="#C2C4C7"/>
<path d="M48.9021 50.8672H42.6266V43.9795H40.2797V50.8672H33.9531V52.9081H40.2797V59.6938H42.6266V52.9081H48.9021V50.8672Z" fill="#C2C4C7"/>
<path d="M33.2383 19.7449H29.0036V15H27.473V19.7449H23.2383V21.1735H27.473V25.8163H29.0036V21.1735H33.2383V19.7449Z" fill="#C2C4C7"/>
<path d="M13.0352 39.3877H8.80046V34.7449H7.26985V39.3877H3.03516V40.8163H7.26985V45.4592H8.80046V40.8163H13.0352V39.3877Z" fill="#C2C4C7"/>
</g>
<g clip-path="url(#clip1_223_8017)">
<path d="M410.435 15H397.181C396.041 15 395.117 15.9239 395.117 17.0635V62.9365C395.117 64.0761 396.041 65 397.181 65H410.435C411.574 65 412.498 64.0761 412.498 62.9365V17.0635C412.498 15.9239 411.574 15 410.435 15Z" fill="#C2C4C7"/>
<g filter="url(#filter0_d_223_8017)">
<path d="M402.26 62.9364V64.9999H400.196H386.942C385.803 64.9999 384.879 64.076 384.879 62.9364V29.5237C384.879 28.3841 385.803 27.4602 386.942 27.4602H400.196C401.336 27.4602 402.26 28.3841 402.26 29.5237V62.9364Z" fill="#C2C4C7"/>
</g>
<path d="M402.26 62.9364V64.9999H400.196H386.942C385.803 64.9999 384.879 64.076 384.879 62.9364V29.5237C384.879 28.3841 385.803 27.4602 386.942 27.4602H400.196C401.336 27.4602 402.26 28.3841 402.26 29.5237V62.9364Z" fill="#C2C4C7"/>
<path fill-rule="evenodd" clip-rule="evenodd" d="M392.182 62.9365V65H390.118H376.864C375.725 65 374.801 64.0761 374.801 62.9365V42.0635C374.801 40.9239 375.725 40 376.864 40H390.118C391.258 40 392.182 40.9239 392.182 42.0635V62.9365Z" fill="#C2C4C7"/>
</g>
<mask id="mask0_223_8017" style="mask-type:luminance" maskUnits="userSpaceOnUse" x="538" y="15" width="201" height="50">
<path d="M738.563 15H538.648V65H738.563V15Z" fill="white"/>
</mask>
<g mask="url(#mask0_223_8017)">
<path d="M585.84 50.9878H566.391C561.673 50.9878 559.059 54.2359 559.059 57.6755C559.059 60.8613 561.29 64.3633 566.391 64.3633H585.84V50.9878Z" fill="#C2C4C7"/>
<path d="M585.84 64.3652C589.538 64.3652 592.535 61.3709 592.535 57.6775C592.535 53.984 589.538 50.9897 585.84 50.9897C582.142 50.9897 579.145 53.984 579.145 57.6775C579.142 61.3709 582.14 64.3652 585.84 64.3652Z" fill="#C2C4C7"/>
<path d="M565.75 33.1531H546.302C541.583 33.1531 538.969 36.4012 538.969 39.8408C538.969 43.0266 541.2 46.5286 546.302 46.5286H565.75V33.1531Z" fill="#C2C4C7"/>
<path d="M565.75 46.5305C569.448 46.5305 572.446 43.5362 572.446 39.8428C572.446 36.1493 569.448 33.155 565.75 33.155C562.052 33.155 559.055 36.1493 559.055 39.8428C559.055 43.5362 562.052 46.5305 565.75 46.5305Z" fill="#C2C4C7"/>
<path d="M585.84 15.3184H566.391C561.673 15.3184 559.059 18.5665 559.059 22.0061C559.059 25.1918 561.29 28.6939 566.391 28.6939H585.84V15.3184Z" fill="#C2C4C7"/>
<path d="M585.84 28.6961C589.538 28.6961 592.535 25.7018 592.535 22.0083C592.535 18.3149 589.538 15.3206 585.84 15.3206C582.142 15.3206 579.145 18.3149 579.145 22.0083C579.145 25.7018 582.14 28.6961 585.84 28.6961Z" fill="#C2C4C7"/>
<path d="M611.758 25.0003H621.547C621.703 25.5809 621.778 26.1822 621.77 26.7836C621.77 28.057 621.547 29.2681 621.164 30.4146C620.772 31.5549 620.143 32.5953 619.314 33.4713C617.372 35.5334 614.618 36.63 611.789 36.4656C609.004 36.476 606.321 35.4169 604.296 33.5046C600.157 29.4304 600.109 22.7759 604.19 18.6413C606.194 16.6105 608.935 15.4806 611.789 15.5097C614.683 15.3745 617.485 16.5293 619.441 18.6621L616.858 21.2091C614.893 19.0804 611.789 18.4416 609.142 19.6172C607.492 20.2436 606.177 21.5233 605.507 23.1526C605.136 24.0515 604.952 25.0149 604.965 25.9866C604.913 27.8677 605.64 29.6884 606.973 31.018C608.294 32.2124 610.006 32.8804 611.787 32.897C613.498 32.9782 615.168 32.3831 616.443 31.2407C616.858 30.8911 617.177 30.477 617.431 29.9672C617.75 29.4262 617.941 28.8519 618.068 28.2152H611.787V25.0294L611.758 25.0003ZM630.857 21.8167C632.799 21.8063 634.667 22.5616 636.055 23.9183C636.692 24.555 637.234 25.3187 637.586 26.2114C637.95 27.1456 638.134 28.1403 638.127 29.1412C638.148 31.1054 637.405 33.0011 636.055 34.4285C634.68 35.7977 632.799 36.5343 630.857 36.4677C628.903 36.5031 627.016 35.7706 625.597 34.4285C624.237 33.0094 623.503 31.1054 623.555 29.1412C623.376 25.275 626.368 21.9977 630.238 21.8167C630.442 21.8083 630.651 21.8063 630.857 21.8167ZM630.857 33.0905C631.813 33.0926 632.73 32.7139 633.407 32.0397C633.726 31.7214 633.98 31.3073 634.14 30.7975C634.369 30.2752 634.478 29.7092 634.459 29.1412C634.471 28.0841 634.084 27.0603 633.376 26.2759C633.057 25.9575 632.642 25.6703 632.197 25.5122C631.324 25.121 630.326 25.121 629.455 25.5122C629.04 25.6724 628.657 25.9263 628.307 26.2759C627.561 27.0374 627.168 28.0779 627.224 29.1412C627.147 30.7038 628.032 32.1542 629.455 32.8034C629.901 32.9948 630.347 33.0905 630.857 33.0905ZM647.023 21.8479C648.96 21.8291 650.827 22.572 652.22 23.9183C652.858 24.555 653.399 25.3187 653.751 26.2114C654.135 27.104 654.293 28.0903 654.293 29.1412C654.314 31.1054 653.57 33.0011 652.22 34.4285C650.845 35.7977 648.964 36.5343 647.023 36.4677C645.069 36.5031 643.181 35.7706 641.763 34.4285C640.402 33.0094 639.669 31.1054 639.721 29.1412C639.542 25.275 642.533 21.9977 646.404 21.8167C646.61 21.8063 646.816 21.8063 647.023 21.8146V21.8479ZM647.023 33.0905C647.979 33.0926 648.895 32.7139 649.573 32.0397C649.891 31.7214 650.145 31.3073 650.306 30.7975C650.535 30.2752 650.643 29.7092 650.625 29.1412C650.637 28.0841 650.25 27.0603 649.541 26.2759C649.223 25.9575 648.808 25.6703 648.362 25.5122C647.489 25.121 646.491 25.121 645.621 25.5122C645.206 25.6724 644.823 25.9263 644.473 26.2759C643.727 27.0374 643.333 28.0779 643.39 29.1412C643.313 30.7038 644.198 32.1542 645.621 32.8034C646.064 32.9948 646.512 33.0905 647.023 33.0905ZM662.997 42.5167C661.374 42.5291 659.784 42.0505 658.437 41.1475C657.905 40.7854 657.432 40.3464 657.035 39.8407C656.651 39.3309 656.397 38.8856 656.205 38.3758L659.714 36.9754C660.205 38.3633 661.524 39.2851 662.997 39.2685C664.176 39.2685 665.069 38.9189 665.772 38.1865C666.409 37.454 666.759 36.4677 666.759 35.1922V34.2371H666.536C666.099 34.8447 665.517 35.3378 664.847 35.6708C664.145 35.9891 663.315 36.1493 662.359 36.1493C660.67 36.1618 659.051 35.4689 657.895 34.2392C655.141 31.301 655.141 26.7316 657.895 23.7934C659.059 22.5699 660.67 21.8687 662.359 21.85C663.315 21.85 664.145 22.0102 664.847 22.3598C665.549 22.7093 666.122 23.1879 666.536 23.7601H666.759V22.3265H670.267V35.0652C670.267 36.243 670.107 37.2938 669.757 38.1865C669.086 39.9489 667.694 41.3389 665.93 42.0089C664.997 42.3752 664.001 42.5603 662.997 42.5499V42.5167ZM663.155 32.8679C664.08 32.8637 664.967 32.51 665.642 31.8816C666.39 31.1179 666.792 30.0838 666.759 29.0163C666.759 28.3796 666.663 27.8386 666.44 27.36C666.084 26.4569 665.367 25.7411 664.463 25.3853C663.613 25.0503 662.668 25.0503 661.818 25.3853C661.403 25.5767 661.02 25.8306 660.67 26.1489C659.932 26.9188 659.53 27.9488 659.553 29.0142C659.518 30.0817 659.922 31.1179 660.67 31.8795C661.341 32.5121 662.234 32.8554 663.157 32.8346L663.155 32.8679ZM673.421 36.0203V15.955H677.087V36.0183H673.421V36.0203ZM693.126 32.7077C691.853 35.111 689.312 36.5738 686.589 36.4656C683.658 36.5197 680.983 34.7947 679.829 32.1022C679.112 30.2585 679.112 28.2131 679.829 26.3695C680.51 24.6258 681.85 23.2191 683.56 22.4513C684.46 22.0393 685.439 21.8208 686.429 21.8146C687.545 21.8146 688.501 22.0372 689.362 22.3868C690.222 22.7364 690.955 23.2462 691.53 23.9162C692.128 24.5696 692.584 25.3395 692.87 26.1781C693.157 27.0707 693.316 28.0258 693.316 29.0434V29.3617L693.284 29.6801L693.253 29.9984H682.891C682.948 30.5103 683.1 31.0076 683.337 31.4633C683.57 31.8358 683.86 32.1687 684.197 32.4497C684.581 32.7035 684.962 32.9282 685.377 33.0552C685.76 33.1509 686.206 33.2154 686.651 33.2154C687.481 33.2154 688.149 33.024 688.693 32.6432C689.266 32.2603 689.714 31.7838 690.033 31.2095L693.093 32.7056H693.126V32.7077ZM689.778 27.4203C689.749 27.1311 689.662 26.8481 689.524 26.5921C689.191 25.9055 688.61 25.3707 687.897 25.096C687.514 24.9691 687.037 24.8734 686.462 24.8734C684.889 24.8401 683.5 25.8971 683.114 27.4203H689.778ZM602.192 64.3653V44.5246H608.25C610.956 44.3998 613.596 45.3903 615.552 47.263C617.437 49.1732 618.443 51.7805 618.327 54.4606C618.327 57.4216 617.402 59.8103 615.552 61.6581C613.589 63.5184 610.952 64.4943 608.25 64.3653H602.192ZM604.744 46.9758V61.9453H608.252C610.579 61.9453 612.398 61.2773 613.737 59.9706C615.046 58.6326 615.714 56.7848 615.714 54.4606C615.714 52.103 615.077 50.2885 613.737 48.9505C612.256 47.571 610.275 46.8572 608.252 46.9758C608.25 46.9758 604.744 46.9758 604.744 46.9758ZM622.789 60.1932C622.789 60.8612 623.043 61.4355 623.618 61.8808C624.187 62.3073 624.882 62.5321 625.595 62.5175C626.678 62.5175 627.636 62.1346 628.463 61.3397C629.324 60.5428 629.738 59.621 629.738 58.5369C628.94 57.9001 627.826 57.5818 626.422 57.5818C625.37 57.5818 624.51 57.8689 623.807 58.3454C623.11 58.8552 622.789 59.4608 622.789 60.1932ZM626.074 50.3197C627.986 50.3197 629.453 50.8607 630.538 51.8803C631.622 52.8354 632.165 54.2379 632.165 56.0212V64.3653H629.743V62.4551H629.615C628.726 63.9262 627.128 64.823 625.407 64.8126C623.91 64.8126 622.666 64.3673 621.645 63.4747C620.676 62.6486 620.126 61.4355 620.147 60.162C620.147 58.7616 620.658 57.6151 621.741 56.7869C622.972 55.9046 624.468 55.4677 625.982 55.5447C627.513 55.5447 628.757 55.8318 629.745 56.3728V55.8006C629.749 54.9371 629.361 54.1172 628.693 53.572C627.991 52.9353 627.161 52.6169 626.205 52.6169C624.803 52.6169 623.655 53.2225 622.826 54.4314L620.595 52.9977C621.839 51.2457 623.655 50.3551 626.08 50.3551V50.3197H626.074ZM640.167 64.5879C639.142 64.6337 638.144 64.2654 637.392 63.5683C636.634 62.8109 636.23 61.7705 636.275 60.703V53.1226H633.884V50.7983H636.275V46.6575H638.825V50.7983H642.175V53.1226H638.827V59.8748C638.827 60.7675 639.019 61.4042 639.369 61.7226C639.688 62.041 640.102 62.2012 640.548 62.2012C640.771 62.2012 640.963 62.2012 641.121 62.1367C641.344 62.1055 641.536 62.041 641.694 61.9453L642.492 64.2383C641.856 64.461 641.058 64.5879 640.167 64.5879ZM646.194 60.1932C646.194 60.8612 646.448 61.4355 647.023 61.8808C647.591 62.3073 648.287 62.5321 649 62.5175C650.083 62.5175 651.041 62.1346 651.868 61.3397C652.729 60.5428 653.143 59.621 653.143 58.5369C652.345 57.9001 651.231 57.5818 649.827 57.5818C648.775 57.5818 647.914 57.8689 647.212 58.3454C646.512 58.8552 646.194 59.4608 646.194 60.1932ZM649.477 50.3197C651.389 50.3197 652.856 50.8607 653.941 51.8803C655.024 52.8354 655.599 54.2379 655.599 56.0212V64.3653H653.112V62.4551H652.985C652.095 63.9262 650.497 64.823 648.777 64.8126C647.279 64.8126 646.035 64.3673 645.014 63.4747C644.046 62.6486 643.496 61.4355 643.517 60.162C643.517 58.7616 644.027 57.6151 645.11 56.7869C646.162 55.9587 647.598 55.5447 649.383 55.5447C650.881 55.5447 652.124 55.8318 653.114 56.3728V55.8006C653.118 54.9371 652.731 54.1172 652.062 53.572C651.36 52.9353 650.531 52.6169 649.575 52.6169C648.173 52.6169 647.025 53.2225 646.196 54.4314L643.965 52.9977C645.208 51.2457 647.025 50.3551 649.45 50.3551L649.477 50.3197ZM676.419 59.0779C676.419 60.7966 675.781 62.1991 674.506 63.2499C673.163 64.3028 671.494 64.8542 669.788 64.8106C668.161 64.8106 666.694 64.332 665.451 63.3769C664.165 62.3864 663.247 60.9964 662.836 59.4275L665.259 58.4412C665.565 59.5336 666.159 60.5241 666.98 61.3064C667.765 62.016 668.79 62.401 669.848 62.3885C670.996 62.3885 671.952 62.0701 672.717 61.4958C673.45 60.8591 673.8 60.0621 673.8 59.0758C673.817 58.2705 673.492 57.4965 672.907 56.943C671.961 56.171 670.865 55.6071 669.686 55.2866C668.092 54.7144 667.103 54.3315 666.721 54.1089C664.586 53.0269 663.532 51.4663 663.532 49.3625C663.532 47.9289 664.138 46.6554 665.286 45.6358C666.494 44.5871 668.055 44.0294 669.655 44.0752C671.052 44.0502 672.425 44.4622 673.577 45.2529C674.694 45.9854 675.427 46.9405 675.808 48.1182L673.417 49.0733C673.194 48.3409 672.779 47.7353 672.077 47.2588C671.394 46.7615 670.563 46.5035 669.717 46.5264C668.794 46.4869 667.888 46.7803 667.167 47.3546C666.517 47.8144 666.136 48.5656 666.146 49.3605C666.146 50.0617 666.434 50.6339 666.944 51.1437C667.551 51.6535 668.857 52.2258 670.802 52.927C672.434 53.3744 673.919 54.2421 675.106 55.4427C675.973 56.402 676.419 57.6442 676.419 59.0779ZM683.752 64.5879C682.716 64.642 681.704 64.2737 680.946 63.5683C680.187 62.8109 679.783 61.7705 679.829 60.703V53.1226H677.469V50.7983H679.829V46.6575H682.381V50.7983H685.729V53.1226H682.381V59.8748C682.381 60.7675 682.573 61.4042 682.923 61.7226C683.273 62.041 683.656 62.2012 684.102 62.2012C684.325 62.2012 684.516 62.2012 684.708 62.1367C684.9 62.1055 685.083 62.041 685.249 61.9453L686.047 64.2383C685.41 64.461 684.612 64.5879 683.72 64.5879H683.752ZM700.078 64.3653H697.655V62.4551H697.528C697.145 63.1563 696.54 63.7285 695.711 64.1426C694.947 64.5879 694.118 64.7793 693.224 64.7793C691.566 64.7793 690.291 64.334 689.397 63.4102C688.472 62.4551 688.026 61.0859 688.026 59.3338V50.7983H690.576V59.1424C690.641 61.3709 691.755 62.4863 693.955 62.4863C694.947 62.5008 695.89 62.0535 696.505 61.2752C697.174 60.4159 697.526 59.4275 697.526 58.2809V50.7962H700.076V64.3653H700.078ZM709.165 62.453C710.44 62.453 711.429 62.0389 712.225 61.115C713.054 60.2223 713.5 59.0446 713.5 57.5797C713.5 56.146 713.054 54.9683 712.225 54.0756C711.467 53.1725 710.344 52.6586 709.165 52.6752C707.921 52.6752 706.934 53.1205 706.071 54.0444C705.242 54.9995 704.796 56.146 704.796 57.5485C704.796 59.0134 705.242 60.1911 706.071 61.0838C706.9 62.0389 707.921 62.4842 709.165 62.4842V62.453ZM708.75 64.8106C706.965 64.8106 705.434 64.1093 704.159 62.7089C702.884 61.2752 702.246 59.5565 702.246 57.5818C702.246 55.5759 702.884 53.8883 704.159 52.4546C705.95 50.3218 708.983 49.7121 711.46 50.9897C712.239 51.3685 712.9 51.9532 713.373 52.6773H713.469L713.373 50.7671V44.5559H715.923V64.3653H713.466V62.4551H713.371C712.902 63.1917 712.242 63.7868 711.458 64.1738C710.631 64.5879 709.738 64.8106 708.75 64.8106ZM722.301 46.1165C722.301 46.5951 722.141 47.0403 721.791 47.3899C721.453 47.7249 720.993 47.9101 720.516 47.8997C720.006 47.8997 719.56 47.7395 719.241 47.3899C718.893 47.057 718.697 46.5971 718.7 46.1165C718.7 45.6067 718.86 45.1614 719.21 44.843C719.543 44.4955 720.004 44.2999 720.485 44.302C720.995 44.302 721.441 44.4934 721.76 44.843C722.108 45.1739 722.303 45.6337 722.301 46.1165ZM721.791 50.7962V64.3632H719.241V50.7962C719.239 50.7962 721.791 50.7962 721.791 50.7962ZM724.182 57.5818C724.182 55.4802 724.82 53.7593 726.159 52.3901C727.468 51.0376 729.284 50.2989 731.165 50.3509C733.207 50.3509 734.863 51.0189 736.171 52.3901C737.511 53.7593 738.18 55.4802 738.18 57.5818C738.18 59.6834 737.511 61.4042 736.171 62.7734C734.867 64.1322 733.049 64.873 731.165 64.8126C729.284 64.8667 727.468 64.126 726.159 62.7734C724.83 61.3751 724.118 59.5065 724.182 57.5818ZM726.732 57.5818C726.732 59.0467 727.147 60.2244 728.007 61.1171C728.818 62.0181 729.984 62.5175 731.197 62.4863C732.399 62.5092 733.549 62.0077 734.353 61.1171C735.182 60.2244 735.628 59.0467 735.628 57.5818C735.628 56.1481 735.182 54.9704 734.353 54.0777C733.546 53.1663 732.382 52.6523 731.163 52.6773C729.92 52.6773 728.868 53.1226 728.007 54.0465C727.147 54.9703 726.732 56.1481 726.732 57.5506V57.5818Z" fill="#C2C4C7"/>
</g>
<g clip-path="url(#clip2_223_8017)">
<path d="M876.561 10.8501C874.661 10.8501 872.961 11.8501 872.061 13.5501C871.161 15.2501 871.261 17.2501 872.361 18.7501L874.561 16.5501C874.461 16.3501 874.461 16.1501 874.461 15.8501C874.461 14.6501 875.461 13.6501 876.661 13.6501C877.861 13.6501 878.761 14.6501 878.761 15.8501C878.761 17.0501 877.761 18.0501 876.661 18.0501C876.461 18.0501 876.161 18.0501 875.961 17.9501L873.761 20.1501C875.561 21.3501 877.961 21.3501 879.661 19.9501C881.361 18.5501 882.061 16.3501 881.361 14.2501C880.661 12.2501 878.661 10.8501 876.561 10.8501Z" fill="#C2C4C7"/>
<path d="M874.462 25.7502C874.462 24.0502 873.862 22.3502 872.862 20.9502L870.062 23.7502C870.962 25.3502 870.662 27.3502 869.262 28.6502L870.762 32.4502C873.062 30.9502 874.462 28.3502 874.462 25.7502Z" fill="#C2C4C7"/>
<path d="M866.561 29.7501C864.761 29.7501 863.261 28.6501 862.661 27.0501C862.061 25.4501 862.661 23.6501 863.961 22.5501C865.261 21.4501 867.261 21.4501 868.661 22.3501L871.561 19.5501C868.861 17.3501 864.961 17.1501 862.061 19.1501C859.161 21.1501 857.861 24.7501 858.861 28.0501C859.861 31.3501 862.961 33.6501 866.461 33.6501C866.961 33.6501 867.561 33.6501 868.061 33.4501L866.561 29.7501Z" fill="#C2C4C7"/>
<path d="M876.661 32.9502C874.861 32.9502 873.161 33.2502 871.461 33.7502L873.661 39.2502C874.661 39.0502 875.661 38.8502 876.661 38.8502C882.461 38.8502 887.461 42.9502 888.661 48.6502C889.761 54.3502 886.761 60.0502 881.361 62.2502C875.961 64.4502 869.761 62.6502 866.461 57.8502C863.161 53.0502 863.861 46.5502 867.961 42.4502C868.861 41.5502 869.761 40.8502 870.861 40.3502L868.661 34.8502C860.461 38.8502 856.561 48.4502 859.561 57.1502C862.561 65.8502 871.761 70.7502 880.661 68.6502C889.661 66.5502 895.561 58.1502 894.561 48.9502C893.561 39.7502 885.861 32.9502 876.661 32.9502Z" fill="#C2C4C7"/>
<path d="M959.06 32.1501C961.36 33.5501 963.26 35.4501 964.46 37.8501C965.76 40.2501 966.46 43.0501 966.36 45.8501C966.36 48.6501 965.76 51.3501 964.46 53.8501C963.26 56.1501 961.36 58.1501 959.06 59.5501C954.26 62.3501 948.26 62.3501 943.36 59.5501C941.06 58.1501 939.16 56.2501 937.96 53.8501C936.66 51.4501 935.96 48.6501 936.06 45.8501C936.06 43.0501 936.66 40.3501 937.96 37.9501C939.16 35.5501 941.06 33.6501 943.36 32.2501C948.16 29.3501 954.16 29.3501 959.06 32.1501ZM992.06 32.1501C994.36 33.5501 996.26 35.4501 997.46 37.8501C998.76 40.2501 999.46 43.0501 999.36 45.8501C999.36 48.6501 998.76 51.3501 997.46 53.8501C996.26 56.1501 994.36 58.1501 992.06 59.5501C987.16 62.3501 981.26 62.3501 976.36 59.5501C974.06 58.1501 972.16 56.2501 970.96 53.8501C969.66 51.4501 968.96 48.6501 969.06 45.8501C969.06 43.0501 969.66 40.3501 970.96 37.9501C972.16 35.5501 974.06 33.6501 976.36 32.2501C981.26 29.3501 987.16 29.3501 992.06 32.1501ZM1043.06 30.0501C1045.96 30.0501 1048.46 30.6501 1050.56 31.9501C1052.66 33.2501 1054.36 35.0501 1055.46 37.3501C1056.66 39.8501 1057.26 42.4501 1057.16 45.1501C1057.16 45.6501 1057.16 46.1501 1057.06 46.6501H1033.66C1033.76 48.8501 1034.36 50.8501 1035.26 52.3501C1036.16 53.8501 1037.46 55.0501 1038.96 55.8501C1040.36 56.6501 1041.96 57.0501 1043.66 57.0501C1047.56 57.0501 1050.46 55.2501 1052.46 51.7501L1056.66 53.7501C1055.46 56.0501 1053.66 58.0501 1051.46 59.4501C1049.26 60.8501 1046.56 61.5501 1043.56 61.5501C1040.86 61.5501 1038.26 60.8501 1035.96 59.5501C1033.76 58.2501 1031.86 56.2501 1030.76 53.9501C1029.46 51.4501 1028.86 48.7501 1028.86 45.9501C1028.86 43.2501 1029.46 40.5501 1030.66 38.0501C1031.76 35.6501 1033.56 33.6501 1035.66 32.2501C1037.76 30.7501 1040.36 30.0501 1043.06 30.0501ZM917.26 18.3501V56.7501H935.96V61.5501H912.16V18.3501H917.26ZM1008.16 18.3501V45.6501L1023.46 30.1501H1029.86V30.3501L1016.96 43.3501L1029.26 61.2501V61.4501H1023.16L1013.36 46.8501L1008.06 52.1501V61.5501H1002.96V18.3501H1008.16ZM1077.96 30.7501V36.1501C1076.66 35.5501 1075.16 35.1501 1073.66 35.1501C1072.26 35.1501 1070.76 35.5501 1069.56 36.4501C1068.36 37.3501 1067.26 38.4501 1066.56 39.8501C1065.86 41.2501 1065.46 42.8501 1065.46 44.4501V61.5501H1060.36V30.0501H1065.16V35.8501H1065.36C1065.96 34.1501 1067.16 32.7501 1068.86 31.6501C1070.46 30.5501 1072.36 30.0501 1074.26 29.9501C1075.66 30.0501 1076.86 30.2501 1077.96 30.7501ZM951.16 34.5501C947.46 34.5501 944.06 36.5501 942.26 39.8501C941.26 41.6501 940.76 43.7501 940.86 45.8501C940.76 47.9501 941.26 49.9501 942.26 51.8501C943.56 54.2501 945.76 56.0501 948.46 56.7501C951.06 57.4501 953.86 57.1501 956.26 55.7501C957.86 54.8501 959.16 53.4501 960.06 51.8501C961.06 50.0501 961.56 47.9501 961.46 45.8501C961.56 43.7501 961.06 41.7501 960.06 39.8501C959.16 38.2501 957.86 36.8501 956.26 35.9501C954.76 35.0501 952.96 34.5501 951.16 34.5501ZM984.16 34.5501C982.36 34.5501 980.56 35.0501 979.06 35.9501C977.46 36.8501 976.16 38.2501 975.26 39.8501C974.26 41.6501 973.76 43.7501 973.86 45.8501C973.76 47.9501 974.26 49.9501 975.26 51.8501C976.16 53.4501 977.46 54.8501 979.06 55.7501C980.66 56.6501 982.36 57.1501 984.16 57.1501C985.96 57.1501 987.76 56.6501 989.26 55.7501C990.86 54.8501 992.16 53.4501 993.06 51.8501C994.06 50.0501 994.56 47.9501 994.46 45.8501C994.56 43.7501 994.06 41.7501 993.06 39.8501C992.16 38.2501 990.86 36.8501 989.26 35.9501C987.76 35.0501 985.96 34.5501 984.16 34.5501ZM1037.16 36.7501C1035.56 38.2501 1034.46 40.2501 1033.96 42.6501H1051.96C1051.86 41.3501 1051.56 40.0501 1050.96 38.9501C1050.26 37.6501 1049.26 36.5501 1048.06 35.8501C1046.76 34.9501 1045.06 34.5501 1043.06 34.5501C1040.86 34.4501 1038.76 35.3501 1037.16 36.7501Z" fill="#C2C4C7"/>
</g>
<g clip-path="url(#clip3_223_8017)">
<mask id="mask1_223_8017" style="mask-type:luminance" maskUnits="userSpaceOnUse" x="-247" y="-2091" width="1701" height="2201">
<path d="M-246.344 109.445H1453.66V-2090.56H-246.344V109.445Z" fill="white"/>
</mask>
<g mask="url(#mask1_223_8017)">
<path d="M1297.47 41.4424C1296.73 40.2229 1297.72 39.1979 1297.72 39.1979L1306.4 30.234C1307.39 29.209 1305.96 29.209 1305.96 29.209H1297.86C1296.43 29.209 1295.46 30.2451 1295.46 30.2451L1287.41 38.7729C1286.43 39.8063 1286.43 38.3841 1286.43 38.3841V19.7423C1286.43 18.3173 1285.01 18.3173 1285.01 18.3173H1278.86C1277.49 18.3173 1277.49 19.6868 1277.49 19.6868V58.6897C1277.49 60.1147 1278.91 60.1147 1278.91 60.1147H1285C1286.37 60.1147 1286.37 58.7452 1286.37 58.7452V51.8897C1286.37 50.4647 1287.41 49.4897 1287.41 49.4897L1290.28 46.7952L1297.48 58.8925C1298.21 60.1147 1299.64 60.1147 1299.64 60.1147H1307.33C1308.75 60.1147 1308.01 58.8952 1308.01 58.8952L1297.47 41.4424ZM1271.09 58.6897V30.5757C1271.09 29.1507 1269.67 29.1507 1269.67 29.1507H1263.52C1262.1 29.1507 1262.1 30.5757 1262.1 30.5757V58.6897C1262.1 60.1147 1263.52 60.1147 1263.52 60.1147H1269.67C1271.09 60.1147 1271.09 58.6897 1271.09 58.6897ZM1270.86 23.6951V19.6701C1270.86 19.6701 1270.86 18.2979 1269.49 18.2979H1263.47C1263.47 18.2979 1262.1 18.2979 1262.1 19.6701V23.6951C1262.1 23.6951 1262.1 25.0646 1263.47 25.0646H1269.49C1269.49 25.0646 1270.86 25.0646 1270.86 23.6951ZM1255.46 58.6897V19.7423C1255.46 18.3173 1254.04 18.3173 1254.04 18.3173H1247.77C1246.34 18.3173 1246.34 19.7423 1246.34 19.7423V58.6897C1246.34 60.1147 1247.77 60.1147 1247.77 60.1147H1254.04C1255.46 60.1147 1255.46 58.6897 1255.46 58.6897ZM1241.37 57.0147C1241.37 57.0147 1242.16 56.0952 1241.25 55.2952L1236.22 50.923C1238.47 47.5841 1239.8 43.5535 1239.8 39.2174C1239.8 27.6646 1230.43 18.2979 1218.88 18.2979C1207.32 18.2979 1197.96 27.6646 1197.96 39.2174C1197.96 50.7702 1207.32 60.1341 1218.88 60.1341C1223.11 60.1341 1227.04 58.8702 1230.32 56.7147L1235.84 61.5091C1235.84 61.5091 1236.76 62.3091 1237.56 61.3897L1241.37 57.0147ZM1230.96 39.2174C1230.96 45.8869 1225.55 51.2924 1218.88 51.2924C1212.21 51.2924 1206.8 45.8869 1206.8 39.2174C1206.8 32.5479 1212.21 27.1396 1218.88 27.1396C1225.55 27.1396 1230.96 32.5479 1230.96 39.2174Z" fill="#C2C4C7"/>
<path d="M1367.22 57.4474L1360.51 51.8113C1362.85 48.1057 1364.21 43.7168 1364.21 39.0084C1364.21 25.75 1353.46 15 1340.2 15C1326.95 15 1316.2 25.75 1316.2 39.0056C1316.2 52.264 1326.95 63.0141 1340.2 63.0141C1345.35 63.0141 1350.11 61.3918 1354.02 58.6391L1361.18 64.6502C1361.18 64.6502 1362.25 65.5419 1363.14 64.478L1367.4 59.4057C1367.4 59.4057 1368.29 58.3418 1367.22 57.4474ZM1354.95 39.0084C1354.95 47.1557 1348.35 53.7585 1340.2 53.7585C1332.06 53.7585 1325.45 47.1557 1325.45 39.0056C1325.45 30.8612 1332.06 24.2556 1340.2 24.2556C1348.35 24.2556 1354.95 30.8612 1354.95 39.0084Z" fill="#C2C4C7"/>
<path d="M1330.75 39.0066C1330.75 33.7843 1334.98 29.551 1340.2 29.551C1345.42 29.551 1349.66 33.7843 1349.66 39.0066C1349.66 44.2288 1345.42 48.4649 1340.2 48.4622C1334.98 48.4622 1330.75 44.2288 1330.75 39.0066Z" fill="#C2C4C7"/>
<path d="M1363.17 22.0834C1363.17 20.6361 1364.35 19.4695 1365.79 19.4695C1367.23 19.4695 1368.4 20.65 1368.4 22.0834C1368.4 23.5167 1367.23 24.6973 1365.79 24.6973C1364.35 24.6973 1363.17 23.5167 1363.17 22.0834ZM1365.79 19.8195C1364.55 19.8195 1363.59 20.825 1363.59 22.0834C1363.59 23.3473 1364.54 24.3473 1365.79 24.3473C1367.04 24.3473 1367.98 23.3473 1367.98 22.0834C1367.98 20.825 1367.04 19.8195 1365.79 19.8195ZM1365.19 23.6695H1364.84V20.4834H1365.99C1366.54 20.4834 1366.97 20.7611 1366.97 21.3639C1366.97 21.8667 1366.69 22.2028 1366.21 22.25L1367.11 23.6695H1366.67L1365.83 22.25H1365.19V23.6695ZM1365.19 21.9445H1365.91C1366.32 21.9445 1366.62 21.8528 1366.62 21.3639C1366.62 20.95 1366.3 20.7917 1365.91 20.7917H1365.19V21.9445Z" fill="#C2C4C7"/>
</g>
</g>
<g clip-path="url(#clip4_223_8017)">
<path d="M1514.36 49.9398C1514.22 49.3743 1513.7 48.9828 1513.11 48.9994L1512.61 49.062C1511.97 49.2223 1511.32 49.3255 1510.66 49.3712C1509.41 49.4326 1509.21 48.9505 1509.12 47.5779V28.8472C1509.08 28.4078 1508.87 28.0016 1508.52 27.7226L1508.4 27.636C1508.36 27.5996 1508.32 27.5673 1508.27 27.5371C1506.93 26.9039 1505.52 26.4355 1504.06 26.1396H1503.96C1502.15 25.6929 1500.28 25.4565 1498.41 25.4356C1497.58 25.4356 1496.74 25.4806 1495.91 25.571C1494.65 25.7126 1493.39 25.9479 1492.16 26.276C1491.62 26.3833 1491.21 26.831 1491.16 27.3767C1491.26 27.8683 1491.39 28.3525 1491.56 28.8232C1491.81 29.5897 1492.09 29.775 1492.58 29.8739C1493.19 29.8582 1493.79 29.7791 1494.39 29.6386C1495.41 29.4365 1496.45 29.3125 1497.49 29.2678C1498.59 29.2324 1499.68 29.2857 1500.77 29.4283C1501.99 29.5314 1503.17 29.9166 1504.21 30.5539V37.836H1503.99L1498.7 37.959C1491.64 38.1455 1488.41 40.9759 1488.41 46.5024C1488.27 48.7111 1489.12 50.8707 1490.74 52.3994C1492.45 53.727 1494.59 54.3947 1496.76 54.2792C1499.61 54.2957 1502.37 53.3138 1504.55 51.5101L1504.77 51.3362L1504.9 51.5967C1505.41 52.8388 1506.5 53.7583 1507.82 54.0687C1508.54 54.2459 1509.28 54.329 1510.02 54.3166C1510.24 54.329 1510.46 54.329 1510.68 54.3166C1511.75 54.2208 1512.79 53.9491 1513.76 53.5127C1514.41 53.2033 1514.88 52.8203 1514.85 52.1403C1514.74 51.4195 1514.58 50.7082 1514.36 50.0137M1504.45 48.3081L1504.35 48.3819L1504.25 48.4434C1502.29 49.6732 1500.03 50.3418 1497.71 50.372C1494.56 50.3106 1493.41 49.1358 1493.34 46.1931C1493.41 42.7316 1494.59 41.6682 1498.52 41.4215L1503.97 41.1611H1504.45V48.3081Z" fill="#C2C4C7"/>
<path d="M1592.47 54.1552H1589.89C1589.55 54.1707 1589.22 54.046 1588.97 53.8095C1588.75 53.523 1588.64 53.167 1588.67 52.8076V28.7243C1588.62 28.3567 1588.75 27.9903 1589.01 27.7227C1589.26 27.508 1589.59 27.4007 1589.92 27.4258H1592.25C1592.58 27.3976 1592.92 27.4945 1593.2 27.6976C1593.45 27.9288 1593.57 28.2621 1593.54 28.6003V29.2315V29.775L1593.9 29.3795C1595.36 27.756 1597.45 26.829 1599.64 26.8324C1600.18 26.8458 1600.73 26.8998 1601.27 26.9936C1601.66 27.0781 1601.92 27.4299 1601.89 27.8213C1601.9 27.9288 1601.9 28.036 1601.89 28.1433L1601.5 30.6155C1601.48 31.0121 1601.15 31.3278 1600.75 31.358C1600.53 31.3518 1600.32 31.3267 1600.1 31.2831C1599.72 31.2206 1599.34 31.1872 1598.95 31.1839C1596.87 31.3526 1594.96 32.4596 1593.81 34.1883V52.8076C1593.83 53.1608 1593.72 53.5086 1593.49 53.7845C1593.25 54.0333 1592.91 54.1676 1592.55 54.1552" fill="#C2C4C7"/>
<path d="M1571.09 25.8064C1564.47 25.8064 1559.5 30.3561 1559.5 40.704C1559.5 50.1866 1563.99 54.8352 1572.44 54.8352C1573.93 54.8269 1575.42 54.6737 1576.88 54.3782C1577.12 54.3782 1577.37 54.2666 1577.61 54.2178C1578.39 53.999 1579.15 53.7261 1579.88 53.4013C1580.4 53.2544 1580.79 52.8182 1580.86 52.2892C1580.71 51.5249 1580.53 50.7697 1580.3 50.0261C1580.13 49.5493 1579.68 49.2296 1579.17 49.2348C1579.01 49.2348 1576.75 49.7296 1576.61 49.7671C1575.28 50.1085 1573.92 50.2876 1572.55 50.298C1566.54 50.298 1564.75 47.4542 1564.75 41.6435V41.2112H1580.48C1580.95 41.1779 1581.33 40.8197 1581.38 40.3584C1581.38 40.2928 1581.38 40.2261 1581.38 40.1605C1581.38 39.1338 1581.47 38.058 1581.47 37.2052C1581.47 30.0218 1577.95 25.8439 1571.07 25.8439M1576.6 37.8975H1564.8C1564.96 32.0129 1567.3 29.6022 1570.97 29.6022C1574.65 29.6022 1576.66 31.5673 1576.66 36.1919C1576.66 36.5502 1576.66 37.4279 1576.66 37.8975" fill="#C2C4C7"/>
<path d="M1608.39 64.9978H1608.21C1607.37 65.0126 1606.54 64.9423 1605.71 64.7878C1605.27 64.7137 1605.09 64.1202 1605.17 63.3044C1605.21 62.8109 1605.28 62.3198 1605.36 61.833C1605.49 61.2024 1605.79 60.9182 1606.11 60.9182H1606.47H1607.04C1607.46 60.9711 1607.87 61.0042 1608.29 61.0171C1610.96 61.245 1613.43 59.5877 1614.18 57.0485L1615.6 53.6367L1615.74 53.2773V53.1294V52.9567L1606.28 28.2297C1606.26 28.1232 1606.26 28.014 1606.28 27.9078C1606.27 27.7507 1606.32 27.5965 1606.43 27.4755C1606.54 27.3621 1606.7 27.2996 1606.87 27.3017H1610.45C1610.91 27.2663 1611.33 27.5412 1611.48 27.9703L1617.72 45.6869L1618.14 46.9229L1618.56 45.6869L1624.99 28.1057C1625.11 27.636 1625.52 27.3006 1626.02 27.2903H1629.1C1629.29 27.2756 1629.49 27.3278 1629.65 27.4381C1629.76 27.5288 1629.82 27.6672 1629.8 27.8088C1629.82 27.9672 1629.77 28.1232 1629.71 28.2661L1619.15 56.3313C1616.84 62.513 1613.92 64.8992 1608.37 64.8992" fill="#C2C4C7"/>
<path d="M1650.94 54.0936C1650.36 54.1125 1649.81 53.7947 1649.53 53.2773L1643.88 44.6235L1643.68 44.3269L1643.49 44.6235L1637.86 53.2773C1637.58 53.7968 1637.02 54.1135 1636.42 54.0936H1633.31C1633.1 54.1009 1632.9 54.0396 1632.73 53.9207C1632.59 53.7885 1632.5 53.5906 1632.51 53.3886C1632.52 53.1304 1632.6 52.8783 1632.73 52.6597L1640.88 40.3822L1640.99 40.2593L1640.88 40.1353L1633.39 28.6128C1633.26 28.4462 1633.2 28.2493 1633.19 28.0442C1633.22 27.5944 1633.61 27.2508 1634.06 27.2652H1636.9C1637.41 27.2433 1637.89 27.5058 1638.14 27.9452L1643.45 35.8949L1643.64 36.1791L1643.82 35.8949L1649.09 27.9943C1649.34 27.5401 1649.83 27.259 1650.34 27.2652H1653.39C1653.84 27.2446 1654.23 27.5913 1654.26 28.0442C1654.25 28.2421 1654.18 28.4325 1654.06 28.5878L1646.56 40.0979L1646.47 40.2218L1646.56 40.3457L1654.7 52.5848C1654.87 52.7972 1654.97 53.0587 1654.97 53.3273C1654.98 53.5325 1654.89 53.7311 1654.74 53.8709C1654.57 53.9926 1654.36 54.053 1654.14 54.0438H1651.03L1650.94 54.0936Z" fill="#C2C4C7"/>
<path d="M1528.58 54.1674C1527.31 54.175 1526.04 53.9664 1524.83 53.5489C1523.93 53.2657 1523.1 52.7689 1522.43 52.1026C1520.83 50.3478 1520.68 48.1715 1520.67 45.3034V17.8314C1520.69 17.6545 1520.77 17.4899 1520.91 17.3744C1521.88 16.2934 1523.11 15.4801 1524.5 15.0128C1524.57 14.996 1524.65 14.996 1524.72 15.0128C1524.98 15.0104 1525.22 15.1083 1525.41 15.2843C1525.65 15.5478 1525.77 15.8956 1525.75 16.2498V45.4388C1525.66 46.6874 1526.04 47.9247 1526.8 48.9253C1527.52 49.6032 1528.5 49.9448 1529.5 49.8657C1529.78 49.8657 1530.11 49.8657 1530.5 49.8033C1531.25 49.6823 1532 49.5002 1532.73 49.2597C1532.87 49.2002 1533.03 49.17 1533.18 49.1731C1533.67 49.1971 1534.09 49.5252 1534.22 49.9884C1534.42 50.6822 1534.56 51.3893 1534.66 52.1026C1534.66 52.672 1534.18 53.0554 1533.69 53.2283C1532.05 53.853 1530.32 54.1872 1528.56 54.2175" fill="#C2C4C7"/>
<path d="M1554.5 49.976C1554.37 49.5063 1553.94 49.1751 1553.45 49.1607C1553.3 49.1587 1553.15 49.1889 1553.02 49.247C1552.01 49.5875 1550.96 49.7875 1549.89 49.8407H1549.77C1548.76 49.9177 1547.78 49.5668 1547.05 48.8765C1546.31 47.9017 1545.96 46.6915 1546.07 45.4763V45.3772L1546.23 30.9245H1552.15C1552.45 30.9485 1552.74 30.8692 1552.98 30.7015C1553.22 30.4995 1553.34 30.1954 1553.32 29.8862V28.0929C1553.36 27.7733 1553.23 27.4537 1552.99 27.2401C1552.76 27.085 1552.48 27.0112 1552.2 27.0298H1546.23V18.0293C1546.25 17.6785 1546.14 17.3307 1545.9 17.0652C1545.72 16.8944 1545.48 16.7975 1545.23 16.7934C1545.14 16.7776 1545.05 16.7776 1544.97 16.7934C1544.15 17.0765 1543.37 17.4672 1542.65 17.9555C1542.27 18.243 1541.91 18.5574 1541.57 18.8948C1541.47 19.0186 1541.42 19.1708 1541.42 19.3279L1541.27 26.9068H1538.17C1537.85 26.8975 1537.54 27.0078 1537.31 27.2153C1537.1 27.4672 1537 27.7839 1537.02 28.1056V29.8487C1536.96 30.1985 1537.06 30.5538 1537.29 30.8256C1537.56 31.0483 1537.92 31.1472 1538.27 31.0973H1541.18L1540.9 44.6849V45.2659C1540.9 48.1464 1541.06 50.3228 1542.67 52.091C1544.35 53.5874 1546.58 54.3457 1548.84 54.1925C1550.61 54.1935 1552.37 53.8613 1554.01 53.2156C1554.48 53.0177 1554.99 52.6472 1554.96 52.0786C1554.87 51.3776 1554.72 50.6873 1554.5 50.0136" fill="#C2C4C7"/>
</g>
<path d="M1854.96 0H1774.96V80H1854.96V0Z" fill="#C2C4C7"/>
<path d="M1790.02 47.0851C1791.25 45.7003 1792.13 43.9913 1792.52 42.1016C1793.5 46.9819 1797.82 50.6563 1802.99 50.6563C1808.16 50.6563 1812.47 46.9811 1813.46 42.0999V50.6563H1817V37.8801L1824.14 45.0223L1831.25 37.8801V50.6562H1834.85V42.0998C1835.84 46.981 1840.15 50.6562 1845.32 50.6562C1849.57 50.6562 1853.24 48.1748 1854.96 44.582V35.3649C1853.24 31.7721 1849.57 29.2908 1845.32 29.2908C1840.15 29.2908 1835.84 32.9659 1834.85 37.8472V29.2908L1824.14 39.9733L1813.46 29.2908V37.8472C1812.47 32.966 1808.16 29.2908 1802.99 29.2908C1797.82 29.2908 1793.5 32.9651 1792.52 37.8454C1792.13 35.9557 1791.25 34.2468 1790.02 32.862C1788.06 30.6708 1785.22 29.2908 1782.05 29.2908H1774.96V50.6562H1782.05C1785.22 50.6562 1788.06 49.2762 1790.02 47.0851ZM1845.32 32.8452C1849.26 32.8452 1852.45 36.0366 1852.45 39.9734C1852.45 43.9103 1849.26 47.1017 1845.32 47.1017C1841.39 47.1017 1838.2 43.9103 1838.2 39.9734C1838.2 36.0367 1841.39 32.8452 1845.32 32.8452ZM1802.99 32.8452C1806.92 32.8452 1810.12 36.0366 1810.12 39.9734C1810.12 43.9103 1806.92 47.1017 1802.99 47.1017C1799.05 47.1017 1795.86 43.9103 1795.86 39.9734C1795.86 36.0367 1799.05 32.8452 1802.99 32.8452ZM1778.51 32.8621H1782.51C1786.23 33.1027 1789.18 36.1936 1789.18 39.9735C1789.18 43.7544 1786.23 46.8459 1782.51 47.0851H1778.51V32.8621Z" fill="white"/>
<defs>
<filter id="filter0_d_223_8017" x="384.879" y="17.4602" width="57.3828" height="77.5398" filterUnits="userSpaceOnUse" color-interpolation-filters="sRGB">
<feFlood flood-opacity="0" result="BackgroundImageFix"/>
<feColorMatrix in="SourceAlpha" type="matrix" values="0 0 0 0 0 0 0 0 0 0 0 0 0 0 0 0 0 0 127 0" result="hardAlpha"/>
<feOffset dx="20" dy="10"/>
<feGaussianBlur stdDeviation="10"/>
<feColorMatrix type="matrix" values="0 0 0 0 0 0 0 0 0 0 0 0 0 0 0 0 0 0 0.0530212 0"/>
<feBlend mode="normal" in2="BackgroundImageFix" result="effect1_dropShadow_223_8017"/>
<feBlend mode="normal" in="SourceGraphic" in2="effect1_dropShadow_223_8017" result="shape"/>
</filter>
<clipPath id="clip0_223_8017">
<rect width="245.612" height="50" fill="white" transform="translate(3.03516 15)"/>
</clipPath>
<clipPath id="clip1_223_8017">
<rect width="50" height="50" fill="white" transform="translate(368.648 15)"/>
</clipPath>
<clipPath id="clip2_223_8017">
<rect width="219.4" height="58.3" fill="white" transform="translate(858.562 10.8501)"/>
</clipPath>
<clipPath id="clip3_223_8017">
<rect width="170.437" height="50" fill="white" transform="translate(1197.96 15)"/>
</clipPath>
<clipPath id="clip4_223_8017">
<rect width="166.566" height="50" fill="white" transform="translate(1488.4 15)"/>
</clipPath>
</defs>
</svg>
