<svg width="2162" height="91" viewBox="0 0 2162 91" fill="none" xmlns="http://www.w3.org/2000/svg">
<g clip-path="url(#clip0_223_8007)">
<path d="M18.8208 28.5227V42.1921H6.26275V28.5227H0.304688V61.1533H6.26436V47.9275H18.8192V61.1533H24.7805V28.5227H18.8208ZM43.8563 50.6066C43.8563 51.9145 43.3367 53.1688 42.4119 54.0936C41.4871 55.0185 40.2327 55.538 38.9249 55.538C37.6169 55.538 36.3626 55.0185 35.4378 54.0936C34.513 53.1688 33.9934 51.9145 33.9934 50.6066V36.6292H28.3402V50.6066C28.3402 53.411 29.4542 56.1006 31.4373 58.0837C33.4203 60.0667 36.1099 61.1808 38.9144 61.1808C41.7188 61.1808 44.4084 60.0667 46.3914 58.0837C48.3745 56.1006 49.4886 53.411 49.4886 50.6066V36.6292H43.8563V50.6066ZM85.745 38.0695C85.745 35.2034 87.6402 34.2953 89.716 34.2953C91.3902 34.2953 93.5999 35.5695 95.0466 37.1146L98.7482 32.7501C96.8998 30.2501 93.1515 28.5227 90.0821 28.5227C83.9482 28.5227 79.5128 32.1146 79.5128 38.0695C79.5128 49.1179 93.016 45.6114 93.016 51.7953C93.016 53.7017 91.1644 55.3856 89.045 55.3856C85.7015 55.3856 84.6176 53.7517 83.0821 52.0227L78.9724 56.2953C81.6015 59.5211 84.8434 61.1598 88.7257 61.1598C94.5531 61.1598 99.2402 57.5243 99.2402 51.8404C99.2402 39.5759 85.7353 43.3872 85.7353 38.0695M169.284 55.9404C165.943 55.9404 164.993 54.4953 164.993 52.2824V42.484H170.187V37.5195H164.993V30.9695L159.261 33.5421V53.5001C159.261 58.605 162.784 61.1775 167.613 61.1775C168.371 61.1904 169.129 61.1292 169.874 60.9969L171.272 55.8485C170.642 55.8921 169.918 55.9356 169.284 55.9356M65.3757 36.7921C62.5757 36.7921 60.6208 37.605 58.7305 39.4582V28.7179H53.0692V48.6259C53.0692 56.0775 58.4563 61.184 64.5111 61.184C71.2273 61.184 77.1353 55.9872 77.1353 48.9904C77.1353 42.0808 71.6982 36.7969 65.3757 36.7969M65.3402 55.4856C64.4964 55.4856 63.6609 55.3194 62.8814 54.9965C62.1019 54.6736 61.3936 54.2004 60.797 53.6038C60.2004 53.0072 59.7271 52.2989 59.4042 51.5194C59.0814 50.7398 58.9152 49.9044 58.9152 49.0606C58.9152 48.2169 59.0814 47.3814 59.4042 46.6019C59.7271 45.8224 60.2004 45.1141 60.797 44.5174C61.3936 43.9208 62.1019 43.4476 62.8814 43.1247C63.6609 42.8018 64.4964 42.6356 65.3402 42.6356C67.0442 42.6356 68.6784 43.3125 69.8833 44.5174C71.0883 45.7224 71.7652 47.3566 71.7652 49.0606C71.7652 50.7646 71.0883 52.3988 69.8833 53.6038C68.6784 54.8087 67.0442 55.4856 65.3402 55.4856ZM126.86 48.6937C126.86 41.684 120.964 36.5001 114.235 36.5001C108.182 36.5001 102.793 41.605 102.793 49.0582V68.9775H108.455V58.2227C110.342 60.0727 112.3 60.8888 115.097 60.8888C121.419 60.8888 126.86 55.605 126.86 48.6937ZM121.498 48.6227C121.498 50.3267 120.821 51.9609 119.616 53.1659C118.411 54.3708 116.777 55.0477 115.073 55.0477C113.369 55.0477 111.735 54.3708 110.53 53.1659C109.325 51.9609 108.648 50.3267 108.648 48.6227C108.648 46.9187 109.325 45.2845 110.53 44.0795C111.735 42.8746 113.369 42.1977 115.073 42.1977C116.777 42.1977 118.411 42.8746 119.616 44.0795C120.821 45.2845 121.498 46.9187 121.498 48.6227Z" fill="#C2C4C7"/>
<path d="M145.153 36.2259V30.5371C145.904 30.1858 146.541 29.6282 146.988 28.9292C147.435 28.2302 147.675 27.4185 147.678 26.5888V26.4581C147.678 24.0388 145.717 22.0775 143.298 22.0775H143.167C142.005 22.0775 140.891 22.539 140.07 23.3605C139.248 24.1821 138.787 25.2963 138.787 26.4581V26.5888C138.79 27.4185 139.03 28.2302 139.477 28.9292C139.924 29.6282 140.561 30.1858 141.312 30.5371V36.2259C139.152 36.5567 137.117 37.4525 135.414 38.8226L119.812 26.671C119.924 26.2694 119.982 25.8565 119.988 25.442C119.99 24.4657 119.702 23.5108 119.162 22.698C118.621 21.8853 117.851 21.2511 116.95 20.8759C116.048 20.5007 115.056 20.4012 114.098 20.59C113.14 20.7788 112.26 21.2475 111.568 21.9367C110.877 22.6259 110.405 23.5047 110.214 24.4619C110.022 25.4192 110.118 26.4118 110.49 27.3143C110.862 28.2168 111.494 28.9887 112.305 29.5322C113.116 30.0757 114.07 30.3665 115.046 30.3678C115.9 30.3638 116.738 30.1358 117.477 29.7065L132.84 41.6613C131.46 43.7463 130.74 46.1986 130.774 48.6988C130.808 51.1989 131.594 53.6308 133.03 55.6775L128.358 60.3517C127.98 60.2309 127.586 60.1667 127.19 60.1613C126.388 60.162 125.605 60.4002 124.939 60.8458C124.273 61.2914 123.754 61.9245 123.448 62.665C123.141 63.4055 123.061 64.2202 123.218 65.0061C123.374 65.792 123.76 66.514 124.327 67.0806C124.894 67.6473 125.616 68.0333 126.401 68.1898C127.187 68.3462 128.002 68.2663 128.743 67.9599C129.483 67.6535 130.116 67.1345 130.562 66.4684C131.007 65.8024 131.246 65.0192 131.246 64.2178C131.241 63.8213 131.177 63.4277 131.056 63.0501L135.678 58.4259C137.186 59.5863 138.939 60.3864 140.803 60.7648C142.668 61.1431 144.594 61.0897 146.434 60.6086C148.275 60.1275 149.981 59.2315 151.422 57.9892C152.862 56.747 154 55.1914 154.746 53.4417C155.493 51.6921 155.829 49.7947 155.73 47.8949C155.63 45.9952 155.096 44.1435 154.17 42.4818C153.244 40.82 151.95 39.3923 150.387 38.3079C148.824 37.2235 147.033 36.5113 145.153 36.2259ZM143.237 54.9355C142.382 54.959 141.532 54.8111 140.736 54.5004C139.94 54.1897 139.214 53.7226 138.601 53.1266C137.989 52.5307 137.502 51.818 137.169 51.0307C136.837 50.2434 136.665 49.3974 136.665 48.5428C136.665 47.6882 136.837 46.8422 137.169 46.0549C137.502 45.2676 137.989 44.5549 138.601 43.959C139.214 43.363 139.94 42.8959 140.736 42.5852C141.532 42.2745 142.382 42.1265 143.237 42.1501C144.892 42.208 146.461 42.9063 147.612 44.0979C148.763 45.2895 149.407 46.8813 149.408 48.5381C149.409 50.1949 148.767 51.7873 147.617 52.98C146.467 54.1728 144.899 54.8727 143.243 54.9323" fill="#C2C4C7"/>
</g>
<g clip-path="url(#clip1_223_8007)">
<path d="M341.294 62.4894C341.212 62.2418 341.096 61.901 340.946 61.4676C340.797 61.0342 340.639 60.5851 340.474 60.1208C340.309 59.6559 340.154 59.2073 340.01 58.7739C339.865 58.3399 339.757 57.9896 339.684 57.7206H339.669C339.607 57.9688 339.517 58.2756 339.398 58.6423C339.279 59.0083 339.145 59.4058 338.996 59.8341C338.846 60.2625 338.691 60.7066 338.531 61.1659C338.371 61.6251 338.219 62.0661 338.075 62.4894H341.294ZM337.718 63.6813L336.604 66.809C336.583 66.8708 336.542 66.9016 336.48 66.9016H335.427C335.344 66.9016 335.314 66.8607 335.334 66.7775L338.709 57.3805C338.73 57.3181 338.75 57.2488 338.771 57.1713C338.792 57.0938 338.807 56.9521 338.817 56.7455C338.817 56.6938 338.843 56.668 338.895 56.668H340.412C340.464 56.668 340.494 56.6938 340.505 56.7455L344.143 66.7933C344.175 66.8657 344.153 66.9016 344.081 66.9016H342.905C342.853 66.9016 342.812 66.8758 342.781 66.8242L341.651 63.6813H337.718Z" fill="#C2C4C7"/>
<path d="M345.456 61.1268C345.456 60.9926 345.454 60.8433 345.449 60.6776C345.444 60.5132 345.439 60.3526 345.433 60.1982C345.428 60.0432 345.423 59.899 345.418 59.7642C345.412 59.6306 345.405 59.5324 345.395 59.4706C345.395 59.4082 345.425 59.3774 345.487 59.3774H346.447C346.509 59.3774 346.556 59.4082 346.586 59.4706C346.607 59.5424 346.623 59.6457 346.633 59.7799C346.643 59.9141 346.659 60.0691 346.68 60.2442C347.361 59.5632 348.151 59.2224 349.048 59.2224C349.327 59.2224 349.613 59.264 349.908 59.3465C350.202 59.429 350.473 59.5815 350.72 59.8032C350.968 60.025 351.172 60.3293 351.332 60.7167C351.492 61.1035 351.572 61.6018 351.572 62.2103V66.7932C351.572 66.8657 351.535 66.9016 351.464 66.9016H350.379C350.308 66.9016 350.271 66.8607 350.271 66.7775V62.3344C350.271 61.746 350.142 61.2717 349.884 60.9101C349.626 60.5491 349.223 60.3683 348.677 60.3683C348.284 60.3683 347.926 60.4508 347.601 60.6159C347.276 60.7809 346.989 61.0134 346.741 61.3126V66.7932C346.741 66.8657 346.711 66.9016 346.649 66.9016H345.55C345.487 66.9016 345.456 66.8657 345.456 66.7932V61.1268Z" fill="#C2C4C7"/>
<path d="M362.318 62.4894C362.235 62.2418 362.119 61.901 361.969 61.4676C361.82 61.0342 361.663 60.5851 361.498 60.1208C361.333 59.6559 361.178 59.2073 361.033 58.7739C360.888 58.3399 360.78 57.9896 360.708 57.7206H360.693C360.631 57.9688 360.54 58.2756 360.422 58.6423C360.303 59.0083 360.168 59.4058 360.019 59.8341C359.869 60.2625 359.714 60.7066 359.555 61.1659C359.394 61.6251 359.242 62.0661 359.098 62.4894H362.318ZM358.742 63.6813L357.627 66.809C357.606 66.8708 357.565 66.9016 357.503 66.9016H356.45C356.368 66.9016 356.337 66.8607 356.358 66.7775L359.733 57.3805C359.753 57.3181 359.773 57.2488 359.794 57.1713C359.815 57.0938 359.831 56.9521 359.841 56.7455C359.841 56.6938 359.867 56.668 359.918 56.668H361.436C361.487 56.668 361.518 56.6938 361.529 56.7455L365.167 66.7933C365.198 66.8657 365.177 66.9016 365.105 66.9016H363.928C363.876 66.9016 363.835 66.8758 363.805 66.8242L362.674 63.6813H358.742Z" fill="#C2C4C7"/>
<path d="M371.081 60.4926C370.958 60.4409 370.808 60.4019 370.632 60.376C370.457 60.3508 370.271 60.3376 370.075 60.3376C369.631 60.3376 369.233 60.4069 368.882 60.5467C368.532 60.686 368.232 60.8819 367.985 61.1345C367.737 61.3878 367.546 61.6845 367.412 62.0253C367.277 62.3654 367.211 62.7371 367.211 63.1397C367.211 63.6455 367.283 64.0739 367.427 64.4248C367.571 64.7757 367.768 65.0623 368.016 65.284C368.263 65.5058 368.544 65.6683 368.859 65.7716C369.174 65.8749 369.502 65.9266 369.842 65.9266C370.049 65.9266 370.263 65.9134 370.485 65.8875C370.707 65.8623 370.905 65.8082 371.081 65.725V60.4926ZM369.718 67.0567C369.182 67.0567 368.681 66.9767 368.217 66.8167C367.752 66.6567 367.347 66.4142 367.001 66.0891C366.656 65.7641 366.385 65.3615 366.189 64.8815C365.993 64.4015 365.895 63.8414 365.895 63.2014C365.895 62.6338 365.995 62.1078 366.196 61.6227C366.398 61.1376 366.684 60.7168 367.056 60.3609C367.427 60.0044 367.871 59.7259 368.387 59.525C368.903 59.3234 369.476 59.2226 370.106 59.2226C370.323 59.2226 370.503 59.2333 370.648 59.2535C370.792 59.2742 370.936 59.295 371.081 59.3158V55.8939C371.081 55.8322 371.112 55.8013 371.174 55.8013H372.289C372.35 55.8013 372.382 55.8271 372.382 55.8788V65.6324V65.9883C372.382 66.1124 372.392 66.2416 372.413 66.3751C372.413 66.4274 372.387 66.4633 372.335 66.4835C371.891 66.6901 371.453 66.8375 371.019 66.9251C370.586 67.0126 370.152 67.0567 369.718 67.0567Z" fill="#C2C4C7"/>
<path d="M377.503 60.3374C377.173 60.3374 376.873 60.4049 376.605 60.5384C376.337 60.6726 376.107 60.8616 375.916 61.1035C375.725 61.346 375.576 61.6377 375.467 61.9785C375.359 62.3193 375.305 62.696 375.305 63.1086C375.305 63.5011 375.356 63.8696 375.459 64.2155C375.562 64.5613 375.709 64.8631 375.901 65.1213C376.092 65.379 376.328 65.5806 376.613 65.7248C376.897 65.8697 377.224 65.9415 377.596 65.9415C377.874 65.9415 378.143 65.8874 378.401 65.779C378.659 65.6707 378.891 65.5006 379.098 65.2681C379.304 65.0363 379.469 64.7471 379.593 64.4013C379.717 64.0554 379.779 63.6403 379.779 63.1552C379.779 62.7936 379.735 62.4453 379.647 62.1101C379.56 61.775 379.425 61.4751 379.245 61.2118C379.064 60.9491 378.829 60.7375 378.54 60.5775C378.251 60.4174 377.905 60.3374 377.503 60.3374ZM377.565 59.2224C378.112 59.2224 378.602 59.3207 379.035 59.5166C379.469 59.7131 379.838 59.9866 380.143 60.3374C380.447 60.6883 380.681 61.1009 380.847 61.5759C381.012 62.0509 381.095 62.5669 381.095 63.1237C381.095 63.7121 381.007 64.2488 380.831 64.7339C380.656 65.2196 380.414 65.6322 380.104 65.9724C379.794 66.3132 379.423 66.5791 378.989 66.7699C378.556 66.9608 378.081 67.0566 377.565 67.0566C376.946 67.0566 376.412 66.9426 375.962 66.7158C375.513 66.489 375.144 66.1897 374.856 65.8181C374.566 65.4464 374.352 65.0256 374.213 64.5563C374.074 64.0863 374.004 63.6145 374.004 63.1395C374.004 62.5927 374.086 62.0818 374.251 61.6068C374.417 61.1324 374.654 60.7167 374.964 60.3607C375.273 60.0042 375.647 59.7258 376.087 59.5248C376.525 59.3232 377.018 59.2224 377.565 59.2224Z" fill="#C2C4C7"/>
<path d="M387.893 62.9538C387.893 62.1594 387.677 61.527 387.243 61.0576C386.81 60.5877 386.222 60.3527 385.478 60.3527C385.148 60.3527 384.87 60.376 384.642 60.4226C384.415 60.4693 384.204 60.5335 384.008 60.616V65.8182C384.152 65.8699 384.307 65.9033 384.472 65.9184C384.637 65.9342 384.823 65.9417 385.03 65.9417C385.401 65.9417 385.76 65.88 386.106 65.7559C386.451 65.6324 386.756 65.4466 387.019 65.199C387.282 64.9508 387.493 64.6389 387.653 64.2622C387.813 63.8855 387.893 63.4496 387.893 62.9538ZM383.9 55.8013C383.94 55.8013 383.969 55.8038 383.985 55.8088C384 55.8145 384.008 55.8428 384.008 55.8939V59.5325C384.513 59.3259 385.071 59.2226 385.68 59.2226C386.217 59.2226 386.702 59.3133 387.135 59.4934C387.568 59.6742 387.94 59.9275 388.25 60.2526C388.559 60.5776 388.797 60.9594 388.962 61.3978C389.127 61.8369 389.209 62.3195 389.209 62.8455C389.209 63.5472 389.088 64.1589 388.846 64.6799C388.603 65.2015 388.283 65.64 387.886 65.9959C387.488 66.3524 387.032 66.6183 386.516 66.7934C386 66.9685 385.468 67.0567 384.921 67.0567C384.529 67.0567 384.16 67.0334 383.814 66.9868C383.468 66.9402 383.13 66.8608 382.8 66.7468C382.738 66.7367 382.707 66.6901 382.707 66.6076V55.8939C382.707 55.8321 382.744 55.8013 382.815 55.8013H383.9Z" fill="#C2C4C7"/>
<path d="M394.61 62.3344C394.991 62.3344 395.247 62.3319 395.376 62.3268C395.505 62.3218 395.58 62.3136 395.601 62.3035C395.611 62.2827 395.616 62.2544 395.616 62.2185V62.1334C395.616 61.9993 395.59 61.826 395.539 61.6144C395.487 61.4033 395.391 61.1992 395.252 61.0033C395.113 60.8074 394.925 60.6392 394.687 60.5C394.45 60.3607 394.15 60.2908 393.789 60.2908C393.469 60.2908 393.188 60.3475 392.945 60.4609C392.703 60.5749 392.497 60.7267 392.326 60.9176C392.156 61.1091 392.022 61.3284 391.923 61.5759C391.825 61.8235 391.761 62.0767 391.73 62.3344H394.61ZM391.715 63.2945C391.715 63.6661 391.766 64.012 391.869 64.3314C391.973 64.6514 392.133 64.9305 392.349 65.1673C392.566 65.4054 392.837 65.5907 393.162 65.7248C393.487 65.859 393.867 65.9264 394.3 65.9264C394.64 65.9264 394.974 65.893 395.299 65.8256C395.624 65.7589 395.936 65.653 396.236 65.5081C396.287 65.4773 396.313 65.4981 396.313 65.5699V66.4524C396.313 66.5249 396.287 66.5765 396.236 66.6074C395.967 66.7416 395.66 66.8499 395.314 66.9325C394.968 67.015 394.548 67.0566 394.053 67.0566C393.381 67.0566 392.814 66.9457 392.349 66.7233C391.885 66.5016 391.511 66.2074 391.227 65.8414C390.943 65.4747 390.737 65.0621 390.607 64.6023C390.478 64.1436 390.414 63.6762 390.414 63.2012C390.414 62.6651 390.492 62.1542 390.647 61.6685C390.801 61.1835 391.026 60.7608 391.32 60.3992C391.614 60.0382 391.973 59.7516 392.396 59.5399C392.819 59.3282 393.299 59.2224 393.835 59.2224C394.393 59.2224 394.863 59.3232 395.245 59.5248C395.626 59.7258 395.936 59.979 396.173 60.2833C396.411 60.5875 396.584 60.9233 396.692 61.2893C396.801 61.6559 396.855 62.0043 396.855 62.3344C396.855 62.531 396.849 62.696 396.839 62.8302C396.829 62.9644 396.813 63.0677 396.792 63.1395C396.792 63.2012 396.756 63.2321 396.684 63.2321C396.571 63.2535 396.362 63.2686 396.057 63.2787C395.753 63.2894 395.43 63.2945 395.09 63.2945H391.715Z" fill="#C2C4C7"/>
<path d="M408.931 66.6075C408.931 66.7007 408.906 66.7524 408.854 66.7625C408.596 66.8759 408.291 66.9533 407.941 66.9943C407.59 67.0359 407.198 67.0566 406.764 67.0566C406.114 67.0566 405.477 66.9584 404.852 66.7625C404.227 66.5665 403.67 66.2566 403.18 65.8333C402.69 65.4106 402.292 64.8631 401.988 64.1922C401.684 63.5213 401.531 62.7112 401.531 61.7618C401.531 60.9876 401.66 60.2783 401.918 59.6332C402.176 58.9881 402.54 58.4357 403.01 57.9764C403.479 57.5172 404.049 57.1588 404.721 56.9005C405.392 56.6428 406.139 56.5137 406.965 56.5137C407.492 56.5137 407.91 56.5395 408.22 56.5905C408.529 56.6428 408.771 56.7096 408.947 56.7921C408.999 56.8129 409.025 56.8539 409.025 56.9156V57.9531C409.025 58.0256 408.988 58.0514 408.916 58.0306C408.472 57.7931 407.811 57.6747 406.934 57.6747C406.325 57.6747 405.771 57.7698 405.27 57.9607C404.769 58.1522 404.338 58.4231 403.977 58.774C403.616 59.1248 403.337 59.5507 403.141 60.0509C402.946 60.5517 402.847 61.1117 402.847 61.731C402.847 62.5361 402.981 63.207 403.25 63.7431C403.518 64.2804 403.856 64.7057 404.264 65.0206C404.672 65.3356 405.113 65.5573 405.588 65.6865C406.062 65.8156 406.501 65.8799 406.904 65.8799C407.295 65.8799 407.644 65.8623 407.949 65.8257C408.253 65.7898 408.55 65.7148 408.839 65.6015C408.901 65.5907 408.931 65.6115 408.931 65.6632V66.6075Z" fill="#C2C4C7"/>
<path d="M413.421 60.3374C413.091 60.3374 412.791 60.4049 412.523 60.5384C412.255 60.6726 412.025 60.8616 411.834 61.1035C411.643 61.346 411.494 61.6377 411.385 61.9785C411.277 62.3193 411.223 62.696 411.223 63.1086C411.223 63.5011 411.274 63.8696 411.377 64.2155C411.48 64.5613 411.627 64.8631 411.819 65.1213C412.01 65.379 412.246 65.5806 412.531 65.7248C412.815 65.8697 413.142 65.9415 413.514 65.9415C413.792 65.9415 414.061 65.8874 414.319 65.779C414.577 65.6707 414.809 65.5006 415.016 65.2681C415.222 65.0363 415.387 64.7471 415.511 64.4013C415.635 64.0554 415.697 63.6403 415.697 63.1552C415.697 62.7936 415.653 62.4453 415.565 62.1101C415.477 61.775 415.343 61.4751 415.162 61.2118C414.982 60.9491 414.747 60.7375 414.458 60.5775C414.169 60.4174 413.823 60.3374 413.421 60.3374ZM413.483 59.2224C414.03 59.2224 414.52 59.3207 414.953 59.5166C415.387 59.7131 415.756 59.9866 416.061 60.3374C416.365 60.6883 416.599 61.1009 416.765 61.5759C416.93 62.0509 417.013 62.5669 417.013 63.1237C417.013 63.7121 416.925 64.2488 416.749 64.7339C416.574 65.2196 416.332 65.6322 416.022 65.9724C415.712 66.3132 415.341 66.5791 414.907 66.7699C414.474 66.9608 413.999 67.0566 413.483 67.0566C412.864 67.0566 412.33 66.9426 411.88 66.7158C411.431 66.489 411.062 66.1897 410.774 65.8181C410.484 65.4464 410.27 65.0256 410.131 64.5563C409.992 64.0863 409.922 63.6145 409.922 63.1395C409.922 62.5927 410.004 62.0818 410.169 61.6068C410.334 61.1324 410.572 60.7167 410.882 60.3607C411.191 60.0042 411.565 59.7258 412.005 59.5248C412.443 59.3232 412.936 59.2224 413.483 59.2224Z" fill="#C2C4C7"/>
<path d="M418.717 66.9016C418.655 66.9016 418.624 66.8657 418.624 66.7932V61.0033C418.624 60.6625 418.619 60.3582 418.609 60.0899C418.598 59.8215 418.583 59.6149 418.562 59.4706C418.562 59.4082 418.593 59.3774 418.655 59.3774H419.631C419.683 59.3774 419.724 59.4032 419.754 59.4549C419.775 59.5374 419.793 59.6508 419.809 59.7957C419.824 59.9399 419.837 60.0741 419.848 60.1982C420.539 59.5475 421.313 59.2224 422.17 59.2224C423.119 59.2224 423.806 59.5998 424.229 60.3526C424.559 60.0332 424.931 59.7642 425.343 59.5475C425.756 59.3308 426.247 59.2224 426.814 59.2224C427.103 59.2224 427.395 59.2665 427.689 59.3541C427.984 59.4423 428.251 59.5966 428.494 59.8183C428.736 60.0407 428.935 60.3425 429.09 60.7242C429.245 61.1066 429.322 61.5911 429.322 62.1794V66.809C429.322 66.8707 429.286 66.9016 429.214 66.9016H428.146C428.074 66.9016 428.038 66.8657 428.038 66.7932V62.2727C428.038 61.746 427.911 61.2969 427.658 60.9258C427.405 60.5541 427.005 60.3683 426.458 60.3683C426.066 60.3683 425.713 60.4483 425.398 60.6083C425.083 60.7683 424.802 60.9875 424.554 61.266C424.575 61.3592 424.592 61.501 424.608 61.6918C424.624 61.8833 424.632 62.0711 424.632 62.2569V66.7932C424.632 66.8657 424.595 66.9016 424.523 66.9016H423.439C423.367 66.9016 423.331 66.8657 423.331 66.7932V62.226C423.331 61.6377 423.2 61.181 422.936 60.8559C422.673 60.5308 422.288 60.3683 421.783 60.3683C421.421 60.3683 421.094 60.4382 420.799 60.5775C420.505 60.7167 420.209 60.9359 419.909 61.2351V66.809C419.909 66.8707 419.878 66.9016 419.817 66.9016H418.717Z" fill="#C2C4C7"/>
<path d="M434.229 60.3526C433.96 60.3526 433.707 60.3733 433.47 60.4149C433.232 60.4559 433.005 60.5182 432.789 60.6008V65.8489C432.923 65.8899 433.067 65.9163 433.222 65.9264C433.377 65.9365 433.526 65.9415 433.671 65.9415C434.043 65.9415 434.409 65.8823 434.77 65.7639C435.131 65.6455 435.454 65.4647 435.738 65.2221C436.022 64.9796 436.252 64.6697 436.427 64.2929C436.602 63.9162 436.69 63.4702 436.69 62.9537C436.69 62.1593 436.476 61.5268 436.047 61.0575C435.619 60.5875 435.013 60.3526 434.229 60.3526ZM434.383 59.2224C434.951 59.2224 435.459 59.3156 435.908 59.5015C436.357 59.6873 436.737 59.9425 437.047 60.2675C437.356 60.5926 437.593 60.98 437.758 61.4285C437.923 61.8777 438.006 62.3602 438.006 62.8762C438.006 63.5786 437.879 64.1922 437.627 64.7188C437.373 65.2448 437.038 65.6814 436.621 66.0266C436.202 66.3731 435.727 66.6307 435.196 66.8008C434.665 66.9715 434.125 67.0566 433.579 67.0566C433.403 67.0566 433.255 67.0509 433.137 67.0408C433.019 67.0307 432.902 67.015 432.789 66.9942V70.0911C432.789 70.1528 432.763 70.1887 432.711 70.1994C432.619 70.2095 432.513 70.2196 432.394 70.2303C432.275 70.2404 432.156 70.2536 432.038 70.2687C431.919 70.2845 431.816 70.2971 431.728 70.3078C431.64 70.3179 431.591 70.3229 431.581 70.3229C431.529 70.3229 431.504 70.292 431.504 70.2303V60.585C431.504 60.5132 431.501 60.4067 431.496 60.2675C431.491 60.1283 431.483 60.0073 431.473 59.904C431.473 59.8725 431.483 59.8524 431.504 59.8417C431.772 59.739 432.154 59.6098 432.649 59.4549C433.145 59.2999 433.723 59.2224 434.383 59.2224Z" fill="#C2C4C7"/>
<path d="M443.689 63.3096C443.575 63.2894 443.435 63.2737 443.27 63.2636C443.105 63.2535 442.904 63.2478 442.667 63.2478C441.913 63.2478 441.353 63.3694 440.987 63.6119C440.621 63.8545 440.437 64.1921 440.437 64.6256C440.437 64.8013 440.468 64.9714 440.531 65.1365C440.592 65.3021 440.698 65.4489 440.847 65.5781C440.997 65.7072 441.188 65.8099 441.421 65.8874C441.653 65.9648 441.939 66.0039 442.28 66.0039C442.796 66.0039 443.265 65.9163 443.689 65.7406V63.3096ZM444.943 65.5856V65.9648C444.943 66.0839 444.953 66.2049 444.974 66.329C444.974 66.3598 444.963 66.3806 444.943 66.3907C444.385 66.6591 443.877 66.8373 443.418 66.9249C442.958 67.0125 442.502 67.0566 442.047 67.0566C441.635 67.0566 441.252 67.0049 440.902 66.9016C440.551 66.7983 440.246 66.6458 439.988 66.4449C439.731 66.2439 439.529 65.9907 439.385 65.6864C439.24 65.3821 439.168 65.0281 439.168 64.6256C439.168 64.2129 439.258 63.8595 439.439 63.5653C439.619 63.2711 439.865 63.0261 440.174 62.8302C440.484 62.6336 440.847 62.4894 441.266 62.3961C441.683 62.3035 442.135 62.2569 442.62 62.2569C442.909 62.2569 443.139 62.2594 443.309 62.2645C443.479 62.2701 443.606 62.2777 443.689 62.2878V61.9167C443.689 61.7926 443.668 61.6433 443.627 61.4676C443.585 61.2918 443.503 61.1243 443.379 60.9642C443.255 60.8042 443.079 60.665 442.853 60.5466C442.625 60.4275 442.321 60.3683 441.939 60.3683C441.567 60.3683 441.214 60.4099 440.879 60.4924C440.543 60.5749 440.241 60.6883 439.973 60.8326C439.901 60.8534 439.865 60.8275 439.865 60.7551V59.8108C439.865 59.7591 439.89 59.7182 439.942 59.6873C440.241 59.5424 440.579 59.429 440.956 59.3465C441.332 59.264 441.727 59.2224 442.14 59.2224C442.636 59.2224 443.062 59.2999 443.418 59.4549C443.774 59.6098 444.063 59.8183 444.284 60.0817C444.506 60.345 444.672 60.6524 444.78 61.0033C444.889 61.3542 444.943 61.7309 444.943 62.1334V65.5856Z" fill="#C2C4C7"/>
<path d="M447.109 61.1268C447.109 60.9926 447.106 60.8433 447.101 60.6776C447.096 60.5132 447.091 60.3526 447.085 60.1982C447.08 60.0432 447.075 59.899 447.07 59.7642C447.065 59.6306 447.057 59.5324 447.047 59.4706C447.047 59.4082 447.078 59.3774 447.139 59.3774H448.1C448.161 59.3774 448.208 59.4082 448.239 59.4706C448.26 59.5424 448.275 59.6457 448.285 59.7799C448.295 59.9141 448.311 60.0691 448.332 60.2442C449.013 59.5632 449.803 59.2224 450.701 59.2224C450.979 59.2224 451.266 59.264 451.56 59.3465C451.854 59.429 452.125 59.5815 452.373 59.8032C452.62 60.025 452.824 60.3293 452.984 60.7167C453.144 61.1035 453.224 61.6018 453.224 62.2103V66.7932C453.224 66.8657 453.188 66.9016 453.116 66.9016H452.032C451.96 66.9016 451.923 66.8607 451.923 66.7775V62.3344C451.923 61.746 451.794 61.2717 451.537 60.9101C451.278 60.5491 450.876 60.3683 450.329 60.3683C449.936 60.3683 449.578 60.4508 449.253 60.6159C448.928 60.7809 448.641 61.0134 448.394 61.3126V66.7932C448.394 66.8657 448.363 66.9016 448.301 66.9016H447.202C447.139 66.9016 447.109 66.8657 447.109 66.7932V61.1268Z" fill="#C2C4C7"/>
<path d="M455.563 59.3774C455.615 59.3774 455.651 59.4033 455.672 59.4549C455.992 60.3117 456.273 61.0651 456.515 61.7152C456.758 62.3653 456.967 62.9279 457.143 63.4029C457.318 63.8779 457.46 64.2722 457.568 64.5872C457.676 64.9022 457.756 65.1472 457.808 65.3224C458.056 64.6105 458.347 63.7872 458.683 62.8529C459.018 61.9193 459.423 60.786 459.898 59.4549C459.929 59.4033 459.971 59.3774 460.022 59.3774H461.122C461.193 59.3774 461.214 59.414 461.183 59.4858C460.894 60.3218 460.582 61.1917 460.247 62.0945C459.911 62.9978 459.563 63.9062 459.201 64.8197C458.841 65.7331 458.471 66.6383 458.095 67.5367C457.718 68.4343 457.344 69.2961 456.972 70.122C456.941 70.1837 456.884 70.2197 456.802 70.2304L455.641 70.323C455.579 70.323 455.563 70.282 455.594 70.1995C455.821 69.7245 456.069 69.1903 456.338 68.5969C456.605 68.0035 456.869 67.3968 457.127 66.7776C457.158 66.7265 457.158 66.6591 457.127 66.5766C457.065 66.4217 456.972 66.1949 456.849 65.8956C456.724 65.5964 456.583 65.2505 456.423 64.8581C456.263 64.4663 456.089 64.0404 455.904 63.5805C455.718 63.1219 455.529 62.6545 455.339 62.1795C455.148 61.7051 454.959 61.2352 454.774 60.7709C454.588 60.3066 454.418 59.8726 454.263 59.4707C454.232 59.4083 454.258 59.3774 454.34 59.3774H455.563Z" fill="#C2C4C7"/>
<path d="M314.5 20.6772V59.0423L324.306 51.2165V26.0018L314.5 20.6772Z" fill="#C2C4C7"/>
<path d="M309.95 50.6647L302.031 54.1171V23.9985L309.95 26.3543V50.6647Z" fill="#C2C4C7"/>
<path d="M291.449 49.7724L297.481 48.1923L297.486 28.9525L291.454 27.9963L291.449 49.7724Z" fill="#C2C4C7"/>
<path d="M356.617 26.002L348.26 39.7224L339.795 26.002H335.328V51.2166H339.542V32.8098L348.152 46.6462L356.797 32.7021V51.2166H360.975V26.002H356.617Z" fill="#C2C4C7"/>
<path d="M370.542 48.2633C373.135 48.2633 374.936 46.5702 374.936 44.1567V43.1845L371.01 43.8326C369.101 44.1567 368.129 44.9848 368.129 46.2462C368.164 47.507 369.137 48.2633 370.542 48.2633ZM375.081 51.2168L375.045 48.9474C373.784 50.7845 371.73 51.6491 369.533 51.6491C366.327 51.6491 364.094 49.5601 364.094 46.5702C364.094 43.2922 366.183 41.3473 370.326 40.6987L374.9 39.9783V39.6906C374.9 37.817 373.495 36.772 371.082 36.772C368.777 36.772 366.795 37.7447 365.103 39.2942V35.2235C366.651 33.9627 368.777 33.1345 371.37 33.1345C376.305 33.1345 378.971 35.6558 378.971 39.8701V51.2168H375.081Z" fill="#C2C4C7"/>
<path d="M392.846 37.5647C392.665 37.4565 392.305 37.4206 391.765 37.4206C388.703 37.4206 386.83 39.7983 386.83 43.4363V51.2168H382.688V33.5663H386.794V36.592C387.659 34.5389 389.748 33.2058 392.053 33.2058C392.522 33.2058 392.773 33.2422 392.846 33.3145V37.5647Z" fill="#C2C4C7"/>
<path d="M395.516 26.002V51.2166H399.658V44.2288L400.559 43.4002L406.862 51.2166H411.978L403.729 41.2389L411.401 33.5661H406.286L399.658 40.2303V26.002H395.516Z" fill="#C2C4C7"/>
<path d="M424.608 40.5907C424.355 38.1777 422.626 36.52 420.141 36.52C417.619 36.52 415.782 38.5013 415.494 40.5907H424.608ZM427.669 49.7762C425.832 50.9289 423.491 51.6493 420.862 51.6493C415.026 51.6493 411.352 47.6872 411.352 42.3556C411.352 37.0604 415.026 33.1343 420.213 33.1343C425.364 33.1343 428.678 37.0245 428.678 42.2475C428.678 42.8243 428.678 43.1483 428.57 43.6883H415.494C415.818 46.1377 417.835 48.0831 421.15 48.0831C423.383 48.0831 425.544 47.2909 427.669 45.7055V49.7762Z" fill="#C2C4C7"/>
<path d="M439.186 47.8308C439.87 47.8308 440.591 47.6867 441.131 47.2903V51.0006C440.447 51.397 439.402 51.6487 437.961 51.6487C434.395 51.6487 432.306 49.488 432.306 45.7777V37.0963H429.172L436.448 27.8254V33.5665H441.131V37.0963H436.448V45.0209C436.448 47.0022 437.313 47.8308 439.186 47.8308Z" fill="#C2C4C7"/>
<path d="M446.537 42.3918C446.537 45.4175 448.842 47.8311 451.796 47.8311C454.75 47.8311 457.055 45.4175 457.055 42.3918C457.055 39.366 454.75 36.952 451.796 36.952C448.842 36.952 446.537 39.366 446.537 42.3918ZM461.198 42.3918C461.198 47.5788 457.2 51.6495 451.796 51.6495C446.393 51.6495 442.395 47.5788 442.395 42.3918C442.395 37.2048 446.393 33.134 451.796 33.134C457.2 33.134 461.198 37.2048 461.198 42.3918Z" fill="#C2C4C7"/>
<path d="M461.316 30.04H464.508V30.7354H463.292V34.4287H462.533V30.7354H461.316V30.04Z" fill="#C2C4C7"/>
<path d="M466.191 31.2245V34.4287H465.457V30.04H466.235L467.708 32.2783L469.163 30.04H469.921V34.4287H469.194V31.2061L467.871 33.2126H467.507L466.191 31.2245Z" fill="#C2C4C7"/>
</g>
<path d="M707.806 49.81C707.633 49.6461 707.404 49.5548 707.166 49.5548C706.928 49.5548 706.699 49.6461 706.526 49.81C705.411 50.8204 703.96 51.38 702.456 51.38C699.766 51.38 697.356 49.62 697.356 45.65C697.356 41.68 699.616 39.91 702.066 39.91C702.688 39.9094 703.305 40.0349 703.877 40.279C704.45 40.5231 704.968 40.8807 705.398 41.3302C705.829 41.7797 706.164 42.3117 706.384 42.8943C706.604 43.477 706.703 44.098 706.676 44.72H700.396C700.131 44.72 699.876 44.8254 699.689 45.0129C699.501 45.2004 699.396 45.4548 699.396 45.72V46.65H707.826C707.996 46.6514 708.164 46.6186 708.32 46.5534C708.477 46.4881 708.619 46.3919 708.738 46.2705C708.856 46.1491 708.949 46.005 709.011 45.8468C709.072 45.6886 709.101 45.5196 709.096 45.35C708.946 40.7 706.006 37.75 702.096 37.75C697.926 37.75 694.836 41.14 694.836 45.65C694.79 46.6697 694.951 47.6882 695.31 48.6438C695.669 49.5994 696.218 50.4723 696.923 51.2098C697.629 51.9473 698.477 52.5341 699.416 52.9346C700.355 53.3351 701.365 53.541 702.386 53.54C703.593 53.5528 704.788 53.2954 705.884 52.7868C706.979 52.2781 707.947 51.5309 708.716 50.6L707.806 49.81Z" fill="#C2C4C7"/>
<path d="M733.937 39.1801C735.675 38.3172 737.586 37.8623 739.527 37.8501C743.697 37.8501 745.997 40.0101 745.997 43.9801V53.2501H744.577C744.312 53.2501 744.057 53.1447 743.87 52.9572C743.682 52.7697 743.577 52.5153 743.577 52.2501V51.2501C742.928 52.0001 742.12 52.5959 741.212 52.9938C740.304 53.3917 739.318 53.5817 738.327 53.5501C735.587 53.5501 732.637 52.0301 732.637 48.7501C732.637 45.4701 735.087 43.7501 739.157 43.7501H741.707V44.6901C741.707 44.9553 741.601 45.2097 741.414 45.3972C741.226 45.5847 740.972 45.6901 740.707 45.6901H739.387C736.737 45.6901 735.167 46.8101 735.167 48.6901C735.167 50.5701 737.037 51.5301 738.797 51.5301C741.547 51.5301 743.657 49.8601 743.657 47.6601V44.0801C743.657 41.5301 742.137 40.1601 739.337 40.1601C738.076 40.1756 736.828 40.4231 735.657 40.8901C735.539 40.9403 735.411 40.9647 735.283 40.9616C735.154 40.9585 735.028 40.9279 734.913 40.8721C734.797 40.8162 734.695 40.7362 734.613 40.6376C734.531 40.5389 734.471 40.4239 734.437 40.3001L733.937 39.1801Z" fill="#C2C4C7"/>
<path d="M675.74 35.21H674.27C674.004 35.21 673.75 35.1046 673.562 34.9171C673.375 34.7296 673.27 34.4752 673.27 34.21V32.75H674.74C675.005 32.75 675.259 32.8554 675.447 33.0429C675.634 33.2304 675.74 33.4848 675.74 33.75V35.21Z" fill="#C2C4C7"/>
<path d="M813.997 35.21H812.527C812.262 35.21 812.008 35.1046 811.82 34.9171C811.633 34.7296 811.527 34.4752 811.527 34.21V32.75H812.997C813.263 32.75 813.517 32.8554 813.704 33.0429C813.892 33.2304 813.997 33.4848 813.997 33.75V35.21Z" fill="#C2C4C7"/>
<path d="M659.266 40.5C658.505 39.6102 657.558 38.8983 656.492 38.4145C655.426 37.9307 654.266 37.6868 653.096 37.7C650.995 37.7 648.981 38.5344 647.495 40.0197C646.01 41.505 645.176 43.5195 645.176 45.62C645.176 47.7205 646.01 49.735 647.495 51.2203C648.981 52.7055 650.995 53.54 653.096 53.54C654.298 53.5366 655.484 53.2656 656.569 52.7467C657.653 52.2278 658.609 51.474 659.366 50.54L658.436 49.66C658.253 49.4997 658.019 49.4112 657.776 49.4112C657.533 49.4112 657.298 49.4997 657.116 49.66C656.071 50.6972 654.668 51.2948 653.196 51.33C652.469 51.3133 651.753 51.1522 651.089 50.8561C650.425 50.56 649.827 50.1348 649.329 49.6052C648.831 49.0757 648.444 48.4524 648.189 47.7717C647.934 47.0909 647.818 46.3663 647.846 45.64C647.809 44.9224 647.918 44.2048 648.164 43.5297C648.41 42.8547 648.789 42.2359 649.278 41.7099C649.768 41.184 650.358 40.7617 651.014 40.468C651.669 40.1743 652.377 40.0151 653.096 40C654.555 40.0261 655.946 40.6261 656.966 41.67C657.056 41.7541 657.163 41.8196 657.278 41.8627C657.394 41.9058 657.518 41.9255 657.641 41.9209C657.765 41.9162 657.886 41.8873 657.998 41.8356C658.111 41.784 658.212 41.7107 658.296 41.62L659.266 40.5Z" fill="#C2C4C7"/>
<path d="M686.099 53.2499C686.415 53.2434 686.721 53.1455 686.982 52.968C687.243 52.7905 687.447 52.541 687.569 52.2499L693.739 38.0799H692.419C692.023 38.0763 691.635 38.1903 691.304 38.4075C690.973 38.6247 690.713 38.9353 690.559 39.2999L686.179 49.8599L681.769 39.3199C681.615 38.9553 681.355 38.6447 681.024 38.4275C680.693 38.2103 680.305 38.0963 679.909 38.0999H678.539L684.659 52.2699C684.782 52.5527 684.982 52.7949 685.237 52.9684C685.492 53.1419 685.791 53.2395 686.099 53.2499Z" fill="#C2C4C7"/>
<path d="M669.658 50.6C668.94 50.9543 668.157 51.1552 667.358 51.19C667.036 51.2393 666.708 51.2122 666.399 51.1111C666.09 51.0099 665.81 50.8374 665.58 50.6076C665.35 50.3778 665.178 50.0972 665.077 49.7883C664.975 49.4795 664.948 49.1512 664.998 48.83V40.3H669.708V39.08C669.708 38.8148 669.602 38.5604 669.415 38.3729C669.227 38.1853 668.973 38.08 668.708 38.08H664.998V33.73C664.998 33.4648 664.892 33.2104 664.705 33.0229C664.517 32.8353 664.263 32.73 663.998 32.73H662.548V49.23C662.537 49.7872 662.637 50.3409 662.841 50.8595C663.045 51.378 663.349 51.8512 663.737 52.2517C664.124 52.6522 664.587 52.9722 665.099 53.1933C665.61 53.4143 666.16 53.5322 666.718 53.54C667.761 53.5748 668.795 53.337 669.718 52.85L669.658 50.6Z" fill="#C2C4C7"/>
<path d="M674.267 53.2501H675.737V39.0801C675.737 38.8149 675.632 38.5605 675.444 38.373C675.257 38.1854 675.002 38.0801 674.737 38.0801H673.287V52.2701C673.278 52.4011 673.298 52.5324 673.344 52.6553C673.39 52.7783 673.462 52.8899 673.555 52.9827C673.647 53.0755 673.759 53.1474 673.882 53.1935C674.005 53.2397 674.136 53.2589 674.267 53.2501Z" fill="#C2C4C7"/>
<path d="M730.597 35.8401C729.563 34.7661 728.319 33.9163 726.943 33.3435C725.567 32.7706 724.087 32.4869 722.597 32.5101C721.211 32.4918 719.836 32.7547 718.554 33.2831C717.273 33.8115 716.112 34.5944 715.141 35.5843C714.171 36.5742 713.411 37.7507 712.909 39.0425C712.406 40.3344 712.171 41.7147 712.217 43.1001C712.17 44.4725 712.4 45.8403 712.895 47.1213C713.39 48.4023 714.138 49.5701 715.096 50.5545C716.053 51.539 717.2 52.3198 718.466 52.85C719.733 53.3803 721.094 53.649 722.467 53.6401C724.019 53.6562 725.557 53.3396 726.976 52.7118C728.396 52.0839 729.665 51.1593 730.697 50.0001L729.697 49.0001C729.514 48.8398 729.28 48.7514 729.037 48.7514C728.794 48.7514 728.559 48.8398 728.377 49.0001C726.812 50.5181 724.717 51.3649 722.537 51.3601C718.227 51.3601 714.897 47.7301 714.897 43.1201C714.897 38.5101 718.177 34.9801 722.537 34.9801C724.635 35.0204 726.651 35.8035 728.227 37.1901C728.422 37.34 728.666 37.4127 728.911 37.3942C729.156 37.3758 729.386 37.2675 729.557 37.0901L730.597 35.8401Z" fill="#C2C4C7"/>
<path d="M767.098 37.7499C766.052 37.7268 765.018 37.9777 764.099 38.4776C763.18 38.9775 762.407 39.7092 761.858 40.5999C761.41 39.7169 760.72 38.9798 759.868 38.475C759.016 37.9703 758.038 37.7188 757.048 37.7499C756.123 37.7368 755.21 37.9594 754.394 38.3968C753.579 38.8342 752.889 39.4719 752.388 40.2499V39.0799C752.388 38.8147 752.283 38.5603 752.095 38.3728C751.908 38.1853 751.653 38.0799 751.388 38.0799H749.918V53.2499H751.388C751.653 53.2499 751.908 53.1445 752.095 52.957C752.283 52.7695 752.388 52.5151 752.388 52.2499V44.6199C752.388 41.9699 754.058 40.0599 756.388 40.0599C758.718 40.0599 760.098 41.6799 760.098 44.3699V52.2699C760.098 52.5351 760.203 52.7895 760.391 52.977C760.578 53.1645 760.833 53.2699 761.098 53.2699H762.568V44.5199C762.568 41.4299 764.568 40.0599 766.568 40.0599C768.928 40.0599 770.298 41.6299 770.298 44.4199V52.2699C770.298 52.5351 770.403 52.7895 770.591 52.977C770.778 53.1645 771.033 53.2699 771.298 53.2699H772.768V43.8799C772.718 40.1099 770.558 37.7499 767.098 37.7499Z" fill="#C2C4C7"/>
<path d="M784.83 37.7501C783.722 37.7449 782.63 38.0166 781.654 38.5405C780.677 39.0644 779.848 39.8239 779.24 40.7501V39.0801C779.24 38.8149 779.134 38.5605 778.947 38.373C778.759 38.1854 778.505 38.0801 778.24 38.0801H776.77V56.9201C776.77 57.1853 776.875 57.4396 777.062 57.6272C777.25 57.8147 777.504 57.9201 777.77 57.9201H779.24V50.6501C779.866 51.5502 780.702 52.2839 781.677 52.7875C782.651 53.2911 783.733 53.5495 784.83 53.5401C788.36 53.5401 792.09 50.7501 792.09 45.6501C792.09 40.5501 788.31 37.7501 784.83 37.7501ZM789.54 45.6501C789.54 48.9801 787.43 51.2901 784.44 51.2901C783.722 51.2736 783.014 51.1135 782.359 50.8193C781.704 50.5251 781.115 50.1028 780.625 49.5771C780.136 49.0515 779.757 48.4332 779.51 47.7588C779.264 47.0843 779.155 46.3673 779.19 45.6501C779.153 44.932 779.261 44.2139 779.507 43.5383C779.753 42.8627 780.132 42.2432 780.621 41.7165C781.111 41.1898 781.701 40.7665 782.357 40.4717C783.013 40.1769 783.721 40.0165 784.44 40.0001C787.38 40.0001 789.54 42.4101 789.54 45.6501Z" fill="#C2C4C7"/>
<path d="M812.476 53.2501H813.946V39.0801C813.946 38.8149 813.841 38.5605 813.653 38.373C813.466 38.1854 813.211 38.0801 812.946 38.0801H811.496V52.2701C811.501 52.5284 811.606 52.7747 811.789 52.9574C811.971 53.1401 812.218 53.245 812.476 53.2501Z" fill="#C2C4C7"/>
<path d="M818.016 55.7501C820.078 57.1585 822.519 57.9082 825.016 57.9001C829.926 57.9001 832.716 55.2101 832.716 50.5001V38.1001H831.246C830.981 38.1001 830.726 38.2054 830.539 38.393C830.351 38.5805 830.246 38.8349 830.246 39.1001V40.5001C829.499 39.5451 828.522 38.7953 827.407 38.321C826.291 37.8467 825.073 37.6634 823.867 37.7884C822.661 37.9134 821.507 38.3424 820.512 39.0354C819.518 39.7284 818.715 40.6626 818.18 41.7505C817.645 42.8383 817.395 44.0442 817.454 45.2551C817.512 46.466 817.877 47.6422 818.514 48.6735C819.151 49.7049 820.04 50.5575 821.097 51.1516C822.153 51.7457 823.344 52.0617 824.556 52.0701C825.667 52.0812 826.764 51.8244 827.754 51.3213C828.745 50.8182 829.6 50.0837 830.246 49.1801V50.5501C830.246 53.8401 828.336 55.7001 824.956 55.7001C823.19 55.6992 821.459 55.2076 819.956 54.2801C819.85 54.2063 819.729 54.1563 819.601 54.1334C819.474 54.1106 819.343 54.1155 819.218 54.1477C819.093 54.18 818.976 54.2389 818.875 54.3204C818.775 54.4019 818.693 54.5041 818.636 54.6201L818.016 55.7501ZM830.226 44.9101C830.212 45.5916 830.062 46.2635 829.784 46.8861C829.507 47.5087 829.107 48.0695 828.61 48.5354C828.112 49.0013 827.526 49.363 826.887 49.5991C826.247 49.8352 825.567 49.9409 824.886 49.9101C824.224 49.9309 823.564 49.8158 822.948 49.5719C822.332 49.328 821.773 48.9604 821.304 48.4919C820.836 48.0234 820.468 47.4639 820.224 46.8479C819.98 46.2318 819.865 45.5723 819.886 44.9101C819.87 44.2538 819.99 43.6013 820.237 42.993C820.484 42.3848 820.853 41.8338 821.322 41.3743C821.791 40.9148 822.349 40.5566 822.962 40.3219C823.575 40.0873 824.23 39.9811 824.886 40.0101C825.56 39.9738 826.235 40.0725 826.87 40.3003C827.505 40.5282 828.089 40.8807 828.586 41.3371C829.084 41.7935 829.485 42.3447 829.766 42.9582C830.048 43.5718 830.204 44.2354 830.226 44.9101Z" fill="#C2C4C7"/>
<path d="M844.146 37.75C843.159 37.7159 842.18 37.9373 841.304 38.3928C840.428 38.8484 839.685 39.5226 839.146 40.35V39.08C839.146 38.8148 839.04 38.5604 838.853 38.3729C838.665 38.1854 838.411 38.08 838.146 38.08H836.676V53.25H838.146C838.411 53.25 838.665 53.1447 838.853 52.9571C839.04 52.7696 839.146 52.5152 839.146 52.25V44.55C839.107 43.9638 839.19 43.3758 839.391 42.8236C839.592 42.2714 839.905 41.7671 840.312 41.3428C840.718 40.9185 841.208 40.5835 841.752 40.3592C842.295 40.1349 842.878 40.0262 843.466 40.04C845.966 40.04 847.466 41.66 847.466 44.4V52.25C847.466 52.5152 847.571 52.7696 847.759 52.9571C847.946 53.1447 848.201 53.25 848.466 53.25H849.936V43.83C849.986 40.16 847.726 37.75 844.146 37.75Z" fill="#C2C4C7"/>
<path d="M873.668 45.2999L860.968 53.7399C860.698 53.9245 860.478 54.1723 860.326 54.4617C860.175 54.7511 860.096 55.0732 860.098 55.3999V57.5099L875.488 47.4099C875.831 47.1739 876.112 46.8592 876.309 46.4921C876.505 46.125 876.611 45.7163 876.618 45.2999C876.621 44.8831 876.519 44.4722 876.322 44.1052C876.124 43.7382 875.837 43.4268 875.488 43.1999L860.098 33.1899V35.1899C860.097 35.5175 860.177 35.8403 860.331 36.1297C860.484 36.4192 860.706 36.6665 860.978 36.8499L873.668 45.2999Z" fill="#C2C4C7"/>
<path d="M866.016 46C866.353 46.2155 866.746 46.33 867.146 46.33C867.546 46.33 867.938 46.2155 868.276 46L869.356 45.27L861.306 39.82C861.189 39.7402 861.053 39.6936 860.911 39.6854C860.77 39.6772 860.629 39.7076 860.504 39.7734C860.378 39.8391 860.273 39.9378 860.2 40.0588C860.126 40.1797 860.087 40.3185 860.086 40.46V42.08L864.256 44.87L866.016 46Z" fill="#C2C4C7"/>
<path d="M795.616 39.1801C797.354 38.3172 799.266 37.8623 801.206 37.8501C805.366 37.8501 807.676 40.0101 807.676 43.9801V53.2501H806.256C805.991 53.2501 805.737 53.1447 805.549 52.9572C805.362 52.7697 805.256 52.5153 805.256 52.2501V51.2501C804.607 51.9996 803.799 52.5949 802.891 52.9928C801.983 53.3906 800.997 53.581 800.006 53.5501C797.256 53.5501 794.316 52.0301 794.316 48.7501C794.316 45.4701 796.766 43.7501 800.836 43.7501H803.386V44.6901C803.386 44.9553 803.281 45.2097 803.094 45.3972C802.906 45.5847 802.652 45.6901 802.386 45.6901H801.096C798.446 45.6901 796.876 46.8101 796.876 48.6901C796.876 50.5701 798.736 51.5301 800.506 51.5301C803.256 51.5301 805.356 49.8601 805.356 47.6601V44.0801C805.356 41.5301 803.836 40.1601 801.046 40.1601C799.785 40.1756 798.538 40.4231 797.366 40.8901C797.246 40.9493 797.114 40.9808 796.979 40.9822C796.845 40.9837 796.712 40.9551 796.59 40.8985C796.469 40.8419 796.361 40.7588 796.276 40.6553C796.19 40.5517 796.129 40.4304 796.096 40.3001L795.616 39.1801Z" fill="#C2C4C7"/>
<path d="M643.097 53.25H644.517L635.727 33.78C635.602 33.4516 635.371 33.1746 635.07 32.9933C634.769 32.812 634.416 32.7369 634.067 32.78C633.722 32.7274 633.37 32.7991 633.073 32.9823C632.777 33.1655 632.555 33.4482 632.447 33.78L623.617 53.25H624.947C625.335 53.2415 625.714 53.1271 626.042 52.9191C626.369 52.7111 626.634 52.4175 626.807 52.07L628.667 48H635.667C635.932 48 636.187 47.8946 636.374 47.7071C636.562 47.5196 636.667 47.2652 636.667 47V45.65H629.667L634.097 35.84L641.267 52C641.415 52.3655 641.668 52.6792 641.993 52.9016C642.319 53.124 642.703 53.2452 643.097 53.25Z" fill="#C2C4C7"/>
<path d="M1079.88 14.9358C1087.36 7.10399 1099.77 6.8201 1107.6 14.3015C1109.07 15.6997 1110.31 17.3158 1111.27 19.0928C1114.34 17.723 1117.66 17.0212 1121.02 17.0346C1134.44 17.0346 1145.33 27.919 1145.33 41.3456C1145.33 54.7721 1134.44 65.6565 1121.02 65.6565C1119.42 65.6534 1117.84 65.4892 1116.28 65.167C1113.16 70.7297 1107.28 74.1792 1100.9 74.1914C1098.24 74.203 1095.61 73.5905 1093.22 72.4012C1088.86 82.6195 1077.04 87.3698 1066.83 83.0121C1061.75 80.8452 1057.78 76.6862 1055.86 71.51C1054.6 71.7803 1053.31 71.9154 1052.02 71.9122C1041.59 71.7773 1033.25 63.2166 1033.38 52.79C1033.47 46.1775 1037.01 40.091 1042.71 36.7463C1041.52 34.0178 1040.91 31.0689 1040.93 28.0907C1040.91 16.1151 1050.6 6.39089 1062.58 6.37064C1069.35 6.35919 1075.75 9.51823 1079.86 14.9091" fill="#C2C4C7"/>
<path d="M1049.6 46.977C1049.55 47.0667 1049.57 47.1769 1049.65 47.245C1049.87 47.3791 1050.05 47.5132 1050.27 47.6472C1051.3 48.1886 1052.46 48.45 1053.62 48.4053C1055.9 48.4053 1057.33 47.1984 1057.33 45.2336V45.1868C1057.33 43.3565 1055.72 42.7263 1054.2 42.2367L1054.03 42.1697C1052.91 41.8146 1051.93 41.4993 1051.93 40.7417V40.6949C1051.93 40.0713 1052.52 39.5752 1053.41 39.5752C1054.42 39.5884 1055.42 39.8486 1056.31 40.3327C1056.4 40.3987 1056.53 40.3777 1056.6 40.2859V40.2391C1056.65 40.1049 1057.05 39.079 1057.05 38.9852C1057.08 38.8864 1057.04 38.7806 1056.96 38.717C1055.96 38.1242 1054.82 37.8159 1053.66 37.8252H1053.44C1051.34 37.8252 1049.86 39.0789 1049.86 40.9093V40.9562C1049.86 42.8804 1051.47 43.504 1052.99 43.9065L1053.21 43.9934C1054.33 44.3487 1055.27 44.6169 1055.27 45.3813V45.4284C1055.27 46.1459 1054.65 46.6824 1053.66 46.6824C1052.62 46.6919 1051.59 46.3956 1050.71 45.8306C1050.53 45.7432 1050.44 45.6494 1050.36 45.6092C1050.27 45.5432 1050.14 45.5643 1050.07 45.6561V45.7029L1049.6 46.977Z" fill="white"/>
<path d="M1083.12 46.977C1083.07 47.0667 1083.09 47.1769 1083.16 47.245C1083.38 47.379 1083.56 47.5132 1083.79 47.6472C1084.82 48.1886 1085.97 48.45 1087.14 48.4052C1089.42 48.4052 1090.85 47.1984 1090.85 45.2336V45.1868C1090.85 43.3564 1089.24 42.7263 1087.72 42.2367L1087.55 42.1697C1086.43 41.8146 1085.46 41.4993 1085.46 40.7417V40.6949C1085.46 40.0713 1086.04 39.5752 1086.93 39.5752C1087.95 39.5884 1088.94 39.8486 1089.83 40.3327C1089.93 40.3986 1090.05 40.3777 1090.12 40.2859V40.2391C1090.17 40.1049 1090.57 39.079 1090.57 38.9852C1090.6 38.8864 1090.56 38.7806 1090.48 38.717C1089.48 38.1244 1088.34 37.8162 1087.18 37.8251H1086.96C1084.86 37.8251 1083.38 39.0789 1083.38 40.9093V40.9562C1083.38 42.8804 1084.99 43.504 1086.51 43.9065L1086.74 43.9934C1087.86 44.3487 1088.79 44.6169 1088.79 45.3812V45.4284C1088.79 46.1459 1088.17 46.6824 1087.19 46.6824C1086.14 46.6919 1085.11 46.3956 1084.24 45.8306C1084.05 45.7432 1083.97 45.6494 1083.88 45.6092C1083.79 45.5432 1083.66 45.5643 1083.59 45.656V45.7029L1083.12 46.977Z" fill="white"/>
<path d="M1107.98 41.0771C1107.81 40.4753 1107.52 39.9129 1107.13 39.4212C1106.72 38.9519 1106.22 38.571 1105.66 38.3015C1104.34 37.7667 1102.86 37.7667 1101.55 38.3015C1100.98 38.5708 1100.48 38.9519 1100.07 39.4212C1099.67 39.9017 1099.38 40.4679 1099.22 41.0771C1098.86 42.4239 1098.86 43.8402 1099.22 45.1869C1099.39 45.789 1099.68 46.3511 1100.07 46.843C1100.48 47.3122 1100.98 47.6932 1101.55 47.9627C1102.86 48.4977 1104.34 48.4977 1105.66 47.9627C1106.23 47.7096 1106.73 47.3259 1107.13 46.843C1107.54 46.3628 1107.83 45.7965 1107.98 45.1869C1108.17 44.5164 1108.26 43.8237 1108.25 43.1288C1108.26 42.4334 1108.17 41.7404 1107.98 41.0703M1106.06 43.1286C1106.1 44.0353 1105.89 44.9362 1105.44 45.7234C1105.02 46.3462 1104.3 46.6893 1103.56 46.6154C1102.82 46.662 1102.11 46.3248 1101.68 45.7234C1100.85 44.0965 1100.85 42.1674 1101.68 40.5406C1102.09 39.918 1102.81 39.5747 1103.56 39.6487C1104.3 39.6016 1105.01 39.9387 1105.44 40.5406C1105.89 41.3256 1106.11 42.2279 1106.06 43.1354" fill="white"/>
<path d="M1123.67 46.3536C1123.65 46.2579 1123.55 46.1987 1123.46 46.2196C1123.17 46.3352 1122.87 46.4249 1122.56 46.4876C1122.22 46.5406 1121.88 46.5699 1121.54 46.5746C1120.73 46.6213 1119.93 46.3299 1119.35 45.7704C1118.74 45.0312 1118.45 44.0852 1118.54 43.1355C1118.51 42.2467 1118.76 41.3702 1119.26 40.6345C1119.77 39.9796 1120.58 39.6265 1121.4 39.6957C1122.08 39.6848 1122.76 39.7752 1123.42 39.9641C1123.51 39.9821 1123.61 39.9244 1123.64 39.8298C1123.82 39.3807 1123.95 39.0254 1124.13 38.5362C1124.15 38.4418 1124.1 38.3436 1124.01 38.3147C1123.59 38.1683 1123.15 38.0625 1122.71 37.9997C1122.24 37.9437 1121.76 37.9147 1121.28 37.9125C1120.55 37.8994 1119.82 38.0365 1119.14 38.3147C1118.54 38.5677 1118.01 38.95 1117.58 39.4344C1117.16 39.9211 1116.84 40.4833 1116.64 41.0903C1116.42 41.7539 1116.31 42.4499 1116.32 43.1487C1116.26 44.5265 1116.71 45.8794 1117.58 46.9506C1118.57 47.9592 1119.96 48.4811 1121.38 48.3781C1122.31 48.3892 1123.24 48.2229 1124.11 47.8887C1124.18 47.8408 1124.21 47.7522 1124.19 47.6676L1123.67 46.3536Z" fill="white"/>
<path d="M1133.46 40.7218C1133.29 40.1584 1133 39.6389 1132.61 39.1999C1132.27 38.7941 1131.84 38.4728 1131.35 38.2612C1130.76 38.0195 1130.12 37.8986 1129.48 37.9058C1128.74 37.8883 1128.01 38.0254 1127.33 38.308C1126.76 38.5659 1126.26 38.9486 1125.86 39.4277C1125.46 39.9322 1125.15 40.5075 1124.96 41.124C1124.78 41.7945 1124.69 42.4871 1124.7 43.1824C1124.68 43.8814 1124.79 44.5779 1125.01 45.2408C1125.18 45.8635 1125.5 46.4329 1125.95 46.8969C1126.41 47.3541 1126.96 47.7185 1127.56 47.9698C1128.31 48.26 1129.12 48.3812 1129.93 48.3249C1131.05 48.3919 1132.17 48.1778 1133.19 47.7014C1133.28 47.6543 1133.33 47.6144 1133.24 47.3863L1132.79 46.1794C1132.77 46.1007 1132.69 46.0521 1132.61 46.0716C1132.61 46.0716 1132.61 46.0721 1132.61 46.0725H1132.56C1131.72 46.4364 1130.8 46.6035 1129.88 46.5618C1129.07 46.5954 1128.27 46.3252 1127.65 45.8043C1127.13 45.2146 1126.85 44.4452 1126.89 43.6584H1133.37C1133.47 43.6624 1133.55 43.5872 1133.55 43.4911V43.491C1133.69 43.4441 1133.91 42.1502 1133.47 40.7221M1127.03 42.0627C1127.09 41.5209 1127.27 41.0004 1127.57 40.5408C1127.96 39.9161 1128.66 39.5558 1129.4 39.6021C1130.13 39.5727 1130.82 39.929 1131.23 40.5408C1131.5 41.0024 1131.66 41.5256 1131.68 42.0627H1127.03Z" fill="white"/>
<path d="M1081.57 40.7218C1081.4 40.1584 1081.11 39.6389 1080.72 39.1998C1080.38 38.7941 1079.95 38.4728 1079.47 38.2611C1078.87 38.0195 1078.23 37.8986 1077.59 37.9058C1076.85 37.8884 1076.12 38.0255 1075.44 38.308C1074.88 38.5659 1074.37 38.9485 1073.97 39.4277C1073.57 39.9322 1073.27 40.5077 1073.08 41.124C1072.89 41.7948 1072.81 42.487 1072.81 43.1824C1072.79 43.8814 1072.9 44.5779 1073.12 45.2408C1073.29 45.8635 1073.61 46.4333 1074.06 46.8969C1074.53 47.3541 1075.07 47.7185 1075.67 47.9698C1076.43 48.26 1077.23 48.3812 1078.04 48.3248C1079.16 48.3919 1080.28 48.1778 1081.3 47.7014C1081.39 47.6543 1081.44 47.6144 1081.35 47.3863L1080.85 46.1929C1080.83 46.1139 1080.75 46.0658 1080.67 46.0853C1080.67 46.0853 1080.67 46.0853 1080.67 46.0857H1080.62C1079.78 46.4496 1078.86 46.6171 1077.94 46.5748C1077.13 46.609 1076.33 46.3389 1075.71 45.8175C1075.18 45.2279 1074.91 44.4586 1074.95 43.6721H1081.43C1081.53 43.6757 1081.61 43.6009 1081.61 43.5047C1081.75 43.4576 1081.97 42.1637 1081.53 40.7356M1075.09 42.076C1075.15 41.5345 1075.33 41.014 1075.63 40.5541C1076.02 39.9294 1076.72 39.569 1077.46 39.6154C1078.19 39.586 1078.88 39.9423 1079.29 40.5541C1079.56 41.0158 1079.72 41.5392 1079.74 42.076H1075.09Z" fill="white"/>
<path d="M1063.7 41.7477C1063.43 41.7477 1063.12 41.7005 1062.67 41.7005C1062.13 41.7082 1061.59 41.7827 1061.06 41.9218C1060.58 42.0473 1060.13 42.2585 1059.72 42.5453C1059.32 42.8139 1059 43.1838 1058.78 43.618C1058.55 44.075 1058.43 44.5805 1058.43 45.0931C1058.41 45.6037 1058.52 46.1113 1058.74 46.5684C1058.94 46.9763 1059.23 47.3293 1059.6 47.5938C1060 47.8758 1060.46 48.074 1060.94 48.177C1061.49 48.3105 1062.06 48.3714 1062.63 48.3582C1063.29 48.3664 1063.95 48.3058 1064.6 48.177C1065.22 48.0901 1066.02 47.9087 1066.25 47.862C1066.41 47.8296 1066.56 47.7849 1066.7 47.728C1066.8 47.7048 1066.86 47.6094 1066.84 47.5132V41.5733C1066.93 40.5154 1066.55 39.4701 1065.81 38.7104C1064.95 38.0662 1063.89 37.7499 1062.81 37.8186C1062.23 37.8124 1061.64 37.8732 1061.07 37.9997C1060.36 38.1237 1059.68 38.3659 1059.06 38.7172C1058.98 38.7808 1058.96 38.897 1059.01 38.9854L1059.46 40.2393C1059.48 40.3181 1059.56 40.3665 1059.64 40.347C1059.64 40.3469 1059.64 40.3466 1059.64 40.3464H1059.69C1059.72 40.342 1059.75 40.3251 1059.78 40.2996C1060.65 39.8801 1061.6 39.6514 1062.57 39.6291C1063.14 39.5899 1063.7 39.7306 1064.18 40.0315C1064.54 40.2997 1064.72 40.7019 1064.72 41.5938V41.862L1063.69 41.7748M1061.14 46.3336C1061 46.2274 1060.88 46.0898 1060.79 45.9314C1060.39 45.2371 1060.54 44.3562 1061.14 43.8327C1061.69 43.4594 1062.36 43.2994 1063.02 43.3835C1063.61 43.3852 1064.19 43.4302 1064.76 43.5176V46.4677C1064.19 46.5854 1063.61 46.6592 1063.02 46.689C1062.37 46.7865 1061.71 46.6611 1061.14 46.3336Z" fill="white"/>
<path d="M1115.99 38.3953C1116.03 38.3157 1115.99 38.22 1115.91 38.1808C1115.57 38.0714 1115.21 38.0105 1114.84 37.9999C1114.28 37.9426 1113.7 38.035 1113.19 38.2681C1112.77 38.4466 1112.4 38.7224 1112.11 39.0728V38.2681C1112.11 38.1711 1112.03 38.0936 1111.93 38.087H1110.19C1110.09 38.0936 1110.01 38.1711 1110.01 38.2681V47.9628C1110.01 48.0601 1110.09 48.1373 1110.19 48.1442H1111.89C1111.98 48.1373 1112.06 48.0601 1112.07 47.9628V43.1357C1112.06 42.5623 1112.13 41.9908 1112.29 41.4394C1112.39 41.0781 1112.59 40.753 1112.87 40.5006C1113.09 40.2715 1113.37 40.1031 1113.68 40.0113C1113.95 39.9295 1114.24 39.8846 1114.53 39.8774C1114.77 39.8803 1115.01 39.9095 1115.24 39.9644C1115.35 39.9763 1115.45 39.8987 1115.47 39.79C1115.6 39.475 1115.91 38.5833 1116 38.4021" fill="white"/>
<path d="M1099.99 33.9299L1099.36 33.7958C1099.07 33.7401 1098.77 33.7109 1098.47 33.7086C1097.46 33.6365 1096.47 33.9945 1095.74 34.6943C1095.03 35.5311 1094.58 36.5561 1094.45 37.6443L1094.36 38.0935H1092.89C1092.78 38.097 1092.69 38.171 1092.66 38.2744L1092.44 39.6154C1092.43 39.7187 1092.5 39.8162 1092.6 39.8366H1094.1L1092.62 47.9222C1092.54 48.4707 1092.41 49.0096 1092.22 49.5315C1092.13 49.8675 1091.98 50.1855 1091.77 50.4701C1091.63 50.68 1091.43 50.8384 1091.19 50.9193C1090.94 50.995 1090.69 51.0242 1090.43 51.0068C1090.3 51.0068 1090.08 50.9601 1089.9 50.9601C1089.77 50.9349 1089.65 50.8892 1089.54 50.8261C1089.46 50.7988 1089.36 50.8349 1089.32 50.913C1089.27 51.0471 1088.87 52.12 1088.83 52.2068C1088.78 52.305 1088.82 52.4243 1088.92 52.475C1089.11 52.5484 1089.3 52.6085 1089.5 52.6561C1089.81 52.7255 1090.12 52.7547 1090.44 52.7431C1090.99 52.7533 1091.53 52.6624 1092.05 52.475C1092.51 52.2912 1092.93 51.9998 1093.26 51.6236C1093.62 51.2049 1093.91 50.72 1094.11 50.1953C1094.35 49.4803 1094.55 48.7474 1094.69 48.0032L1096.16 39.7362H1098.28C1098.39 39.7329 1098.48 39.6588 1098.5 39.5552L1098.73 38.2143C1098.74 38.1111 1098.67 38.0133 1098.57 37.9931H1096.45C1096.51 37.4891 1096.63 36.9944 1096.8 36.518C1096.89 36.2595 1097.05 36.0287 1097.25 35.8474C1097.41 35.6992 1097.59 35.5788 1097.79 35.4924C1098.02 35.4385 1098.26 35.4091 1098.51 35.4052C1098.69 35.4052 1098.91 35.452 1099.04 35.452C1099.15 35.4614 1099.26 35.491 1099.36 35.5392C1099.58 35.586 1099.58 35.5392 1099.62 35.452L1100.11 34.1111C1100.16 34.0239 1100.03 33.9771 1099.98 33.9302" fill="white"/>
<path d="M1071.05 47.9626C1071.04 48.0599 1070.96 48.1371 1070.87 48.144H1069.17C1069.07 48.1371 1068.99 48.0599 1068.99 47.9626V34.1244C1068.99 34.0273 1069.07 33.95 1069.17 33.9434H1070.83C1070.92 33.95 1071 34.0273 1071.01 34.1244V47.9758L1071.05 47.9626Z" fill="white"/>
<path d="M1157.35 34.9424C1157.17 35.1197 1156.98 35.2872 1156.79 35.4451V32.7834H1154.41V53.501H1156.79V45.9043C1160.22 49.8469 1164.17 49.451 1166.72 47.8552C1169.85 45.9178 1171.2 41.7409 1170.08 37.8856C1168.34 32.207 1161.23 30.2558 1157.35 34.9424ZM1161.7 46.6956C1158.57 46.6956 1156.65 44.0136 1156.63 40.6614C1156.6 37.3092 1159.2 34.5397 1162.32 34.513C1165.44 34.4864 1167.9 37.1212 1167.9 40.6478C1167.87 44.01 1165.12 46.7116 1161.76 46.6825H1161.76H1161.7L1161.7 46.6956Z" fill="#C2C4C7"/>
<path d="M1242 27.9563V32.6496H1247V34.7951H1242.13C1242.09 35.3112 1242.04 35.6866 1242.04 36.136C1242.04 38.6033 1242.13 41.0772 1242.04 43.5109C1241.89 46.4143 1243.38 47.0311 1246.06 46.4946C1246.29 46.4325 1246.51 46.3585 1246.73 46.2735C1247.29 48.0903 1246.94 48.6402 1245.13 48.868C1241.36 49.3169 1239.55 47.7213 1239.54 43.9068V34.8956L1237.39 34.7951V32.7835L1239.53 32.6496V27.9563H1242Z" fill="#C2C4C7"/>
<path d="M1192.77 48.5795H1190.37V32.7835H1192.72V36.4309C1194.38 33.9302 1196.21 32.3345 1199.15 32.4551V34.9158C1194.39 35.8076 1192.76 37.8255 1192.76 42.7602C1192.77 44.6439 1192.77 46.5615 1192.77 48.5795Z" fill="#C2C4C7"/>
<path d="M1213.88 26.2064V35.3917C1209.7 31.6437 1205.92 31.3688 1202.71 34.3388C1199.51 37.3092 1199.23 42.6529 1201.94 46.1325C1203.02 47.5363 1204.58 48.4908 1206.33 48.8145C1209.36 49.4249 1211.75 48.2379 1213.87 45.6029V48.5328H1216.17V26.1995H1213.88V26.2064ZM1208.12 46.7963C1204.99 46.7225 1202.57 43.9534 1202.63 40.5137C1202.7 37.0743 1205.04 34.4798 1208.22 34.52C1211.4 34.5601 1213.95 37.2889 1213.9 40.7753C1213.88 44.0941 1211.22 46.8632 1208.13 46.7963H1208.12Z" fill="#C2C4C7"/>
<path d="M1186.22 37.477C1186.08 35.0566 1184.59 33.4541 1182.27 32.8306C1179.41 32.1061 1176.39 32.4569 1173.78 33.8162L1174.45 35.7804C1177.26 34.7346 1178.75 34.5268 1180.59 34.7549C1182.65 35.0163 1184.48 36.9873 1183.78 39.3272L1183.05 39.1733C1180.37 38.6705 1177.72 38.3752 1175.17 39.5553C1172.76 40.5771 1171.63 43.3594 1172.65 45.7698C1173.01 46.6177 1173.61 47.3424 1174.38 47.8554C1175.71 48.7455 1177.31 49.1459 1178.91 48.9886C1180.83 48.8414 1182.63 47.9722 1183.94 46.5548L1184.06 48.5664H1186.29C1186.29 48.2112 1186.38 47.8959 1186.37 47.6408C1186.35 44.2419 1186.42 40.8292 1186.22 37.477ZM1181.64 46.3536C1179.67 47.2991 1177.67 47.4395 1175.83 46.0723C1174.61 45.0795 1174.43 43.2888 1175.42 42.0722C1175.6 41.8507 1175.81 41.6577 1176.05 41.4996C1178.3 40.4635 1180.85 40.3034 1183.2 41.0502C1183.6 41.2334 1183.89 41.5935 1183.99 42.0226C1184.33 43.8328 1183.35 45.6342 1181.65 46.3338L1181.64 46.3536Z" fill="#C2C4C7"/>
<path d="M1227.81 32.3007C1223.18 32.2237 1219.37 35.9131 1219.29 40.5407C1219.21 45.1687 1222.9 48.9832 1227.53 49.0602C1232.15 49.137 1235.97 45.4533 1236.05 40.829V40.7753C1236.14 36.192 1232.49 32.4067 1227.91 32.321C1227.9 32.321 1227.9 32.3209 1227.9 32.3209L1227.81 32.3007ZM1227.81 46.8428C1224.54 46.8428 1221.96 44.0875 1221.97 40.5876C1221.98 37.0875 1224.47 34.4797 1227.78 34.5063C1231.09 34.5334 1233.6 37.2421 1233.6 40.668C1233.6 44.0941 1231.05 46.8299 1227.8 46.8428H1227.81Z" fill="#C2C4C7"/>
<g clip-path="url(#clip2_223_8007)">
<path d="M1405.72 44.1269C1406.08 44.0829 1406.43 44.0819 1406.75 44.1269C1406.94 43.6999 1406.97 42.9649 1406.81 42.1649C1406.56 40.9749 1406.22 40.2549 1405.53 40.3669C1404.83 40.4789 1404.8 41.3409 1405.05 42.5309C1405.19 43.1999 1405.44 43.7729 1405.72 44.1269Z" fill="#C2C4C7"/>
<path d="M1399.75 45.0688C1400.25 45.2868 1400.55 45.4318 1400.67 45.3058C1400.75 45.2268 1400.72 45.0768 1400.61 44.8828C1400.36 44.4818 1399.85 44.0758 1399.32 43.8468C1398.22 43.3748 1396.92 43.5318 1395.91 44.2568C1395.58 44.5008 1395.26 44.8388 1395.31 45.0438C1395.32 45.1098 1395.37 45.1598 1395.49 45.1768C1395.76 45.2078 1396.72 44.7238 1397.82 44.6558C1398.6 44.6078 1399.25 44.8508 1399.75 45.0688Z" fill="#C2C4C7"/>
<path d="M1398.75 45.64C1398.1 45.742 1397.74 45.956 1397.51 46.155C1397.32 46.326 1397.19 46.515 1397.2 46.648L1397.25 46.766L1397.35 46.807C1397.5 46.807 1397.83 46.676 1397.83 46.676C1398.73 46.353 1399.32 46.392 1399.91 46.459C1400.24 46.496 1400.39 46.516 1400.46 46.404C1400.48 46.372 1400.51 46.303 1400.45 46.197C1400.29 45.951 1399.64 45.535 1398.75 45.641L1398.75 45.64Z" fill="#C2C4C7"/>
<path d="M1403.7 47.7358C1404.14 47.9518 1404.63 47.8668 1404.78 47.5458C1404.94 47.2248 1404.71 46.7898 1404.27 46.5738C1403.83 46.3578 1403.35 46.4428 1403.19 46.7638C1403.03 47.0848 1403.26 47.5198 1403.7 47.7358Z" fill="#C2C4C7"/>
<path d="M1406.53 45.265C1406.17 45.259 1405.88 45.651 1405.87 46.142C1405.86 46.632 1406.14 47.034 1406.5 47.04C1406.86 47.046 1407.15 46.654 1407.16 46.164C1407.17 45.674 1406.89 45.272 1406.53 45.265Z" fill="#C2C4C7"/>
<path d="M1382.52 54.1028C1382.44 53.9918 1382.29 54.0258 1382.15 54.0578C1382.05 54.0808 1381.94 54.1068 1381.82 54.1048C1381.55 54.0998 1381.33 53.9878 1381.2 53.7958C1381.04 53.5458 1381.05 53.1728 1381.23 52.7458L1381.31 52.5548C1381.6 51.9118 1382.08 50.8348 1381.54 49.8098C1381.14 49.0378 1380.48 48.5568 1379.68 48.4558C1378.92 48.3588 1378.13 48.6418 1377.63 49.1948C1376.84 50.0668 1376.72 51.2538 1376.87 51.6738C1376.93 51.8278 1377.01 51.8698 1377.08 51.8788C1377.21 51.8968 1377.41 51.7988 1377.53 51.4638L1377.57 51.3548C1377.63 51.1778 1377.73 50.8478 1377.9 50.5828C1378.1 50.2638 1378.42 50.0438 1378.79 49.9638C1379.17 49.8828 1379.56 49.9548 1379.89 50.1678C1380.44 50.5308 1380.66 51.2088 1380.42 51.8568C1380.3 52.1918 1380.1 52.8318 1380.14 53.3578C1380.23 54.4228 1380.89 54.8508 1381.47 54.8958C1382.05 54.9178 1382.45 54.5958 1382.55 54.3608C1382.61 54.2218 1382.56 54.1378 1382.52 54.1008V54.1028Z" fill="#C2C4C7"/>
<path d="M1415.55 52.1549C1415.53 52.0779 1415.39 51.5589 1415.19 50.9339L1414.79 49.8689C1415.58 48.6979 1415.59 47.6509 1415.49 47.0579C1415.37 46.3229 1415.07 45.6959 1414.45 45.0489C1413.83 44.4009 1412.57 43.7379 1410.8 43.2409L1409.87 42.9829C1409.87 42.9449 1409.82 40.7899 1409.78 39.8649C1409.75 39.1959 1409.69 38.1529 1409.37 37.1239C1408.98 35.7319 1408.31 34.5149 1407.47 33.736C1409.79 31.335 1411.24 28.689 1411.23 26.42C1411.22 22.056 1405.87 20.735 1399.26 23.47L1397.86 24.064C1397.86 24.058 1395.33 21.582 1395.29 21.549C1387.76 14.981 1364.22 41.1509 1371.75 47.5069L1373.39 48.9009C1372.97 50.0059 1372.8 51.2729 1372.94 52.6349C1373.11 54.3839 1374.01 56.0609 1375.48 57.3569C1376.86 58.5869 1378.69 59.3659 1380.46 59.3639C1383.39 66.1148 1390.08 70.2558 1397.93 70.4888C1406.35 70.7388 1413.42 66.7888 1416.38 59.6929C1416.57 59.1949 1417.39 56.9509 1417.39 54.9699C1417.39 52.9789 1416.27 52.1539 1415.55 52.1539L1415.55 52.1549ZM1381.11 57.4679C1380.85 57.5119 1380.59 57.5289 1380.33 57.5229C1377.79 57.4549 1375.04 55.1659 1374.77 52.4509C1374.46 49.4509 1376 47.1409 1378.71 46.5939C1379.04 46.5289 1379.43 46.4909 1379.85 46.5129C1381.37 46.5959 1383.61 47.7639 1384.13 51.0769C1384.58 54.0109 1383.86 56.9989 1381.11 57.4679ZM1378.27 44.7989C1376.58 45.1279 1375.09 46.0849 1374.18 47.4079C1373.64 46.9539 1372.62 46.0749 1372.44 45.7329C1370.99 42.9719 1374.03 37.6039 1376.15 34.5729C1381.4 27.081 1389.62 21.411 1393.43 22.439C1394.05 22.614 1396.1 24.99 1396.1 24.99C1396.1 24.99 1392.29 27.101 1388.77 30.044C1384.01 33.7049 1380.42 39.0249 1378.27 44.7989ZM1404.96 56.3459C1405.01 56.3229 1405.05 56.2589 1405.04 56.1969C1405.04 56.1199 1404.97 56.0639 1404.89 56.0719C1404.89 56.0719 1400.91 56.6619 1397.14 55.2839C1397.55 53.9519 1398.64 54.4329 1400.29 54.5659C1403.26 54.7429 1405.92 54.3089 1407.89 53.7449C1409.59 53.2559 1411.83 52.2919 1413.57 50.9199C1414.15 52.2079 1414.36 53.6249 1414.36 53.6249C1414.36 53.6249 1414.81 53.5439 1415.19 53.7769C1415.55 53.9979 1415.81 54.4559 1415.64 55.6419C1415.27 57.8569 1414.33 59.6539 1412.75 61.3078C1411.78 62.3448 1410.61 63.2458 1409.28 63.9008C1408.57 64.2738 1407.81 64.5968 1407.01 64.8578C1401.05 66.8058 1394.94 64.6638 1392.97 60.0648C1392.82 59.7189 1392.68 59.3569 1392.58 58.9789C1391.74 55.9479 1392.45 52.3119 1394.68 50.0229C1394.81 49.8769 1394.95 49.7049 1394.95 49.4889C1394.95 49.3079 1394.84 49.1179 1394.74 48.9829C1393.96 47.8539 1391.26 45.9289 1391.81 42.2039C1392.19 39.5279 1394.53 37.6439 1396.72 37.7559L1397.27 37.7879C1398.21 37.8439 1399.04 37.9649 1399.82 37.9979C1401.12 38.0539 1402.29 37.8649 1403.68 36.7089C1404.15 36.3189 1404.52 35.9809 1405.16 35.8729C1405.22 35.8619 1405.39 35.8019 1405.72 35.8179C1406.06 35.8359 1406.38 35.9289 1406.67 36.1219C1407.78 36.8619 1407.94 38.6549 1408 39.9659C1408.03 40.7149 1408.12 42.5259 1408.15 43.0449C1408.23 44.2339 1408.54 44.4009 1409.17 44.6099C1409.53 44.7269 1409.86 44.8139 1410.34 44.9509C1411.81 45.3639 1412.69 45.7839 1413.24 46.3219C1413.57 46.6589 1413.72 47.0159 1413.77 47.3579C1413.94 48.6249 1412.78 50.1889 1409.72 51.6109C1406.37 53.1649 1402.31 53.5579 1399.5 53.2459L1398.52 53.1349C1396.28 52.8329 1395 55.7339 1396.34 57.7209C1397.21 59.0019 1399.58 59.8349 1401.94 59.8359C1407.37 59.8369 1411.54 57.5199 1413.09 55.5189L1413.21 55.3419C1413.29 55.2269 1413.23 55.1639 1413.13 55.2289C1411.86 56.0959 1406.23 59.5389 1400.21 58.5029C1400.21 58.5029 1399.48 58.3829 1398.81 58.1229C1398.28 57.9169 1397.17 57.4059 1397.04 56.2659C1401.9 57.7689 1404.96 56.3479 1404.96 56.3479V56.3459ZM1397.26 55.4369L1397.26 55.4379L1397.26 55.4399L1397.26 55.4369ZM1387.96 34.5409C1389.83 32.384 1392.13 30.509 1394.19 29.456C1394.26 29.42 1394.33 29.497 1394.29 29.567C1394.13 29.863 1393.82 30.497 1393.72 30.977C1393.7 31.052 1393.78 31.108 1393.85 31.065C1395.13 30.192 1397.35 29.257 1399.31 29.137C1399.39 29.132 1399.43 29.239 1399.37 29.291C1399.07 29.519 1398.74 29.834 1398.51 30.153C1398.47 30.207 1398.5 30.285 1398.57 30.286C1399.94 30.296 1401.88 30.776 1403.14 31.483C1403.22 31.531 1403.16 31.696 1403.07 31.674C1401.16 31.237 1398.04 30.905 1394.79 31.696C1391.9 32.402 1389.69 33.492 1388.08 34.6649C1388 34.7239 1387.9 34.6179 1387.96 34.5409Z" fill="#C2C4C7"/>
<path d="M1550.26 39.6119C1547.47 39.6119 1546.19 41.7039 1545.64 42.8949C1545.27 43.6818 1545.29 43.9128 1545.02 43.9128C1544.63 43.9128 1544.95 43.2808 1545.13 42.5369C1545.47 41.0729 1545.21 39.9549 1545.21 39.9549H1541.23V59.0338H1546.66V52.9848C1547.3 54.0738 1548.49 55.2378 1550.33 55.2378C1554.25 55.2378 1556.23 51.9168 1556.23 47.4308C1556.23 42.3459 1553.86 39.6099 1550.26 39.6099L1550.26 39.6119ZM1548.77 51.6968C1547.53 51.6968 1546.61 50.1188 1546.61 47.9188C1546.61 45.7828 1547.55 44.1418 1548.73 44.1418C1550.24 44.1418 1550.88 45.5268 1550.88 47.9188C1550.88 50.4068 1550.29 51.6968 1548.77 51.6968Z" fill="#C2C4C7"/>
<path d="M1442.39 39.6119C1440 39.6119 1438.82 41.4909 1438.28 42.7019C1437.98 43.3789 1437.89 43.9139 1437.65 43.9139C1437.3 43.9139 1437.55 43.4489 1437.27 42.4179C1436.89 41.0609 1435.77 39.6119 1433.38 39.6119C1430.88 39.6119 1429.8 41.7309 1429.29 42.8949C1428.95 43.6909 1428.94 43.9129 1428.68 43.9129C1428.29 43.9129 1428.61 43.2809 1428.78 42.5369C1429.13 41.0729 1428.87 39.9549 1428.87 39.9549H1424.89V54.9049H1430.32V47.4669C1430.32 45.9999 1430.93 44.1379 1431.98 44.1379C1433.2 44.1379 1433.44 45.0719 1433.44 46.7999V54.9089H1438.89V47.4669C1438.89 46.1609 1439.42 44.1379 1440.57 44.1379C1441.8 44.1379 1442.02 45.4489 1442.02 46.7999V54.9049H1447.37V46.1129C1447.37 42.2109 1445.99 39.6099 1442.39 39.6099L1442.39 39.6119ZM1534.5 39.6119C1532.12 39.6119 1530.94 41.4909 1530.39 42.7019C1530.09 43.3789 1530.01 43.9139 1529.76 43.9139C1529.41 43.9139 1529.65 43.3229 1529.38 42.4179C1528.98 41.0679 1527.99 39.6119 1525.5 39.6119C1522.99 39.6119 1521.92 41.7309 1521.41 42.8949C1521.06 43.6909 1521.06 43.9129 1520.79 43.9129C1520.4 43.9129 1520.72 43.2809 1520.9 42.5369C1521.24 41.0729 1520.98 39.9549 1520.98 39.9549H1517V54.9049H1522.43V47.4669C1522.43 45.9999 1523.05 44.1379 1524.1 44.1379C1525.31 44.1379 1525.56 45.0719 1525.56 46.7999V54.9089H1531.01V47.4669C1531.01 46.1609 1531.54 44.1379 1532.68 44.1379C1533.91 44.1379 1534.13 45.4489 1534.13 46.7999V54.9049H1539.48V46.1129C1539.48 42.2109 1538.11 39.6099 1534.5 39.6099L1534.5 39.6119ZM1456.63 39.6149C1452.48 39.6149 1449.49 41.1429 1449.49 41.1429V45.6359C1449.49 45.6359 1452.79 43.7419 1455.46 43.7419C1457.59 43.7419 1457.85 44.8919 1457.76 45.8469C1457.76 45.8469 1457.14 45.6839 1455.26 45.6839C1450.84 45.6839 1448.61 47.6939 1448.61 50.9179C1448.61 53.9759 1451.12 55.2539 1453.23 55.2539C1456.32 55.2539 1457.67 53.1809 1458.09 52.1969C1458.38 51.5149 1458.43 51.0549 1458.69 51.0549C1458.99 51.0549 1458.89 51.3849 1458.87 52.0639C1458.85 53.2529 1458.91 54.1529 1459.09 54.9099H1463.18V47.5519C1463.18 42.9579 1461.56 39.6149 1456.63 39.6149ZM1455.31 51.4119C1454.01 51.7119 1453.34 51.3119 1453.34 50.4519C1453.34 49.2739 1454.56 48.8019 1456.3 48.8019C1457.07 48.8019 1457.79 48.8679 1457.79 48.8679C1457.79 49.3729 1456.69 51.0939 1455.31 51.4119ZM1472.12 35.4299H1477.55V54.9099H1472.12V35.4299ZM1483.52 47.4339C1483.52 46.0899 1484.77 44.8669 1487.06 44.8669C1489.56 44.8669 1491.57 46.0699 1492.02 46.3429V41.1429C1492.02 41.1429 1490.44 39.6149 1486.53 39.6149C1482.42 39.6149 1479 42.0219 1479 47.2019C1479 52.3819 1482.1 55.2539 1486.52 55.2539C1489.97 55.2539 1492.03 53.3579 1492.03 53.3579V48.4189C1491.38 48.7829 1489.57 50.0419 1487.09 50.0419C1484.47 50.0419 1483.52 48.8349 1483.52 47.4349L1483.52 47.4339ZM1503.02 39.6149C1499.87 39.6149 1498.68 42.5919 1498.44 43.1089C1498.2 43.6259 1498.08 43.9229 1497.88 43.9169C1497.54 43.9059 1497.78 43.2819 1497.91 42.8789C1498.16 42.1159 1498.7 40.1159 1498.7 37.6559C1498.7 35.9879 1498.47 35.4299 1498.47 35.4299H1493.79V54.9099H1499.21V47.4719C1499.21 46.2599 1499.7 44.1429 1501.07 44.1429C1502.2 44.1429 1502.55 44.9819 1502.55 46.6719V54.9109H1507.98V46.9979C1507.98 43.1599 1507.34 39.6169 1503.02 39.6169V39.6149ZM1509.74 39.9759V54.9089H1515.17V39.9759C1515.17 39.9759 1514.26 40.5099 1512.46 40.5099C1510.67 40.5099 1509.74 39.9759 1509.74 39.9759Z" fill="#C2C4C7"/>
<path d="M1515.77 37.447C1515.77 38.6444 1514.28 39.615 1512.44 39.615C1510.61 39.615 1509.12 38.6444 1509.12 37.447C1509.12 36.2497 1510.61 35.2791 1512.44 35.2791C1514.28 35.2791 1515.77 36.2497 1515.77 37.447Z" fill="#C2C4C7"/>
<path d="M1464.94 39.9758V54.9088H1470.37V39.9758C1470.37 39.9758 1469.46 40.5098 1467.66 40.5098L1464.94 39.9758Z" fill="#C2C4C7"/>
<path d="M1470.96 37.447C1470.96 38.6444 1469.47 39.615 1467.64 39.615C1465.8 39.615 1464.32 38.6444 1464.32 37.447C1464.32 36.2497 1465.8 35.2791 1467.64 35.2791C1469.47 35.2791 1470.96 36.2497 1470.96 37.447Z" fill="#C2C4C7"/>
</g>
<g clip-path="url(#clip3_223_8007)">
<path d="M1727.1 57.7174C1728.89 59.0262 1730.95 59.6891 1733.27 59.6891C1737.83 59.6891 1740.1 57.5844 1740.1 53.4079C1740.1 50.2756 1738.17 47.9388 1734.35 46.3809C1731.98 45.4526 1730.2 44.3586 1729.03 43.0662C1727.73 41.6905 1727.1 40.0167 1727.09 38.0614C1727.09 35.8565 1727.85 34.0172 1729.39 32.5586C1730.91 31.1172 1732.89 30.4041 1735.29 30.4041C1736.52 30.4041 1737.66 30.5537 1738.72 30.8518C1739.62 31.0835 1740.35 31.3988 1740.89 31.7797L1740.15 33.6191C1739.67 33.2548 1739.05 32.9567 1738.31 32.6746C1737.3 32.3434 1736.25 32.1777 1735.16 32.1777C1733.09 32.1777 1731.49 32.807 1730.38 34.0669C1729.49 35.0776 1729.04 36.2877 1729.04 37.6965C1729.04 40.53 1731 42.7676 1734.91 44.4083C1737.36 45.4858 1739.14 46.6291 1740.23 47.8556C1741.42 49.2639 1742.04 51.0377 1742.04 53.1758C1742.04 55.4962 1741.29 57.4348 1739.81 58.9597C1738.19 60.6339 1735.95 61.4621 1733.07 61.4786C1730.28 61.4786 1728.03 60.8162 1726.32 59.4735L1727.1 57.7174Z" fill="#C2C4C7"/>
<path d="M1746.81 29.178H1748.81L1748.83 43.3645H1748.91C1749.53 42.0882 1750.44 41.0443 1751.63 40.2653C1752.92 39.4368 1754.27 39.0055 1755.69 39.0055C1756.31 39.0055 1756.94 39.0889 1757.58 39.2711C1758.44 39.536 1759.22 39.9508 1759.89 40.5138C1760.75 41.1934 1761.41 42.1046 1761.86 43.2487C1762.42 44.5582 1762.7 46.1652 1762.7 48.0383L1762.72 60.9824H1760.71L1760.7 48.2701C1760.7 46.1157 1760.28 44.4085 1759.47 43.1162C1758.53 41.6245 1757.08 40.8789 1755.16 40.8789C1752.18 40.8789 1750.16 42.5029 1749.1 45.7182C1748.93 46.2485 1748.85 46.978 1748.85 47.8729L1748.86 60.9989H1746.86L1746.81 29.178Z" fill="#C2C4C7"/>
<path d="M1774.39 38.7239H1774.77C1777.78 38.7239 1779.84 40.1162 1780.93 42.9339C1781.38 44.2097 1781.61 45.6516 1781.61 47.226V55.8276C1781.61 58.0316 1781.71 59.7555 1781.91 60.9821L1781.86 61.0316H1780.1C1780.02 61.0316 1779.96 60.6674 1779.94 59.9048L1779.72 57.8828H1779.59C1778.81 59.0758 1778 59.8883 1777.15 60.3023C1775.98 61.1144 1774.62 61.5123 1773.04 61.5123C1770.26 61.5123 1768.35 60.1698 1767.34 57.4846C1767.18 56.8056 1767.09 56.1923 1767.09 55.6453V55.2809C1767.09 52.5627 1768.44 50.4744 1771.1 49.0158C1772.66 48.3362 1773.71 47.9884 1774.2 47.9884C1775.51 47.7235 1776.61 47.5909 1777.47 47.5909H1777.52V49.2977L1777.44 49.3805C1775.36 49.3805 1773.42 49.8448 1771.6 50.773C1770.01 51.8169 1769.21 53.2091 1769.21 54.9326V55.3307C1769.21 57.1537 1769.94 58.4467 1771.4 59.2249C1772.02 59.5235 1772.65 59.6725 1773.29 59.6725C1775.66 59.6725 1777.49 58.6286 1778.73 56.5402C1779.26 55.6784 1779.52 54.7835 1779.52 53.8555V47.3253C1779.52 43.7784 1778.51 41.6407 1776.51 40.9281C1775.86 40.6963 1775.17 40.5637 1774.42 40.5804H1774.29C1772.36 40.5804 1770.66 41.1269 1769.18 42.2044C1769.13 42.2044 1768.9 41.6741 1768.5 40.6293C1770.34 39.3539 1772.3 38.7239 1774.39 38.7239Z" fill="#C2C4C7"/>
<path d="M1787.35 45.9166C1787.35 43.497 1787.28 41.3589 1787.18 39.4698H1789.02L1789.11 43.8121H1789.24C1790.27 40.5964 1792.17 38.9724 1794.92 38.9724C1795.07 38.9724 1795.2 38.9894 1795.34 39.0221C1795.49 39.0221 1795.62 39.0387 1795.75 39.0722V41.0938C1795.6 41.0608 1795.45 41.0442 1795.29 41.0442H1794.79C1791.91 41.0442 1790.15 43.0491 1789.52 47.0433C1789.4 47.607 1789.35 48.3031 1789.35 49.0986L1789.37 60.9652H1787.37L1787.35 45.9166Z" fill="#C2C4C7"/>
<path d="M1809.87 38.2927H1810.33C1813.05 38.2927 1815.27 39.6022 1817.05 42.2211C1818.27 44.2097 1818.89 46.5464 1818.9 49.1985V49.3806C1818.9 54.4524 1817.16 58.0483 1813.68 60.1369C1812.41 60.7668 1811.05 61.0815 1809.62 61.0815C1807.75 61.0815 1806.11 60.5345 1804.68 59.4243V57.1868H1804.72C1806.11 58.5625 1807.73 59.2415 1809.57 59.2415C1812.5 59.2415 1814.63 57.7008 1815.94 54.618C1816.55 53.0271 1816.86 51.2864 1816.85 49.3806C1816.85 46.6129 1816.08 44.2759 1814.58 42.4033C1813.23 40.8785 1811.61 40.1161 1809.72 40.1327H1809.59C1807.52 40.1327 1805.73 41.1269 1804.18 43.0996C1803.46 44.0608 1802.96 45.3862 1802.68 47.0938C1802.64 47.309 1802.63 47.574 1802.63 47.9059L1802.64 69.5338L1802.56 69.6169H1800.67L1800.59 69.5338L1800.57 46.4804C1800.57 43.3811 1800.51 40.8455 1800.41 38.8731H1800.44H1802.33H1802.38L1802.51 42.9506H1802.59C1803.42 41.094 1804.91 39.7189 1807.07 38.791C1808.1 38.4589 1809.02 38.2927 1809.87 38.2927Z" fill="#C2C4C7"/>
<path d="M1822.42 57.6173C1824.2 58.9268 1826.26 59.5896 1828.58 59.5731C1833.14 59.5731 1835.41 57.4847 1835.41 53.2919C1835.41 50.1591 1833.49 47.8226 1829.66 46.2647C1827.29 45.3366 1825.51 44.2426 1824.34 42.9501C1823.05 41.5743 1822.4 39.8999 1822.4 37.9447C1822.4 35.7403 1823.16 33.901 1824.7 32.4426C1826.24 31.0006 1828.2 30.2878 1830.6 30.2878C1831.83 30.2878 1832.97 30.437 1834.03 30.7356C1834.93 30.9673 1835.66 31.2826 1836.2 31.6801L1835.46 33.5196C1834.98 33.1552 1834.36 32.8571 1833.62 32.575C1832.61 32.2433 1831.56 32.0777 1830.47 32.0777C1828.4 32.0777 1826.81 32.7075 1825.7 33.9673C1824.8 34.9782 1824.35 36.1882 1824.35 37.597C1824.35 40.4306 1826.31 42.6682 1830.22 44.3087C1832.67 45.3859 1834.45 46.5298 1835.54 47.7564C1836.74 49.1652 1837.35 50.9384 1837.35 53.0764C1837.35 55.3963 1836.62 57.3354 1835.13 58.8603C1833.5 60.5342 1831.27 61.3629 1828.38 61.3792C1825.6 61.3792 1823.34 60.7164 1821.64 59.374L1822.42 57.6173Z" fill="#C2C4C7"/>
<path d="M1850.84 38.2432H1851.3C1854.02 38.2432 1856.24 39.5532 1858.02 42.1716C1859.24 44.1765 1859.86 46.497 1859.87 49.1484V49.3311C1859.87 54.4028 1858.13 57.9823 1854.65 60.0874C1853.36 60.7168 1852.02 61.0319 1850.59 61.0319C1848.72 61.0319 1847.08 60.4849 1845.65 59.3746V57.1372H1845.69C1847.08 58.5125 1848.7 59.1921 1850.54 59.1921C1853.47 59.1921 1855.6 57.6512 1856.91 54.5851C1857.52 52.9942 1857.83 51.2535 1857.82 49.3477C1857.82 46.5798 1857.05 44.2428 1855.55 42.3704C1854.2 40.8456 1852.58 40.0833 1850.69 40.0833H1850.56C1848.49 40.0833 1846.7 41.0775 1845.16 43.0495C1844.43 44.0111 1843.93 45.3372 1843.65 47.0437C1843.61 47.2595 1843.6 47.5244 1843.6 47.8561L1843.61 69.4842L1843.53 69.567H1841.64L1841.56 69.4679L1841.54 46.4144C1841.54 43.3151 1841.48 40.7797 1841.36 38.8072H1841.41H1843.3L1843.35 38.8568L1843.48 42.9344H1843.56C1844.39 41.0777 1845.88 39.7021 1848.04 38.774C1849.07 38.4088 1849.99 38.2432 1850.84 38.2432Z" fill="#C2C4C7"/>
<path d="M1864.78 45.8338C1864.78 43.4141 1864.73 41.2761 1864.61 39.3868H1866.45L1866.54 43.7292H1866.67C1867.7 40.5134 1869.6 38.8894 1872.35 38.8894C1872.49 38.8894 1872.63 38.9059 1872.77 38.9391C1872.9 38.9391 1873.05 38.9562 1873.18 38.9894V41.011C1873.05 40.9778 1872.88 40.9613 1872.72 40.9613H1872.22C1869.34 40.9613 1867.58 42.9669 1866.95 46.9612C1866.83 47.5241 1866.78 48.2205 1866.78 49.0159L1866.8 60.8822H1864.8L1864.78 45.8338Z" fill="#C2C4C7"/>
<path d="M1877.49 60.8662L1877.47 39.3705H1879.48L1879.5 60.8662H1877.49ZM1878.39 35.0778C1877.34 35.0778 1876.83 34.4645 1876.83 33.2385C1876.83 31.9787 1877.37 31.3489 1878.45 31.3489C1879.51 31.3489 1880.04 31.9787 1880.04 33.2219C1880.04 34.4485 1879.5 35.0613 1878.4 35.0613H1878.39V35.0778Z" fill="#C2C4C7"/>
<path d="M1886.22 44.5078C1886.22 42.602 1886.17 40.8787 1886.06 39.3539H1887.95L1888.08 43.199H1888.16C1889.47 40.2987 1891.78 38.8568 1895.07 38.8401C1895.72 38.8401 1896.37 38.9234 1897 39.105C1897.86 39.3706 1898.64 39.7846 1899.3 40.3482C1900.16 41.061 1900.83 41.9724 1901.27 43.0831C1901.84 44.4255 1902.12 46.0327 1902.12 47.9222L1902.13 60.8164H1900.13L1900.11 48.1045C1900.11 45.9336 1899.7 44.1764 1898.89 42.8669C1897.91 41.3754 1896.45 40.6296 1894.53 40.6296C1891.43 40.6296 1889.42 42.2868 1888.49 45.6018C1888.33 46.2648 1888.25 46.8776 1888.25 47.4745L1888.26 60.8164H1886.26L1886.22 44.5078Z" fill="#C2C4C7"/>
<path d="M1915.96 38.575H1916.34C1919.22 38.575 1921.38 39.8513 1922.84 42.42C1922.89 42.5692 1922.97 42.6686 1923.05 42.7346H1923.08C1923.13 40.282 1923.2 39.0558 1923.25 39.0558H1925.01L1925.04 39.105H1925.09C1924.97 40.4481 1924.92 42.1546 1924.92 44.2099L1924.94 57.4188C1924.94 62.1592 1924.18 65.4241 1922.64 67.1807C1921.78 68.1749 1920.95 68.8214 1920.17 69.153C1918.69 69.9648 1917.05 70.3627 1915.23 70.3627C1912.69 70.3627 1910.52 69.7328 1908.73 68.4895V68.4072C1909.18 67.2634 1909.41 66.6997 1909.44 66.6997C1911.23 67.8934 1913.14 68.4895 1915.18 68.4895H1915.31L1915.48 68.5397L1915.69 68.4895H1915.91C1918.26 68.4895 1920.1 67.5781 1921.43 65.7551C1921.99 64.893 1922.39 63.8164 1922.64 62.54C1922.8 61.6116 1922.89 60.3192 1922.89 58.6455L1922.87 48.0716C1922.87 46.2486 1922.64 45.0055 1922.16 44.3093C1920.85 41.7076 1918.87 40.4151 1916.24 40.4151C1913.5 40.4151 1911.43 41.8235 1910.04 44.6244C1909.35 46.1488 1909 47.9392 1909 49.9937C1909 53.1928 1909.96 55.6786 1911.85 57.4685C1913.07 58.5123 1914.53 59.0262 1916.21 59.0262C1917.88 59.0262 1919.42 58.33 1920.81 56.955H1920.85V59.0592C1919.49 60.2528 1917.75 60.849 1915.66 60.849C1913.17 60.849 1911.09 59.7886 1909.38 57.6841C1907.75 55.5627 1906.94 53.1264 1906.94 50.3418V49.9442C1906.94 46.3642 1908 43.4307 1910.16 41.16C1911.96 39.4367 1913.89 38.575 1915.96 38.575Z" fill="#C2C4C7"/>
<path d="M1680.9 49.016C1680.7 49.2643 1680.27 48.502 1680.27 48.502C1679.45 46.928 1679.25 44.7734 1678.96 43.0327C1678.51 40.315 1678.21 37.5471 1678.11 34.7795L1678.08 35.0941C1678.1 34.9783 1678.11 34.8788 1678.13 34.7795C1676.9 38.0445 1676.57 44.9388 1676.57 44.9388C1676.57 44.9553 1676.67 49.4304 1677.88 49.8611C1677.96 49.8941 1678.03 49.8611 1678.11 49.8776C1679.06 49.6955 1679.95 49.182 1680.9 49.016C1680.91 49.016 1680.91 49.016 1680.9 49.016Z" fill="#C2C4C7"/>
<path d="M1678.58 49.7286C1678.31 49.4968 1678.13 49.0988 1678 48.7674C1677.81 48.3032 1677.68 47.8395 1677.57 47.3586C1677.33 46.414 1677.15 45.4528 1677.07 44.4912C1676.99 43.4309 1676.97 42.3372 1677.02 41.2761C1677.04 40.9614 1677.05 40.6463 1677.09 40.3316C1677.27 38.4425 1677.57 36.6191 1678.13 34.8126C1676.9 38.0616 1676.49 41.4588 1676.49 44.9554C1676.49 44.9719 1676.49 45.0053 1676.49 45.0384C1676.54 45.9668 1676.72 49.0325 1677.63 49.9112C1677.91 50.1593 1678.15 49.9279 1678.58 49.7286ZM1678.13 34.7961C1678.11 34.8789 1678.1 34.9949 1678.1 35.1107L1678.13 34.7961Z" fill="#C2C4C7"/>
<path d="M1715.09 57.3358C1714.71 56.7391 1714.01 55.529 1714.01 55.529L1712.87 53.5576C1712.87 53.5576 1711.26 52.8446 1710.46 52.3972C1711.13 53.5246 1711.76 55.1813 1712.8 55.927C1713.65 56.5237 1714.49 57.137 1715.35 57.7335C1715.24 57.5677 1715.17 57.4684 1715.09 57.3358C1715.17 57.4684 1715.01 57.2034 1715.09 57.3358Z" fill="#C2C4C7"/>
<path d="M1701.7 64.2138C1696.36 62.192 1694.42 54.2199 1693.38 49.0159C1691.88 41.6575 1691.44 33.8513 1692.13 26.3601H1684.86C1683.93 34.7298 1684.31 43.7785 1686.15 51.9659C1686.95 55.4962 1688.07 59.6227 1690.66 62.1417C1692.17 63.6003 1694.37 63.9978 1696.33 64.3798C1699.03 64.9098 1701.68 64.8438 1704.4 64.4787C1703.5 64.6119 1702.57 64.5455 1701.7 64.2138C1702.54 64.5455 1693.36 61.0648 1701.7 64.2138Z" fill="#C2C4C7"/>
<path d="M1698.28 66.1696C1697.62 65.6391 1696.99 64.5124 1696.21 64.3626C1697.98 62.4405 1699.23 60.0037 1700.29 57.5842C1700.83 56.3414 1701.35 55.0652 1701.81 53.7721C1702.01 53.2421 1702.54 52.6123 1702.21 52.1312C1701.96 51.8 1701.56 51.6344 1701.32 51.2861C1700.35 54.0707 1699.26 56.8712 1697.69 59.3244C1696.58 61.0645 1694.75 63.3517 1692.51 63.0537C1691.09 62.9212 1689.95 61.2965 1689.2 60.1366C1688.07 58.3463 1687.31 56.3082 1686.73 54.2535C1685.37 49.4965 1684.84 44.4749 1684.59 39.5191C1684.38 35.1601 1684.38 30.7356 1684.84 26.3931H1689.96H1690.86C1691.09 26.3931 1691.24 24.8849 1691.31 24.5868C1691.62 23.2938 1691.9 21.5373 1693.08 20.8247C1691.26 21.4215 1689.75 21.9351 1688.07 22.9298C1687.2 23.4433 1686.32 23.9901 1685.5 24.6037C1685.12 25.0508 1684.53 25.5151 1684.18 25.8961C1683.23 28.1342 1683.12 31.2328 1683.02 33.6193C1682.65 42.0882 1682.99 51.4361 1685.89 59.4244C1686.76 61.8438 1688.02 64.4131 1690.15 65.8382C1691.84 66.9814 1694.26 67.3794 1696.21 67.6449C1698.45 67.943 1701.05 67.578 1700.17 67.2468C1698.85 66.7665 1698.86 66.6338 1698.28 66.1696Z" fill="#C2C4C7"/>
<path d="M1709.44 21.521C1708.71 22.7803 1707.65 24.0898 1707.35 25.5482C1706.6 29.1613 1705.09 32.7413 1703.7 36.122C1702.03 40.1989 1700.11 44.1929 1697.82 47.9057C1696.73 49.6792 1695.53 51.4029 1694.19 52.9768C1693.76 53.4741 1693.39 53.7894 1693.21 54.4192C1693.1 54.8333 1692.96 55.2475 1692.85 55.6454C1697.49 50.7226 1700.77 44.342 1703.59 38.1105C1705.01 34.912 1706.32 31.6471 1707.48 28.3327C1707.96 26.9735 1708.43 25.598 1708.82 24.2057C1709.02 23.5426 1709.62 22.2668 1709.44 21.521Z" fill="#C2C4C7"/>
<path d="M1694.11 29.2609C1694.24 27.0067 1694.34 24.6202 1693.99 22.3993C1693.89 21.7363 1693.77 20.3944 1692.91 20.676C1692.23 20.9077 1691.55 21.123 1690.89 21.4218C1689.18 22.1346 1687.58 23.0293 1686.07 24.1562C1685.54 24.5541 1685.04 25.0012 1684.53 25.4656C1684.28 25.6974 1684.28 25.6974 1684.18 25.8962C1684.08 26.079 1684.18 26.6255 1684.16 27.0565C1683.86 32.5919 1682.4 38.1604 1680.95 43.4474C1680.42 45.337 1679.89 48.386 1678.41 49.7286C1677.05 50.9719 1676.54 45.5855 1676.49 44.9555C1676.7 48.7509 1677.62 52.5628 1679.49 55.8442C1680.28 57.253 1681.18 59.209 1682.7 59.8384C1684.49 60.6007 1686.05 58.7448 1686.96 57.3525C1689.43 53.5737 1690.72 48.8337 1691.79 44.4421C1692.98 39.4863 1693.82 34.3816 1694.11 29.2609C1694.14 28.6309 1693.94 32.36 1694.11 29.2609Z" fill="#C2C4C7"/>
<path d="M1716 49.4805C1715.92 44.4914 1715.24 39.4866 1714.14 34.6306C1713.13 30.1228 1711.77 25.4822 1709.44 21.5378C1709.59 22.1843 1709.1 23.2614 1708.94 23.8582C1708.54 25.2498 1708.09 26.6256 1707.61 27.9847C1706.47 31.2831 1705.18 34.5149 1703.77 37.6968C1700.92 44.0938 1697.59 50.6401 1692.85 55.6622C1696.11 54.9991 1699.18 53.9221 1702.24 52.5796C1701.15 55.745 1699.91 58.9271 1698.17 61.7442C1696.59 64.2968 1694.02 67.3961 1690.82 66.2361C1692.23 67.0649 1695.2 67.6947 1697.98 67.8271C1700.32 67.9429 1702.99 67.8763 1705.08 66.6005C1709.24 64.0484 1711.47 58.4799 1713.03 53.8889C1713.8 55.1814 1714.52 56.4908 1715.34 57.7336C1715.85 55.4633 1716.07 52.6126 1716 49.4805C1716.07 52.6126 1715.95 46.3314 1716 49.4805Z" fill="#C2C4C7"/>
</g>
<g clip-path="url(#clip4_223_8007)">
<path d="M2097.33 60.2436C2096.44 60.2436 2095.54 60.0513 2094.71 59.6667L2076.24 51.4615C2072.91 49.9872 2071.44 46.141 2072.91 42.8077L2081.12 24.4103C2082.59 21.141 2086.44 19.6026 2089.77 21.0769L2108.23 29.2821C2111.5 30.7564 2113.04 34.6026 2111.56 37.9359L2103.3 56.3974C2102.21 58.8333 2099.83 60.2436 2097.33 60.2436ZM2096.18 56.2051C2097.59 56.8462 2099.19 56.2051 2099.83 54.7949L2108.04 36.3333C2108.68 34.9231 2108.04 33.3205 2106.63 32.6795L2088.23 24.5385C2086.82 23.8974 2085.22 24.5385 2084.58 25.9487L2076.37 44.3462C2075.73 45.7564 2076.37 47.359 2077.78 48L2096.18 56.2051Z" fill="#C2C4C7"/>
<path d="M2155.16 60.2436H2134.96C2131.37 60.2436 2128.43 57.2949 2128.43 53.7051V33.5128C2128.43 29.9231 2131.37 26.9744 2134.96 26.9744H2155.16C2158.75 26.9744 2161.7 29.9231 2161.7 33.5128V53.7051C2161.7 57.2949 2158.75 60.2436 2155.16 60.2436ZM2134.96 30.7564C2133.43 30.7564 2132.21 31.9744 2132.21 33.5128V53.7051C2132.21 55.2436 2133.43 56.4615 2134.96 56.4615H2155.16C2156.7 56.4615 2157.91 55.2436 2157.91 53.7051V33.5128C2157.91 31.9744 2156.7 30.7564 2155.16 30.7564H2134.96Z" fill="#C2C4C7"/>
<path d="M2079.51 37.2309L2076.82 43.3206C2076.76 43.3847 2076.76 43.4488 2076.69 43.5129L2077.78 50.0514C2078.04 51.5898 2077.01 53.0001 2075.48 53.1924L2055.54 56.3975C2054.84 56.5257 2054.07 56.3334 2053.49 55.8847C2052.91 55.436 2052.53 54.795 2052.4 54.0898L2049.19 34.1539C2049.07 33.4488 2049.26 32.6796 2049.71 32.1027C2050.16 31.5257 2050.8 31.1411 2051.5 31.0129L2071.44 27.8078C2071.57 27.8078 2071.76 27.7437 2071.89 27.7437C2073.23 27.7437 2074.39 28.7052 2074.64 30.0514L2075.73 36.6539L2078.55 30.3719L2078.42 29.4744C2077.85 25.8847 2074.51 23.4488 2070.92 24.0257L2050.99 27.2309C2049.26 27.4873 2047.72 28.4488 2046.76 29.8591C2045.73 31.2693 2045.35 33.0001 2045.6 34.7309L2048.81 54.6668C2049.07 56.3975 2050.03 57.936 2051.44 58.9616C2052.53 59.795 2053.87 60.1796 2055.28 60.1796C2055.6 60.1796 2055.99 60.1796 2056.37 60.1155L2076.31 56.9103C2079.9 56.3334 2082.34 53.0001 2081.76 49.4103L2079.51 37.2309Z" fill="#C2C4C7"/>
<path d="M2103.43 46.7181L2106.37 40.1796L2105.54 34.0899C2105.41 33.3847 2105.61 32.6155 2106.05 32.0386C2106.5 31.4617 2107.14 31.077 2107.91 30.9488L2127.91 28.2565C2128.04 28.2565 2128.17 28.2565 2128.3 28.2565C2128.87 28.2565 2129.45 28.4488 2129.96 28.8335C2130.03 28.8976 2130.16 28.9617 2130.22 29.0258C2131.12 28.0642 2132.27 27.4232 2133.55 27.1668C2133.17 26.654 2132.72 26.2052 2132.21 25.8206C2130.8 24.7309 2129.07 24.2822 2127.34 24.5386L2107.27 27.2309C2105.54 27.4873 2104 28.3847 2102.98 29.7309C2101.89 31.1411 2101.44 32.8719 2101.7 34.6027L2103.43 46.7181Z" fill="#C2C4C7"/>
<path d="M2137.53 50.1156L2134.9 30.7566C2133.43 30.8207 2132.21 32.0386 2132.21 33.513V39.2181L2133.75 50.6284C2133.88 51.3335 2133.68 52.1027 2133.24 52.6797C2132.79 53.2566 2132.15 53.6412 2131.38 53.7694L2111.38 56.4617C2110.67 56.5899 2109.9 56.3976 2109.32 55.9489C2108.75 55.5002 2108.36 54.8592 2108.24 54.0899L2107.34 47.2951L2104.45 53.8335L2104.58 54.6027C2104.84 56.3335 2105.74 57.872 2107.08 58.8976C2108.24 59.7951 2109.58 60.2438 2111.06 60.2438C2111.38 60.2438 2111.63 60.2438 2111.95 60.1797L2131.95 57.4874C2133.68 57.2309 2135.22 56.3335 2136.25 54.9874C2137.27 53.5771 2137.72 51.8463 2137.53 50.1156Z" fill="#C2C4C7"/>
<path d="M2081.05 69.8591L2083.94 65.6283H2081.57C2081.44 65.6283 2081.31 65.5001 2081.31 65.3719V64.795C2081.31 64.6668 2081.44 64.5386 2081.57 64.5386H2085.41C2085.54 64.5386 2085.67 64.6668 2085.67 64.795V64.9873C2085.67 65.0514 2085.67 65.0514 2085.6 65.1155L2082.78 69.3463H2085.28C2085.41 69.3463 2085.54 69.4745 2085.54 69.6027V70.1796C2085.54 70.3078 2085.41 70.436 2085.28 70.436H2081.24C2081.12 70.436 2080.99 70.3078 2080.99 70.1796V69.9873C2080.99 69.9232 2081.05 69.8591 2081.05 69.8591Z" fill="#C2C4C7"/>
<path d="M2093.11 67.4873C2093.11 65.7565 2094.39 64.5386 2096.12 64.5386C2097.91 64.5386 2099.13 65.7565 2099.13 67.5514C2099.13 69.3463 2097.91 70.5642 2096.12 70.5642C2094.26 70.5001 2093.11 69.2822 2093.11 67.4873ZM2097.72 67.4873C2097.72 66.4617 2097.21 65.5642 2096.05 65.5642C2094.9 65.5642 2094.45 66.5258 2094.45 67.5514C2094.45 68.577 2094.96 69.4745 2096.12 69.4745C2097.27 69.4745 2097.72 68.4488 2097.72 67.4873Z" fill="#C2C4C7"/>
<path d="M2107.27 64.6028H2108.11C2108.23 64.6028 2108.36 64.731 2108.36 64.8592V66.9746H2110.8V64.8592C2110.8 64.731 2110.93 64.6028 2111.05 64.6028H2111.89C2112.02 64.6028 2112.14 64.731 2112.14 64.8592V70.2438C2112.14 70.372 2112.02 70.5002 2111.89 70.5002H2111.05C2110.93 70.5002 2110.8 70.372 2110.8 70.2438V68.0643H2108.36V70.2438C2108.36 70.372 2108.23 70.5002 2108.11 70.5002H2107.27C2107.14 70.5002 2107.02 70.372 2107.02 70.2438V64.8592C2107.02 64.6669 2107.14 64.6028 2107.27 64.6028Z" fill="#C2C4C7"/>
<path d="M2120.03 67.4873C2120.03 65.7565 2121.31 64.5386 2123.04 64.5386C2124.84 64.5386 2126.05 65.7565 2126.05 67.5514C2126.05 69.3463 2124.84 70.5642 2123.04 70.5642C2121.25 70.5001 2120.03 69.2822 2120.03 67.4873ZM2124.64 67.4873C2124.64 66.4617 2124.13 65.5642 2122.98 65.5642C2121.82 65.5642 2121.37 66.5258 2121.37 67.5514C2121.37 68.577 2121.89 69.4745 2123.04 69.4745C2124.19 69.4745 2124.64 68.4488 2124.64 67.4873Z" fill="#C2C4C7"/>
</g>
<defs>
<clipPath id="clip0_223_8007">
<rect width="170.968" height="50" fill="white" transform="translate(0.304688 20.5)"/>
</clipPath>
<clipPath id="clip1_223_8007">
<rect width="178.825" height="50" fill="white" transform="translate(291.273 20.5)"/>
</clipPath>
<clipPath id="clip2_223_8007">
<rect width="185.946" height="50" fill="white" transform="translate(1370.28 20.5)"/>
</clipPath>
<clipPath id="clip3_223_8007">
<rect width="249.123" height="50" fill="white" transform="translate(1676.23 20.5)"/>
</clipPath>
<clipPath id="clip4_223_8007">
<rect width="116.346" height="50" fill="white" transform="translate(2045.35 20.5)"/>
</clipPath>
</defs>
</svg>
