<svg width="2478" height="80" viewBox="0 0 2478 80" fill="none" xmlns="http://www.w3.org/2000/svg">
<path d="M100.431 52.3485C100.604 53.9949 101.817 55.988 104.07 55.988H105.37C105.89 55.988 106.323 55.5547 106.323 55.0348V26.352C106.323 25.832 105.89 25.4854 105.37 25.4854H101.297C100.777 25.4854 100.431 25.832 100.344 26.352V28.6916C97.8309 25.6587 93.9314 24.3589 90.0319 24.3589C81.1064 24.3589 73.9141 31.5513 73.9141 40.4767C74.0007 49.4022 81.1931 56.5946 90.1186 56.5946C94.018 56.5946 98.2641 55.1215 100.431 52.3485ZM90.1186 50.962C84.486 50.962 79.8933 46.2826 79.8933 40.4767C79.8933 34.6708 84.486 29.9915 90.1186 29.9915C95.7511 29.9915 100.344 34.6708 100.344 40.4767C100.344 46.2826 95.7511 50.962 90.1186 50.962Z" fill="#C2C4C7"/>
<path d="M166.289 52.3485C166.462 53.9949 167.676 55.988 169.929 55.988H171.229C171.748 55.988 172.182 55.5547 172.182 55.0348V26.352C172.182 25.832 171.748 25.4854 171.229 25.4854H167.242C166.722 25.4854 166.376 25.832 166.289 26.352V28.6916C163.776 25.6587 159.877 24.3589 155.977 24.3589C147.052 24.3589 139.859 31.5513 139.859 40.4767C139.859 49.4022 147.052 56.5946 155.977 56.5946C159.963 56.5946 164.209 55.1215 166.289 52.3485ZM156.064 50.962C150.431 50.962 145.839 46.2826 145.839 40.4767C145.839 34.6708 150.431 29.9915 156.064 29.9915C161.696 29.9915 166.289 34.6708 166.289 40.4767C166.289 46.2826 161.696 50.962 156.064 50.962Z" fill="#C2C4C7"/>
<path d="M240.032 52.3485C240.205 53.9949 241.419 55.988 243.672 55.988H244.971C245.491 55.988 245.925 55.5547 245.925 55.0348V26.352C245.925 25.832 245.491 25.4854 244.971 25.4854H240.899C240.379 25.4854 240.032 25.832 239.945 26.352V28.6916C237.432 25.6587 233.533 24.3589 229.633 24.3589C220.708 24.3589 213.516 31.5513 213.516 40.4767C213.516 49.4022 220.708 56.5946 229.633 56.5946C233.62 56.5946 237.866 55.1215 240.032 52.3485ZM229.72 50.962C224.088 50.962 219.495 46.2826 219.495 40.4767C219.495 34.6708 224.088 29.9915 229.72 29.9915C235.353 29.9915 239.945 34.6708 239.945 40.4767C239.945 46.2826 235.353 50.962 229.72 50.962Z" fill="#C2C4C7"/>
<path d="M208.49 53.3017V38.4837C208.49 30.0781 203.204 24.4456 194.799 24.4456C190.813 24.4456 187.087 26.7852 186.307 28.7783C186.047 27.2185 185.267 25.5721 182.667 25.5721H181.367C180.847 25.5721 180.414 26.0053 180.414 26.5253V52.4352V55.2081V55.2948C180.414 55.8147 180.847 56.1613 181.367 56.1613H184.14H185.44C185.527 56.1613 185.527 56.1613 185.613 56.1613H185.7H185.787C185.787 56.1613 185.873 56.1613 185.873 56.0747C185.873 56.0747 185.873 56.0747 185.96 56.0747L186.047 55.988L186.133 55.9014C186.22 55.7281 186.307 55.5547 186.307 55.3814V55.2948V53.475V52.9551V38.2237C186.307 33.7177 189.946 30.0781 194.452 30.0781C198.958 30.0781 202.598 33.7177 202.598 38.2237V52.4352V55.1215V55.2081C202.598 55.7281 203.031 56.0747 203.551 56.0747H206.324H207.624C207.71 56.0747 207.71 56.0747 207.797 56.0747H207.884H207.97C207.97 56.0747 208.057 56.0747 208.057 55.988C208.057 55.988 208.057 55.988 208.144 55.988L208.23 55.9014L208.317 55.8147C208.404 55.6414 208.49 55.4681 208.49 55.2948V55.2081V53.3017Z" fill="#C2C4C7"/>
<path d="M115.942 48.1891C118.629 50.0955 121.575 50.962 124.435 50.962C127.121 50.962 129.894 49.5755 129.894 47.1492C129.894 43.8563 123.828 43.423 120.015 42.1232C116.202 40.8234 112.91 38.1371 112.91 33.8043C112.91 27.1319 118.802 24.4456 124.348 24.4456C127.814 24.4456 131.454 25.5721 133.793 27.2185C134.573 27.8251 134.14 28.5183 134.14 28.5183L131.887 31.7246C131.627 32.0712 131.194 32.4178 130.587 31.9846C129.981 31.6379 127.728 29.9915 124.348 29.9915C120.968 29.9915 118.975 31.5513 118.975 33.4577C118.975 35.7974 121.575 36.4906 124.695 37.2705C130.067 38.7436 135.96 40.4768 135.96 47.0625C135.96 52.9551 130.501 56.5079 124.435 56.5079C119.842 56.5079 115.942 55.2081 112.65 52.7818C111.956 52.0885 112.476 51.4819 112.476 51.4819L114.729 48.2757C115.163 47.8424 115.682 48.0157 115.942 48.1891Z" fill="#C2C4C7"/>
<mask id="mask0_223_8008" style="mask-type:luminance" maskUnits="userSpaceOnUse" x="12" y="16" width="51" height="48">
<path d="M48.6112 27.6517C48.6112 33.7175 43.6719 38.6569 37.606 38.6569C31.5402 38.6569 26.6008 33.7175 26.6008 27.6517C26.6008 21.5858 31.5402 16.6465 37.606 16.6465C43.7585 16.6465 48.6112 21.4992 48.6112 27.6517ZM23.3079 41.3432C17.2421 41.3432 12.3027 46.2825 12.3027 52.3484C12.3027 58.4142 17.2421 63.3536 23.3079 63.3536C29.3738 63.3536 34.3131 58.4142 34.3131 52.3484C34.3131 46.2825 29.4604 41.3432 23.3079 41.3432ZM51.9041 41.3432C45.8383 41.3432 40.8989 46.2825 40.8989 52.3484C40.8989 58.4142 45.8383 63.3536 51.9041 63.3536C57.97 63.3536 62.9093 58.4142 62.9093 52.3484C62.9093 46.2825 58.0566 41.3432 51.9041 41.3432Z" fill="white"/>
</mask>
<g mask="url(#mask0_223_8008)">
<path d="M37.6066 16.1265C52.9445 16.1265 65.3362 28.5181 65.3362 43.8561C65.3362 59.1941 52.9445 71.5857 37.6066 71.5857C22.2686 71.5857 9.87695 59.1941 9.87695 43.8561C9.96361 28.5181 22.3553 16.1265 37.6066 16.1265Z" fill="#C2C4C7"/>
</g>
<g clip-path="url(#clip0_223_8008)">
<path fill-rule="evenodd" clip-rule="evenodd" d="M417.272 15H379.732C376.499 15 373.896 17.6025 373.896 20.836V58.2965C373.896 59.8738 374.527 61.3722 375.632 62.4763C376.736 63.5804 378.234 64.2114 379.811 64.2114H417.272C418.849 64.2114 420.348 63.5804 421.452 62.4763C422.556 61.3722 423.187 59.8738 423.187 58.2965V20.836C423.108 17.6025 420.505 15 417.272 15ZM395.111 50.4101C395.111 50.9621 394.874 51.4353 394.559 51.8297C394.165 52.224 393.691 52.3817 393.139 52.3817H384.937C383.833 52.3817 382.966 51.5142 382.966 50.4101V26.041C382.966 24.9369 383.833 24.0694 384.937 24.0694H393.139C394.243 24.0694 395.111 24.9369 395.111 26.041V50.4101ZM414.038 39.2114C414.038 39.7634 413.802 40.2366 413.486 40.6309C413.171 41.0252 412.619 41.183 412.067 41.183H403.865C402.761 41.183 401.893 40.3155 401.893 39.2114V26.041C401.893 24.9369 402.761 24.0694 403.865 24.0694H412.067C413.171 24.0694 414.038 24.9369 414.038 26.041V39.2114Z" fill="#C2C4C7"/>
<path d="M475.867 18.6277V28.1703H464.669V64.2113H453.785V28.0914H442.508V18.6277H475.867Z" fill="#C2C4C7"/>
<path d="M489.747 64.2114H479.652V28.7224H489.668V35.5048C491.561 30.694 494.637 27.8549 500.078 28.2492V38.7382C492.98 38.1862 489.668 39.9212 489.668 45.5994V64.2114H489.747Z" fill="#C2C4C7"/>
<path d="M555.048 64.4479C548.423 64.4479 544.322 61.2934 544.322 53.8013V15H554.417V52.4606C554.417 54.5899 555.836 55.3785 557.571 55.3785C558.045 55.3785 558.597 55.3785 559.07 55.2997V64.0536C557.729 64.3691 556.389 64.5268 555.048 64.4479Z" fill="#C2C4C7"/>
<path d="M576.104 64.4479C569.48 64.4479 565.379 61.2934 565.379 53.8013V15H575.474V52.4606C575.474 54.5899 576.893 55.3785 578.707 55.3785C579.18 55.3785 579.732 55.3785 580.205 55.2997V64.0536C578.865 64.3691 577.524 64.5268 576.104 64.4479Z" fill="#C2C4C7"/>
<path d="M585.016 46.467C585.016 35.5048 591.325 28.0127 602.208 28.0127C613.091 28.0127 619.243 35.5048 619.243 46.467C619.243 57.4291 613.012 65.0789 602.208 65.0789C591.404 65.0789 585.016 57.3502 585.016 46.467ZM594.874 46.467C594.874 51.8297 597.082 56.0095 602.208 56.0095C607.334 56.0095 609.385 51.7509 609.385 46.467C609.385 41.183 607.177 37.0032 602.208 37.0032C597.24 37.0032 594.874 41.1042 594.874 46.467Z" fill="#C2C4C7"/>
<path d="M513.723 49.6215C516.562 49.937 519.402 50.0947 522.162 50.0947C529.89 50.0947 536.357 48.0443 536.357 40.5521C536.357 33.2966 529.654 27.855 521.61 27.855C510.805 27.855 503.865 35.6626 503.865 46.7036C503.865 58.06 509.859 64.8424 523.345 64.8424C527.367 64.8424 531.31 64.1326 535.096 62.713V54.2745C531.625 55.3786 527.761 56.4827 523.739 56.4827C518.376 56.5616 514.591 54.7477 513.723 49.6215ZM521.452 35.6626C524.291 35.6626 526.578 37.6342 526.578 40.2367C526.578 43.6279 522.95 44.732 518.849 44.732C517.114 44.732 515.301 44.5742 513.566 44.3376C513.723 42.6815 514.196 41.1042 514.985 39.6058C516.247 37.2398 518.771 35.7414 521.452 35.6626Z" fill="#C2C4C7"/>
</g>
<g clip-path="url(#clip1_223_8008)">
<path d="M744.94 54.52C743.927 54.5222 742.933 54.2557 742.058 53.7478C741.182 53.2398 740.457 52.5085 739.957 51.6287C739.464 50.7551 739.219 49.7639 739.246 48.7614C739.274 47.7588 739.574 46.7826 740.113 45.9374L750.374 29.8244C750.9 28.9584 751.645 28.2473 752.535 27.7638C753.425 27.2803 754.427 27.0416 755.44 27.0722C756.451 27.0964 757.438 27.389 758.299 27.9199C759.161 28.4509 759.866 29.2011 760.342 30.0939C761.298 31.9026 761.179 34.0787 760.033 35.7765L749.779 51.8896C749.259 52.6999 748.543 53.3658 747.697 53.8257C746.851 54.2855 745.902 54.5243 744.94 54.52Z" fill="#C2C4C7"/>
<path d="M762.541 54.5196C760.471 54.5196 758.567 53.413 757.567 51.6348C757.075 50.7635 756.83 49.775 756.858 48.775C756.885 47.7751 757.184 46.8015 757.723 45.9587L767.964 29.8826C768.482 29.0044 769.225 28.2807 770.116 27.7864C771.008 27.2922 772.015 27.0454 773.034 27.0717C775.121 27.1174 777.012 28.2848 777.969 30.1109C778.919 31.9369 778.78 34.1261 777.599 35.8196L767.36 51.8956C766.842 52.7025 766.128 53.3658 765.286 53.8244C764.444 54.283 763.5 54.5221 762.541 54.5196Z" fill="#C2C4C7"/>
<path d="M779.746 54.6543C782.663 54.6543 785.028 52.3388 785.028 49.4825C785.028 46.6263 782.663 44.3108 779.746 44.3108C776.828 44.3108 774.463 46.6263 774.463 49.4825C774.463 52.3388 776.828 54.6543 779.746 54.6543Z" fill="#C2C4C7"/>
<path d="M1009.24 44.6109C1010.83 44.6109 1011.79 45.7457 1011.79 47.6044V53.974H1013.96V47.4588C1013.96 44.2979 1012.47 42.4653 1009.67 42.4653C1008.57 42.4653 1006.83 42.7653 1005.79 44.7805C1005.55 44.1861 1005.16 43.6681 1004.64 43.2815C1004.13 42.8949 1003.53 42.6541 1002.89 42.5849C1002.49 42.5114 1002.08 42.4873 1001.67 42.5131C1000.78 42.5849 999.193 43.1392 998.599 44.3957V42.7066H996.43V53.974H998.599V47.8935C998.599 45.5283 1000.15 44.6109 1001.7 44.6109C1003.15 44.6109 1004.1 45.7218 1004.1 47.5805V53.974H1006.26V47.8935C1006.26 46.0109 1007.39 44.5892 1009.24 44.6109ZM988.467 52.0914C989.458 52.1131 990.414 51.7175 991.108 51.0001C991.804 50.2827 992.173 49.3066 992.136 48.3044C992.136 46.0349 990.467 44.6109 988.467 44.6109C986.464 44.6109 984.797 46.0349 984.797 48.3044C984.758 49.3044 985.127 50.2783 985.819 50.9935C986.51 51.7109 987.462 52.1088 988.449 52.0914H988.467ZM988.467 54.2044C985.297 54.2044 982.651 51.8631 982.651 48.2914C982.651 44.7196 985.297 42.4522 988.467 42.4522C991.636 42.4522 994.304 44.7196 994.304 48.2914C994.304 51.8631 991.621 54.2153 988.451 54.2153L988.467 54.2044ZM971.488 48.2914L971.467 48.3044C971.467 44.7327 974.182 42.4653 977.373 42.4522C978.175 42.4367 978.971 42.5897 979.71 42.9013C980.448 43.2128 981.114 43.6761 981.662 44.2609L980.019 45.6609C979.67 45.3182 979.256 45.0479 978.802 44.8658C978.348 44.6838 977.862 44.5934 977.373 44.6001C975.373 44.6001 973.634 46.024 973.634 48.2914C973.634 49.824 974.545 51.2044 975.943 51.7914C977.34 52.3783 978.949 52.0522 980.019 50.9696L981.686 52.3696C981.136 52.9605 980.468 53.4292 979.725 53.7453C978.982 54.0614 978.18 54.2178 977.373 54.2044C974.206 54.2044 971.488 51.8631 971.488 48.2914ZM964.547 51.8109C964.545 51.614 964.581 51.4184 964.654 51.2356C964.728 51.0527 964.836 50.8861 964.974 50.7452C965.112 50.6042 965.276 50.4918 965.457 50.4144C965.638 50.3369 965.833 50.2958 966.03 50.2935C966.227 50.2958 966.421 50.3369 966.602 50.4144C966.783 50.4918 966.948 50.6042 967.085 50.7452C967.223 50.8861 967.331 51.0527 967.405 51.2356C967.478 51.4184 967.514 51.614 967.512 51.8109C967.493 52.1924 967.329 52.5522 967.053 52.8168C966.778 53.0814 966.412 53.2309 966.03 53.2349C965.648 53.2309 965.282 53.0814 965.006 52.8168C964.731 52.5522 964.566 52.1924 964.547 51.8109Z" fill="#C2C4C7"/>
<path fill-rule="evenodd" clip-rule="evenodd" d="M970.477 28.3826H962.757L957.346 42.3326L951.964 28.3826H944.244L953.629 50.4261L947.792 65H955.455L970.477 28.3826ZM923.529 40.6435C923.529 44.1652 926.607 46.4826 929.631 46.4826C932.603 46.4826 935.522 44.3261 935.522 40.6413C935.522 36.9565 932.603 34.7978 929.631 34.7978C926.607 34.7978 923.529 37.1196 923.529 40.6435ZM935.522 52.9522V50.163C933.957 52.5326 930.305 53.4283 928.431 53.4283C922.227 53.4283 916.02 48.537 916.02 40.6413C916.02 32.7478 922.225 27.8565 928.431 27.8565C929.994 27.8565 933.646 28.3783 935.522 31.1174V28.3913H942.718V52.9565L935.522 52.9522ZM913.972 52.9522H906.777V49.9C905.575 52.1609 902.659 53.4783 899.633 53.4783C893.375 53.4783 887.846 48.4804 887.846 40.7413C887.846 32.8565 893.375 27.8522 899.633 27.8522C902.655 27.8522 905.579 29.113 906.777 31.3761V15H913.972V52.9522ZM906.62 40.587C906.62 36.9043 903.962 34.7457 900.99 34.7457C897.912 34.7457 895.355 37.0609 895.355 40.587C895.355 44.2261 897.912 46.5304 900.988 46.5304C904.016 46.5348 906.62 44.113 906.62 40.587ZM870.055 39.9522C870.055 36.2174 871.986 34.9543 874.54 34.9543C876.99 34.9543 878.764 36.5848 878.764 39.8457V52.9478H886.012V38.2696C886.012 31.2739 882.568 27.8522 877.092 27.8522C874.225 27.8522 871.357 29.4826 870.053 31.9565V28.3826H862.809V52.9478H870.055V39.9522ZM848.092 53.3696C841.209 53.3696 835.468 48.3196 835.468 40.5848C835.468 32.8457 841.203 27.8457 848.092 27.8457C854.981 27.8457 860.766 32.8457 860.766 40.5848C860.766 48.3239 854.975 53.3696 848.092 53.3696ZM848.092 46.2174C851.114 46.2174 853.62 44.0043 853.62 40.587C853.62 37.2717 851.116 35.0087 848.092 35.0087C847.364 34.9973 846.641 35.1342 845.968 35.4112C845.294 35.6881 844.684 36.0993 844.175 36.6196C843.662 37.1426 843.26 37.7634 842.992 38.445C842.725 39.1265 842.597 39.8549 842.616 40.587C842.618 44.0087 845.12 46.2174 848.092 46.2174ZM822.475 34.9565C824.612 34.9565 826.49 36.6413 826.49 39.8478V52.9522H833.686V39C833.686 31.5826 830.079 27.8478 824.299 27.8478C822.581 27.8478 819.346 28.3696 816.999 32.213C815.642 29.3717 813.036 27.8978 809.183 27.8978C807.846 27.891 806.535 28.2695 805.407 28.9881C804.279 29.7067 803.382 30.735 802.822 31.95V28.3848H795.57V52.95H802.816V39.9522C802.816 36.2174 804.851 34.9543 807.04 34.9543C809.127 34.9543 811.001 36.5848 811.055 39.6891V52.95H818.303V39.9522C818.303 36.3804 820.181 34.9565 822.475 34.9565Z" fill="#C2C4C7"/>
</g>
<path d="M1354.3 19.102C1348.44 19.102 1345.59 22.5538 1345.59 27.6383V30.6243H1341.16V34.9756H1345.61V57.98H1350.21V34.9756H1357.26V30.6243H1350.21L1350.16 27.7753C1350.16 25.3137 1351.62 23.6158 1354.52 23.6158C1355.51 23.6118 1356.5 23.7052 1357.47 23.8904V19.5375C1356.44 19.2434 1355.37 19.096 1354.3 19.102ZM1216.87 20.1169C1216.1 20.145 1215.36 20.4631 1214.82 21.015C1214.18 21.6433 1213.86 22.5169 1213.92 23.4046C1213.92 24.5784 1214.55 25.6641 1215.56 26.2498C1216.58 26.8379 1217.83 26.8379 1218.85 26.2498C1219.86 25.6641 1220.49 24.5784 1220.49 23.4046C1220.55 22.5169 1220.23 21.6433 1219.6 21.015C1218.97 20.3843 1218.09 20.0592 1217.21 20.1231C1217.09 20.1152 1216.98 20.1129 1216.87 20.1169ZM1295.35 21.4908C1286.97 21.4908 1282.7 25.6312 1282.7 31.2261C1282.7 37.134 1286.33 39.9242 1294.41 41.8952C1301.25 43.5369 1303.22 45.2273 1303.22 48.4048C1303.22 51.5822 1301.18 53.7153 1295.76 53.7153C1291.01 53.7153 1285.86 52.4582 1282.53 50.7061V55.7366C1285.32 57.16 1288.54 58.5269 1295.49 58.5269C1304.42 58.5269 1308.13 54.3111 1308.17 48.076C1308.17 41.5973 1303.9 39.1602 1296.3 37.2437C1289.96 35.66 1287.65 34.1793 1287.65 31.2261C1287.65 27.9442 1290.45 26.3024 1295.15 26.3024C1299.06 26.2073 1302.92 27.1507 1306.34 29.0385V24.1132C1303.88 22.7343 1300.54 21.4908 1295.35 21.4908ZM1203.31 22.0431L1203.32 47.3659C1203.32 50.9537 1201.88 53.4407 1197.73 53.4407C1195.99 53.4542 1194.26 53.1373 1192.64 52.5085V57.2946C1194.54 57.9427 1196.54 58.2578 1198.55 58.2291C1205.34 58.2291 1208.23 53.6588 1208.23 47.0371V22.0431H1203.31ZM1364.25 24.8225V30.6475H1359.81V35.0011H1364.26V49.4375C1364.26 54.5294 1367.11 57.9738 1372.97 57.9738C1374.04 57.9797 1375.11 57.8324 1376.14 57.5383V52.9998C1375.17 53.226 1374.18 53.3558 1373.19 53.385C1370.29 53.385 1368.87 51.7445 1368.84 49.3369V34.9756H1376.12V30.6243H1368.84V24.8225H1364.25ZM1486.44 30.058C1478.12 30.058 1473.53 35.9635 1473.53 44.2275C1473.53 52.6206 1478.01 58.5269 1488.25 58.5269C1491.04 58.5269 1494.49 58.1036 1496.73 56.8931V52.5395C1494.07 53.5158 1491.25 54.0173 1488.41 54.0193C1481.96 54.0193 1478.95 51.01 1478.29 46.3587H1498.26V44.2275C1498.26 35.9136 1494.87 30.058 1486.44 30.058ZM1254.24 30.0774C1246.58 30.0774 1242.75 36.5867 1242.75 44.3011C1242.75 52.3462 1246.42 58.527 1253.69 58.527C1257.9 58.527 1261.19 56.6689 1262.94 53.0563L1262.95 57.9801H1267.65V30.6244H1262.95V35.4359C1261.3 31.8793 1258.23 30.0774 1254.24 30.0774ZM1325.31 30.0774C1317.11 30.0774 1312.29 36.0398 1312.29 44.2453C1312.29 52.4528 1317.16 58.5463 1325.31 58.5463C1333.47 58.5463 1338.23 52.4528 1338.23 44.2453C1338.23 36.0398 1333.52 30.0774 1325.31 30.0774ZM1436.87 30.0774C1429.21 30.0774 1425.38 36.5867 1425.38 44.3011C1425.38 52.3462 1429.05 58.527 1436.32 58.527C1440.53 58.527 1443.82 56.6689 1445.57 53.0563L1445.58 57.9801H1450.28V30.6244H1445.58V35.4359C1443.93 31.8793 1440.86 30.0774 1436.87 30.0774ZM1239.92 30.2066C1235.22 30.2003 1232.69 32.4097 1231.21 35.4359V30.6244H1226.61V57.9986H1231.21V41.8334C1231.21 36.0394 1234.88 34.2117 1240.89 34.8326V30.2376C1240.56 30.217 1240.24 30.207 1239.92 30.2066ZM1470.7 30.2066C1465.99 30.2003 1463.47 32.4097 1461.98 35.4359V30.6244H1457.39V57.9986H1461.98V41.8334C1461.98 36.0394 1465.65 34.2117 1471.67 34.8326V30.2376C1471.34 30.217 1471.01 30.207 1470.7 30.2066ZM1377.46 30.6244L1387.52 57.9801H1393.54L1398.31 44.7443L1400.8 36.3178L1403.28 44.7443L1407.99 57.9801H1414.01L1424.08 30.6244H1418.88L1410.99 53.8198L1403 30.6244H1398.52L1390.53 53.8198L1382.66 30.6244H1377.46ZM1214.8 30.6307V57.9856H1219.5V30.6307H1214.8ZM1486.21 34.3725C1490.91 34.3725 1493.21 37.2751 1493.49 42.3611H1478.24V42.331C1478.73 37.5871 1481.25 34.3477 1486.21 34.3725ZM1255.48 34.4289C1259.5 34.4289 1262.94 37.1092 1262.94 43.1834V45.3958C1262.94 51.4675 1259.17 54.1484 1254.96 54.151C1250.08 54.151 1247.46 50.8667 1247.43 44.2757C1247.43 37.9287 1250.17 34.4289 1255.48 34.4289ZM1438.11 34.4289C1442.13 34.4289 1445.57 37.1092 1445.57 43.1834V45.3958C1445.57 51.4667 1441.8 54.1477 1437.59 54.151C1432.71 54.151 1430.07 50.867 1430.07 44.3012C1430.07 37.9542 1432.82 34.4789 1438.11 34.4289ZM1325.31 34.4784C1331.11 34.4784 1333.63 39.0491 1333.63 44.2455C1333.63 49.4439 1331.16 54.151 1325.31 54.151C1319.46 54.151 1316.89 49.4439 1316.89 44.2455H1316.91C1316.91 39.0491 1319.51 34.4784 1325.31 34.4784Z" fill="#C2C4C7"/>
<path d="M1180.38 38.6815L1160.11 18.4118L1158.14 16.4487L1135.91 38.6815C1135.19 39.4102 1135.19 40.59 1135.91 41.3173L1149.85 55.2569L1158.14 63.5515L1180.38 41.3173C1181.11 40.59 1181.11 39.4102 1180.38 38.6815ZM1158.14 46.9622L1151.18 40.0004L1158.14 33.036L1165.11 40.0004L1158.14 46.9622Z" fill="#C2C4C7"/>
<path d="M1158.14 33.036C1153.58 28.4758 1153.56 21.0901 1158.09 16.5032L1142.86 31.7364L1151.15 40.0311L1158.14 33.036Z" fill="#C2C4C7"/>
<path d="M1165.13 39.9805L1158.14 46.9621C1160.35 49.1608 1161.58 52.1452 1161.58 55.2568C1161.58 58.3684 1160.35 61.3507 1158.14 63.5514L1173.42 48.2751L1165.13 39.9805Z" fill="#C2C4C7"/>
<g clip-path="url(#clip2_223_8008)">
<path fill-rule="evenodd" clip-rule="evenodd" d="M1620.46 56.3828L1630.59 48.6289C1635.96 55.6473 1641.67 58.8816 1648.03 58.8816C1654.36 58.8816 1659.91 55.6846 1665.05 48.7217L1675.31 56.29C1667.91 66.3291 1658.7 71.633 1648.03 71.633C1637.41 71.633 1628.11 66.3664 1620.46 56.3828Z" fill="#C2C4C7"/>
<path fill-rule="evenodd" clip-rule="evenodd" d="M1648 22.6831L1629.98 38.2086L1621.66 28.5487L1648.03 5.81982L1674.21 28.5664L1665.84 38.1909L1648 22.6831Z" fill="#C2C4C7"/>
<path d="M1744.41 18.927H1734.21V61.4319H1744.41V18.927Z" fill="#C2C4C7"/>
<path fill-rule="evenodd" clip-rule="evenodd" d="M1713.59 61.6194C1707.58 61.6194 1702.57 59.6706 1698.5 55.7729C1694.44 51.8195 1692.43 46.7525 1692.43 40.5718C1692.43 34.3355 1694.49 29.2128 1698.56 25.2038C1702.68 21.139 1707.69 19.1345 1713.65 19.1345C1721 19.1345 1727.51 22.3083 1731.3 27.264L1724.67 34.2242C1721.5 30.8276 1718.05 29.1015 1714.32 29.1015C1711.14 29.1015 1708.53 30.1594 1706.35 32.331C1704.24 34.5026 1703.18 37.231 1703.18 40.5162C1703.18 43.69 1704.24 46.3627 1706.35 48.5343C1708.53 50.6502 1711.14 51.7081 1714.26 51.7081C1718.33 51.7081 1721.89 49.9263 1724.84 46.4184L1731.74 53.0445C1729.85 55.5501 1727.29 57.6103 1724.12 59.2251C1720.94 60.8399 1717.43 61.6194 1713.59 61.6194Z" fill="#C2C4C7"/>
<path fill-rule="evenodd" clip-rule="evenodd" d="M1759.71 22.3274C1759.71 25.3792 1757.24 27.8531 1754.19 27.8531C1751.13 27.8531 1748.66 25.3792 1748.66 22.3274C1748.66 19.2757 1751.13 16.8018 1754.19 16.8018C1757.24 16.8018 1759.71 19.2757 1759.71 22.3274ZM1759.29 30.4033H1749.09V61.4319H1759.29V30.4033Z" fill="#C2C4C7"/>
<path fill-rule="evenodd" clip-rule="evenodd" d="M1779 61.675C1774.16 61.675 1770.26 60.1716 1767.2 57.1648C1764.19 54.158 1762.69 50.316 1762.69 45.5831C1762.69 40.8502 1764.19 37.0081 1767.25 34.0014C1770.32 30.9946 1774.27 29.4912 1779.17 29.4912C1785.57 29.4912 1791.2 32.6093 1793.81 38.4559L1785.96 42.5763C1784.4 39.9593 1782.23 38.6229 1779.39 38.6229C1777.33 38.6229 1775.66 39.2911 1774.33 40.6274C1773.04 41.9638 1772.38 43.6342 1772.38 45.5831C1772.38 49.6478 1775.33 52.6546 1779.28 52.6546C1782.12 52.6546 1784.74 51.0955 1785.85 48.7012L1793.7 53.3785C1791.03 58.5012 1785.52 61.675 1779 61.675Z" fill="#C2C4C7"/>
<path fill-rule="evenodd" clip-rule="evenodd" d="M1806.47 18.927H1796.27V61.4318H1806.47V50.6112L1807.66 49.4965L1816.99 61.4318H1828.85L1814.53 43.0947L1828.14 30.4032H1815.67L1806.47 38.9876V18.927Z" fill="#C2C4C7"/>
<path fill-rule="evenodd" clip-rule="evenodd" d="M1830.7 45.3701V18.927H1841.32V44.778C1841.32 49.3996 1844.02 51.6268 1847.91 51.6268C1851.75 51.6268 1854.5 49.2882 1854.5 44.778V18.927H1865.12V45.3701C1865.12 57.5086 1856.6 62.0745 1847.91 62.0745C1839.27 62.0745 1830.7 57.5086 1830.7 45.3701Z" fill="#C2C4C7"/>
<path fill-rule="evenodd" clip-rule="evenodd" d="M1888.08 62.282C1896.29 62.282 1902.95 55.0506 1902.95 46.1301C1902.95 37.2097 1896.29 29.9783 1888.08 29.9783C1884.73 29.9783 1881.64 31.1798 1879.15 33.2073V30.4034H1869.38V74.1834H1879.15V59.053C1881.64 61.0805 1884.73 62.282 1888.08 62.282ZM1879.15 46.1467V46.1135C1879.16 42.1304 1882.3 38.9043 1886.16 38.9043C1890.04 38.9043 1893.18 42.1394 1893.18 46.1301C1893.18 50.1208 1890.04 53.3559 1886.16 53.3559C1882.3 53.3559 1879.16 50.1298 1879.15 46.1467Z" fill="#C2C4C7"/>
</g>
<g clip-path="url(#clip3_223_8008)">
<mask id="mask1_223_8008" style="mask-type:luminance" maskUnits="userSpaceOnUse" x="2023" y="15" width="251" height="50">
<path d="M2273.67 15H2023.67V65H2273.67V15Z" fill="white"/>
</mask>
<g mask="url(#mask1_223_8008)">
<path d="M2180.76 58.4309V45.9907C2180.76 38.4739 2187.37 38.6057 2190.83 39.1771V30.6932C2185.32 30.2096 2182.03 31.7482 2180.54 34.7374H2180.37L2180.41 30.8251H2172.75V58.4309H2180.76Z" fill="#C2C4C7"/>
<path d="M2214.12 58.4308H2219.12L2227.35 48.0126L2234.31 58.4308H2243.59L2232.65 42.4299L2242.23 30.781H2233L2222.05 44.6719H2221.87L2221.96 16.978H2214.12V58.4308Z" fill="#C2C4C7"/>
<path d="M2124.15 58.4308H2130.32L2139.78 40.6718L2148.93 58.4308H2155.19L2169.24 30.781H2159.92L2151.29 48.4083L2143.11 30.781H2136.41L2127.78 48.4963L2119.6 30.781H2110.27L2124.15 58.4308Z" fill="#C2C4C7"/>
<path d="M2201.47 26.8247C2204.18 26.8247 2206.37 24.6205 2206.37 21.9014C2206.37 19.1823 2204.18 16.978 2201.47 16.978C2198.76 16.978 2196.57 19.1823 2196.57 21.9014C2196.57 24.6205 2198.76 26.8247 2201.47 26.8247Z" fill="#C2C4C7"/>
<path d="M2205.41 30.781H2197.53V58.4308H2205.41V30.781Z" fill="#C2C4C7"/>
<path d="M2265.96 49.2437C2265 50.6944 2262.98 52.4967 2259.61 52.4967C2255.67 52.4967 2252.87 50.2107 2252.26 46.9139H2273.67C2273.67 46.3423 2273.67 45.5073 2273.67 44.716C2273.67 36.7155 2267.93 30.2976 2259.44 30.2976C2251.12 30.2976 2244.68 36.6276 2244.68 44.716C2244.68 52.7603 2250.99 59.1344 2259.44 59.1344C2265.74 59.1344 2269.55 56.6287 2272 53.4198L2265.96 49.2437ZM2259 36.4957C2262.63 36.4957 2265.17 38.5178 2266.05 41.4192H2251.91C2252.78 38.5178 2255.28 36.4957 2259 36.4957Z" fill="#C2C4C7"/>
<path d="M2042.14 33.1548C2045.95 33.1548 2047.75 33.8581 2050.51 36.6275L2065.31 51.4854C2065.74 51.9249 2065.83 52.1009 2065.92 52.3647C2065.96 52.4524 2065.96 52.5845 2065.96 52.6724C2065.96 52.7602 2065.96 52.8922 2065.92 52.9799C2065.83 53.2438 2065.74 53.4197 2065.31 53.8593L2055.19 64.0577C2054.75 64.4972 2054.58 64.5852 2054.32 64.6729C2054.23 64.717 2054.1 64.717 2054.01 64.717C2053.92 64.717 2053.79 64.717 2053.7 64.6729C2053.44 64.5852 2053.26 64.4972 2052.83 64.0577L2024.15 35.2648C2023.32 34.4296 2023.62 33.1548 2025.03 33.1548H2042.14Z" fill="#C2C4C7"/>
<path d="M2083.91 15C2080.1 15 2078.31 15.7033 2075.55 18.4727L2060.75 33.3307C2060.31 33.7703 2060.23 33.9461 2060.14 34.2098C2060.09 34.2978 2060.09 34.4296 2060.09 34.5175C2060.09 34.6055 2060.09 34.7373 2060.14 34.8253C2060.23 35.089 2060.31 35.2648 2060.75 35.7044L2070.86 45.8589C2071.3 46.2984 2071.48 46.3864 2071.74 46.4743C2071.83 46.5182 2071.96 46.5182 2072.05 46.5182C2072.13 46.5182 2072.27 46.5182 2072.35 46.4743C2072.62 46.3864 2072.79 46.2984 2073.23 45.8589L2101.91 17.066C2102.74 16.2308 2102.43 15 2101.03 15L2083.91 15Z" fill="#C2C4C7"/>
</g>
</g>
<g clip-path="url(#clip4_223_8008)">
<path fill-rule="evenodd" clip-rule="evenodd" d="M2442.75 0.181333L2398.48 3.45093C2394.91 3.75973 2393.67 6.09333 2393.67 8.89013V57.4181C2393.67 59.5965 2394.44 61.4605 2396.31 63.9517L2406.71 77.4821C2408.42 79.6605 2409.98 80.1277 2413.24 79.9725L2464.65 76.8605C2468.99 76.5509 2470.24 74.5269 2470.24 71.1061V16.5117C2470.24 14.7437 2469.54 14.2341 2467.48 12.7253L2453 2.51413C2449.58 0.0285334 2448.19 -0.285867 2442.75 0.180533V0.181333ZM2414.4 15.6181C2410.21 15.9005 2409.25 15.9645 2406.87 14.0261L2400.81 9.20533C2400.19 8.58133 2400.5 7.80293 2402.06 7.64773L2444.61 4.53813C2448.18 4.22613 2450.04 5.47173 2451.44 6.55973L2458.74 11.8477C2459.05 12.0053 2459.83 12.9357 2458.89 12.9357L2414.95 15.5813L2414.4 15.6181ZM2409.51 70.6397V24.2933C2409.51 22.2693 2410.13 21.3357 2411.99 21.1789L2462.47 18.2237C2464.18 18.0693 2464.95 19.1573 2464.95 21.1781V67.2157C2464.95 69.2397 2464.64 70.9517 2461.85 71.1061L2413.55 73.9061C2410.75 74.0605 2409.51 73.1301 2409.51 70.6397H2409.51ZM2457.19 26.7781C2457.5 28.1781 2457.19 29.5781 2455.79 29.7381L2453.46 30.1997V64.4181C2451.44 65.5061 2449.58 66.1277 2448.02 66.1277C2445.54 66.1277 2444.92 65.3493 2443.06 63.0181L2427.83 39.0661V62.2397L2432.65 63.3301C2432.65 63.3301 2432.65 66.1301 2428.76 66.1301L2418.05 66.7517C2417.74 66.1277 2418.05 64.5733 2419.14 64.2637L2421.93 63.4877V32.8477L2418.05 32.5333C2417.74 31.1333 2418.52 29.1117 2420.69 28.9549L2432.19 28.1813L2448.03 52.4429V30.9789L2443.99 30.5149C2443.68 28.8005 2444.92 27.5549 2446.47 27.4029L2457.19 26.7781Z" fill="#C2C4C7"/>
</g>
<defs>
<clipPath id="clip0_223_8008">
<rect width="245.347" height="50" fill="white" transform="translate(373.896 15)"/>
</clipPath>
<clipPath id="clip1_223_8008">
<rect width="274.711" height="50" fill="white" transform="translate(739.244 15)"/>
</clipPath>
<clipPath id="clip2_223_8008">
<rect width="284" height="69" fill="white" transform="translate(1619.67 5.5)"/>
</clipPath>
<clipPath id="clip3_223_8008">
<rect width="250" height="50" fill="white" transform="translate(2023.67 15)"/>
</clipPath>
<clipPath id="clip4_223_8008">
<rect width="80" height="80" fill="white" transform="translate(2393.67)"/>
</clipPath>
</defs>
</svg>
