<svg width="96" height="96" viewBox="0 0 96 96" fill="none" xmlns="http://www.w3.org/2000/svg">
<g clip-path="url(#clip0_223_8461)">
<g filter="url(#filter0_dddiiif_223_8461)">
<path fill-rule="evenodd" clip-rule="evenodd" d="M76.327 11.0391C81.2081 13.4796 85.9615 17.694 85.9615 23.7037V72.2963C85.9615 78.306 81.2081 82.5204 76.327 84.9609C71.1735 87.5377 64.3728 89 57.1097 89C49.8465 89 43.0458 87.5377 37.8923 84.9609C33.0112 82.5204 28.2578 78.306 28.2578 72.2963V23.7037C28.2578 17.694 33.0112 13.4796 37.8923 11.0391C43.0458 8.46229 49.8465 7 57.1097 7C64.3728 7 71.1735 8.46229 76.327 11.0391Z" fill="white" fill-opacity="0.01" shape-rendering="crispEdges"/>
</g>
<path fill-rule="evenodd" clip-rule="evenodd" d="M75.6588 12.3806C80.3806 14.7415 84.4579 18.5652 84.4579 23.6923V72.3077C84.4579 77.4348 80.3806 81.2585 75.6588 83.6194C70.7552 86.0712 64.1936 87.5 57.1118 87.5C50.03 87.5 43.4684 86.0712 38.5648 83.6194C33.843 81.2585 29.7656 77.4348 29.7656 72.3077V23.6923C29.7656 18.5652 33.843 14.7415 38.5648 12.3806C43.4684 9.92877 50.03 8.5 57.1118 8.5C64.1936 8.5 70.7552 9.92877 75.6588 12.3806Z" fill="url(#paint0_radial_223_8461)"/>
<path d="M81.409 54.0741C81.409 47.3648 70.5312 41.9259 57.1127 41.9259C43.6942 41.9259 32.8164 47.3648 32.8164 54.0741C32.8164 61.3468 32.8164 65.0236 32.8164 72.2963C32.8164 79.0055 43.6942 84.4445 57.1127 84.4445C70.5312 84.4445 81.409 79.0055 81.409 72.2963C81.409 65.0236 81.409 61.3468 81.409 54.0741Z" fill="url(#paint1_linear_223_8461)"/>
<ellipse cx="57.1127" cy="54.0741" rx="24.2963" ry="12.1481" fill="url(#paint2_linear_223_8461)"/>
<g filter="url(#filter1_dd_223_8461)">
<path d="M58.6278 37.3704C58.6278 30.6611 47.7499 25.2222 34.3315 25.2222C20.913 25.2222 10.0352 30.6611 10.0352 37.3704C10.0352 44.6431 10.0352 48.3198 10.0352 55.5926C10.0352 62.3018 20.913 67.7407 34.3315 67.7407C47.7499 67.7407 58.6278 62.3018 58.6278 55.5926C58.6278 48.3198 58.6278 44.6431 58.6278 37.3704Z" fill="url(#paint3_radial_223_8461)"/>
</g>
<ellipse cx="34.3315" cy="37.3704" rx="24.2963" ry="12.1481" fill="url(#paint4_linear_223_8461)"/>
</g>
<defs>
<filter id="filter0_dddiiif_223_8461" x="20.2578" y="-1" width="73.7031" height="100" filterUnits="userSpaceOnUse" color-interpolation-filters="sRGB">
<feFlood flood-opacity="0" result="BackgroundImageFix"/>
<feColorMatrix in="SourceAlpha" type="matrix" values="0 0 0 0 0 0 0 0 0 0 0 0 0 0 0 0 0 0 127 0" result="hardAlpha"/>
<feOffset dx="-2" dy="2"/>
<feGaussianBlur stdDeviation="3"/>
<feComposite in2="hardAlpha" operator="out"/>
<feColorMatrix type="matrix" values="0 0 0 0 0 0 0 0 0 0 0 0 0 0 0 0 0 0 0.14 0"/>
<feBlend mode="normal" in2="BackgroundImageFix" result="effect1_dropShadow_223_8461"/>
<feColorMatrix in="SourceAlpha" type="matrix" values="0 0 0 0 0 0 0 0 0 0 0 0 0 0 0 0 0 0 127 0" result="hardAlpha"/>
<feOffset dx="-2" dy="4"/>
<feGaussianBlur stdDeviation="3"/>
<feComposite in2="hardAlpha" operator="out"/>
<feColorMatrix type="matrix" values="0 0 0 0 0 0 0 0 0 0 0 0 0 0 0 0 0 0 0.08 0"/>
<feBlend mode="normal" in2="effect1_dropShadow_223_8461" result="effect2_dropShadow_223_8461"/>
<feColorMatrix in="SourceAlpha" type="matrix" values="0 0 0 0 0 0 0 0 0 0 0 0 0 0 0 0 0 0 127 0" result="hardAlpha"/>
<feOffset dx="2" dy="-2"/>
<feGaussianBlur stdDeviation="3"/>
<feComposite in2="hardAlpha" operator="out"/>
<feColorMatrix type="matrix" values="0 0 0 0 1 0 0 0 0 1 0 0 0 0 1 0 0 0 0.85 0"/>
<feBlend mode="normal" in2="effect2_dropShadow_223_8461" result="effect3_dropShadow_223_8461"/>
<feBlend mode="normal" in="SourceGraphic" in2="effect3_dropShadow_223_8461" result="shape"/>
<feColorMatrix in="SourceAlpha" type="matrix" values="0 0 0 0 0 0 0 0 0 0 0 0 0 0 0 0 0 0 127 0" result="hardAlpha"/>
<feOffset dx="-2" dy="4"/>
<feGaussianBlur stdDeviation="4"/>
<feComposite in2="hardAlpha" operator="arithmetic" k2="-1" k3="1"/>
<feColorMatrix type="matrix" values="0 0 0 0 0 0 0 0 0 0 0 0 0 0 0 0 0 0 0.12 0"/>
<feBlend mode="normal" in2="shape" result="effect4_innerShadow_223_8461"/>
<feColorMatrix in="SourceAlpha" type="matrix" values="0 0 0 0 0 0 0 0 0 0 0 0 0 0 0 0 0 0 127 0" result="hardAlpha"/>
<feOffset dx="-2" dy="4"/>
<feGaussianBlur stdDeviation="3"/>
<feComposite in2="hardAlpha" operator="arithmetic" k2="-1" k3="1"/>
<feColorMatrix type="matrix" values="0 0 0 0 0 0 0 0 0 0 0 0 0 0 0 0 0 0 0.08 0"/>
<feBlend mode="normal" in2="effect4_innerShadow_223_8461" result="effect5_innerShadow_223_8461"/>
<feColorMatrix in="SourceAlpha" type="matrix" values="0 0 0 0 0 0 0 0 0 0 0 0 0 0 0 0 0 0 127 0" result="hardAlpha"/>
<feOffset dx="5" dy="-5"/>
<feGaussianBlur stdDeviation="5"/>
<feComposite in2="hardAlpha" operator="arithmetic" k2="-1" k3="1"/>
<feColorMatrix type="matrix" values="0 0 0 0 1 0 0 0 0 1 0 0 0 0 1 0 0 0 0.65 0"/>
<feBlend mode="normal" in2="effect5_innerShadow_223_8461" result="effect6_innerShadow_223_8461"/>
<feGaussianBlur stdDeviation="0.1875" result="effect7_foregroundBlur_223_8461"/>
</filter>
<filter id="filter1_dd_223_8461" x="3.03516" y="23.2222" width="58.5938" height="52.5185" filterUnits="userSpaceOnUse" color-interpolation-filters="sRGB">
<feFlood flood-opacity="0" result="BackgroundImageFix"/>
<feColorMatrix in="SourceAlpha" type="matrix" values="0 0 0 0 0 0 0 0 0 0 0 0 0 0 0 0 0 0 127 0" result="hardAlpha"/>
<feOffset dx="-2" dy="3"/>
<feGaussianBlur stdDeviation="2.5"/>
<feColorMatrix type="matrix" values="0 0 0 0 0 0 0 0 0 0 0 0 0 0 0 0 0 0 0.24 0"/>
<feBlend mode="normal" in2="BackgroundImageFix" result="effect1_dropShadow_223_8461"/>
<feColorMatrix in="SourceAlpha" type="matrix" values="0 0 0 0 0 0 0 0 0 0 0 0 0 0 0 0 0 0 127 0" result="hardAlpha"/>
<feOffset dx="-1" dy="2"/>
<feGaussianBlur stdDeviation="1.5"/>
<feComposite in2="hardAlpha" operator="out"/>
<feColorMatrix type="matrix" values="0 0 0 0 0 0 0 0 0 0 0 0 0 0 0 0 0 0 0.12 0"/>
<feBlend mode="normal" in2="effect1_dropShadow_223_8461" result="effect2_dropShadow_223_8461"/>
<feBlend mode="normal" in="SourceGraphic" in2="effect2_dropShadow_223_8461" result="shape"/>
</filter>
<radialGradient id="paint0_radial_223_8461" cx="0" cy="0" r="1" gradientUnits="userSpaceOnUse" gradientTransform="translate(49.5156 72.3077) rotate(-67.2094) scale(98.0493 72.4539)">
<stop offset="0.187012" stop-color="#939393" stop-opacity="0"/>
<stop offset="0.539316" stop-color="#939393" stop-opacity="0.2"/>
<stop offset="1" stop-color="#838383"/>
</radialGradient>
<linearGradient id="paint1_linear_223_8461" x1="81.409" y1="41.9259" x2="42.7636" y2="89.4895" gradientUnits="userSpaceOnUse">
<stop offset="0.197432" stop-color="#2684FF"/>
<stop offset="0.943832" stop-color="#1D0A5B"/>
</linearGradient>
<linearGradient id="paint2_linear_223_8461" x1="72.2979" y1="38.8889" x2="64.7944" y2="73.6227" gradientUnits="userSpaceOnUse">
<stop offset="0.298102" stop-color="#2684FF"/>
<stop offset="0.870697" stop-color="#1D0A5B"/>
</linearGradient>
<radialGradient id="paint3_radial_223_8461" cx="0" cy="0" r="1" gradientUnits="userSpaceOnUse" gradientTransform="translate(57.1092 32.0556) rotate(142.815) scale(55.2749 54.7857)">
<stop offset="0.309301" stop-color="#FFC424"/>
<stop offset="1" stop-color="#CD8C2A"/>
</radialGradient>
<linearGradient id="paint4_linear_223_8461" x1="58.6277" y1="25.2222" x2="39.1907" y2="64.0963" gradientUnits="userSpaceOnUse">
<stop offset="0.175465" stop-color="#FFC424"/>
<stop offset="1" stop-color="#CD8C2A"/>
</linearGradient>
<clipPath id="clip0_223_8461">
<rect width="96" height="96" fill="white"/>
</clipPath>
</defs>
</svg>
