<svg width="96" height="96" viewBox="0 0 96 96" fill="none" xmlns="http://www.w3.org/2000/svg">
<g clip-path="url(#clip0_182_4384)">
<g filter="url(#filter0_dd_182_4384)">
<path d="M48 28.6667C48 24.2484 51.5817 20.6667 56 20.6667H83C86.3137 20.6667 89 23.353 89 26.6667V69.3333C89 72.647 86.3137 75.3333 83 75.3333H59.0183C55.9882 75.3333 53.2181 77.0453 51.8629 79.7556L49.7949 83.8917C49.6255 84.2304 49.2793 84.4444 48.9005 84.4444H48V28.6667Z" fill="url(#paint0_linear_182_4384)"/>
</g>
<g filter="url(#filter1_dddiiif_182_4384)">
<path d="M48 34.3333L45.5323 26.0762C43.2792 22.6966 39.4862 20.6667 35.4244 20.6667H13.0741C9.71946 20.6667 7 23.3861 7 26.7407V69.2593C7 72.6139 9.71946 75.3333 13.0741 75.3333H34.418C39.0193 75.3333 43.2258 77.9331 45.2836 82.0487L46.0618 83.605C46.319 84.1195 46.8448 84.4444 47.42 84.4444H48V34.3333Z" fill="white" fill-opacity="0.01" shape-rendering="crispEdges"/>
</g>
<g filter="url(#filter2_dd_182_4384)">
<path d="M16.1113 15.5556C16.1113 13.3464 17.9022 11.5556 20.1113 11.5556H26.0002C38.1505 11.5556 48.0002 21.4053 48.0002 33.5556V83.6852C48.0002 84.1045 47.6603 84.4444 47.241 84.4444C46.8216 84.4444 46.4817 84.1045 46.4817 83.6852V81.4074C46.4817 73.0209 39.6831 66.2222 31.2965 66.2222H20.1113C17.9022 66.2222 16.1113 64.4314 16.1113 62.2222V15.5556Z" fill="white"/>
</g>
<path d="M16.1113 15.5556C16.1113 13.3464 17.9022 11.5556 20.1113 11.5556H26.0002C38.1505 11.5556 48.0002 21.4053 48.0002 33.5556V83.6852C48.0002 84.1045 47.6603 84.4444 47.241 84.4444C46.8216 84.4444 46.4817 84.1045 46.4817 83.6852V81.4074C46.4817 73.0209 39.6831 66.2222 31.2965 66.2222H20.1113C17.9022 66.2222 16.1113 64.4314 16.1113 62.2222V15.5556Z" fill="url(#paint1_linear_182_4384)"/>
<rect x="57" y="30" width="23" height="15" rx="3" fill="url(#paint2_radial_182_4384)"/>
<path d="M58.5185 55C57.6799 55 57 55.6716 57 56.5C57 57.3284 57.6799 58 58.5185 58H78.4815C79.3201 58 80 57.3284 80 56.5C80 55.6716 79.3201 55 78.4815 55H58.5185Z" fill="url(#paint3_linear_182_4384)"/>
<path d="M58.5185 49C57.6799 49 57 49.6716 57 50.5C57 51.3284 57.6799 52 58.5185 52L78.4815 52C79.3201 52 80 51.3284 80 50.5C80 49.6716 79.3201 49 78.4815 49H58.5185Z" fill="url(#paint4_linear_182_4384)"/>
<path d="M58.5185 61C57.6799 61 57 61.6716 57 62.5C57 63.3284 57.6799 64 58.5185 64L72.4815 63.9996C73.3201 63.9996 74 63.328 74 62.4996C74 61.6712 73.3201 60.9996 72.4815 60.9996L58.5185 61Z" fill="url(#paint5_linear_182_4384)"/>
</g>
<defs>
<filter id="filter0_dd_182_4384" x="41" y="18.6667" width="51" height="73.7778" filterUnits="userSpaceOnUse" color-interpolation-filters="sRGB">
<feFlood flood-opacity="0" result="BackgroundImageFix"/>
<feColorMatrix in="SourceAlpha" type="matrix" values="0 0 0 0 0 0 0 0 0 0 0 0 0 0 0 0 0 0 127 0" result="hardAlpha"/>
<feOffset dx="-2" dy="3"/>
<feGaussianBlur stdDeviation="2.5"/>
<feColorMatrix type="matrix" values="0 0 0 0 0 0 0 0 0 0 0 0 0 0 0 0 0 0 0.24 0"/>
<feBlend mode="normal" in2="BackgroundImageFix" result="effect1_dropShadow_182_4384"/>
<feColorMatrix in="SourceAlpha" type="matrix" values="0 0 0 0 0 0 0 0 0 0 0 0 0 0 0 0 0 0 127 0" result="hardAlpha"/>
<feOffset dx="-1" dy="2"/>
<feGaussianBlur stdDeviation="1.5"/>
<feComposite in2="hardAlpha" operator="out"/>
<feColorMatrix type="matrix" values="0 0 0 0 0 0 0 0 0 0 0 0 0 0 0 0 0 0 0.12 0"/>
<feBlend mode="normal" in2="effect1_dropShadow_182_4384" result="effect2_dropShadow_182_4384"/>
<feBlend mode="normal" in="SourceGraphic" in2="effect2_dropShadow_182_4384" result="shape"/>
</filter>
<filter id="filter1_dddiiif_182_4384" x="-1" y="12.6667" width="57" height="81.7778" filterUnits="userSpaceOnUse" color-interpolation-filters="sRGB">
<feFlood flood-opacity="0" result="BackgroundImageFix"/>
<feColorMatrix in="SourceAlpha" type="matrix" values="0 0 0 0 0 0 0 0 0 0 0 0 0 0 0 0 0 0 127 0" result="hardAlpha"/>
<feOffset dx="-2" dy="2"/>
<feGaussianBlur stdDeviation="3"/>
<feComposite in2="hardAlpha" operator="out"/>
<feColorMatrix type="matrix" values="0 0 0 0 0 0 0 0 0 0 0 0 0 0 0 0 0 0 0.14 0"/>
<feBlend mode="normal" in2="BackgroundImageFix" result="effect1_dropShadow_182_4384"/>
<feColorMatrix in="SourceAlpha" type="matrix" values="0 0 0 0 0 0 0 0 0 0 0 0 0 0 0 0 0 0 127 0" result="hardAlpha"/>
<feOffset dx="-2" dy="4"/>
<feGaussianBlur stdDeviation="3"/>
<feComposite in2="hardAlpha" operator="out"/>
<feColorMatrix type="matrix" values="0 0 0 0 0 0 0 0 0 0 0 0 0 0 0 0 0 0 0.08 0"/>
<feBlend mode="normal" in2="effect1_dropShadow_182_4384" result="effect2_dropShadow_182_4384"/>
<feColorMatrix in="SourceAlpha" type="matrix" values="0 0 0 0 0 0 0 0 0 0 0 0 0 0 0 0 0 0 127 0" result="hardAlpha"/>
<feOffset dx="2" dy="-2"/>
<feGaussianBlur stdDeviation="3"/>
<feComposite in2="hardAlpha" operator="out"/>
<feColorMatrix type="matrix" values="0 0 0 0 1 0 0 0 0 1 0 0 0 0 1 0 0 0 0.85 0"/>
<feBlend mode="normal" in2="effect2_dropShadow_182_4384" result="effect3_dropShadow_182_4384"/>
<feBlend mode="normal" in="SourceGraphic" in2="effect3_dropShadow_182_4384" result="shape"/>
<feColorMatrix in="SourceAlpha" type="matrix" values="0 0 0 0 0 0 0 0 0 0 0 0 0 0 0 0 0 0 127 0" result="hardAlpha"/>
<feOffset dx="-2" dy="4"/>
<feGaussianBlur stdDeviation="4"/>
<feComposite in2="hardAlpha" operator="arithmetic" k2="-1" k3="1"/>
<feColorMatrix type="matrix" values="0 0 0 0 0 0 0 0 0 0 0 0 0 0 0 0 0 0 0.12 0"/>
<feBlend mode="normal" in2="shape" result="effect4_innerShadow_182_4384"/>
<feColorMatrix in="SourceAlpha" type="matrix" values="0 0 0 0 0 0 0 0 0 0 0 0 0 0 0 0 0 0 127 0" result="hardAlpha"/>
<feOffset dx="-2" dy="4"/>
<feGaussianBlur stdDeviation="3"/>
<feComposite in2="hardAlpha" operator="arithmetic" k2="-1" k3="1"/>
<feColorMatrix type="matrix" values="0 0 0 0 0 0 0 0 0 0 0 0 0 0 0 0 0 0 0.08 0"/>
<feBlend mode="normal" in2="effect4_innerShadow_182_4384" result="effect5_innerShadow_182_4384"/>
<feColorMatrix in="SourceAlpha" type="matrix" values="0 0 0 0 0 0 0 0 0 0 0 0 0 0 0 0 0 0 127 0" result="hardAlpha"/>
<feOffset dx="5" dy="-5"/>
<feGaussianBlur stdDeviation="5"/>
<feComposite in2="hardAlpha" operator="arithmetic" k2="-1" k3="1"/>
<feColorMatrix type="matrix" values="0 0 0 0 1 0 0 0 0 1 0 0 0 0 1 0 0 0 0.65 0"/>
<feBlend mode="normal" in2="effect5_innerShadow_182_4384" result="effect6_innerShadow_182_4384"/>
<feGaussianBlur stdDeviation="0.1875" result="effect7_foregroundBlur_182_4384"/>
</filter>
<filter id="filter2_dd_182_4384" x="9.11133" y="9.55556" width="41.8887" height="82.8889" filterUnits="userSpaceOnUse" color-interpolation-filters="sRGB">
<feFlood flood-opacity="0" result="BackgroundImageFix"/>
<feColorMatrix in="SourceAlpha" type="matrix" values="0 0 0 0 0 0 0 0 0 0 0 0 0 0 0 0 0 0 127 0" result="hardAlpha"/>
<feOffset dx="-2" dy="3"/>
<feGaussianBlur stdDeviation="2.5"/>
<feColorMatrix type="matrix" values="0 0 0 0 0 0 0 0 0 0 0 0 0 0 0 0 0 0 0.12 0"/>
<feBlend mode="normal" in2="BackgroundImageFix" result="effect1_dropShadow_182_4384"/>
<feColorMatrix in="SourceAlpha" type="matrix" values="0 0 0 0 0 0 0 0 0 0 0 0 0 0 0 0 0 0 127 0" result="hardAlpha"/>
<feOffset dx="-1" dy="2"/>
<feGaussianBlur stdDeviation="1.5"/>
<feComposite in2="hardAlpha" operator="out"/>
<feColorMatrix type="matrix" values="0 0 0 0 0 0 0 0 0 0 0 0 0 0 0 0 0 0 0.08 0"/>
<feBlend mode="normal" in2="effect1_dropShadow_182_4384" result="effect2_dropShadow_182_4384"/>
<feBlend mode="normal" in="SourceGraphic" in2="effect2_dropShadow_182_4384" result="shape"/>
</filter>
<linearGradient id="paint0_linear_182_4384" x1="92.037" y1="13.8333" x2="28.9209" y2="55.6414" gradientUnits="userSpaceOnUse">
<stop offset="0.0528801" stop-color="#F7F6F4"/>
<stop offset="0.701911" stop-color="#E8E6DF"/>
</linearGradient>
<linearGradient id="paint1_linear_182_4384" x1="6.24096" y1="65.463" x2="60.5495" y2="61.7424" gradientUnits="userSpaceOnUse">
<stop stop-color="#3DD9EB" stop-opacity="0"/>
<stop offset="0.505404" stop-color="#3C00FF"/>
<stop offset="0.948715" stop-color="#1D0A5B"/>
</linearGradient>
<radialGradient id="paint2_radial_182_4384" cx="0" cy="0" r="1" gradientUnits="userSpaceOnUse" gradientTransform="translate(57.7667 47.25) rotate(-38.2706) scale(30.2724 27.8075)">
<stop offset="0.0430062" stop-color="#FFC424" stop-opacity="0"/>
<stop offset="0.512307" stop-color="#FFC424"/>
<stop offset="1" stop-color="#CD8C2A"/>
</radialGradient>
<linearGradient id="paint3_linear_182_4384" x1="80" y1="55" x2="79.2305" y2="60.8996" gradientUnits="userSpaceOnUse">
<stop offset="0.248777" stop-color="#C4BEB6"/>
<stop offset="1" stop-color="#8C8279"/>
</linearGradient>
<linearGradient id="paint4_linear_182_4384" x1="80" y1="49" x2="79.2305" y2="54.8996" gradientUnits="userSpaceOnUse">
<stop offset="0.248777" stop-color="#C4BEB6"/>
<stop offset="1" stop-color="#8C8279"/>
</linearGradient>
<linearGradient id="paint5_linear_182_4384" x1="74" y1="60.9996" x2="72.9729" y2="66.8191" gradientUnits="userSpaceOnUse">
<stop offset="0.248777" stop-color="#C4BEB6"/>
<stop offset="1" stop-color="#8C8279"/>
</linearGradient>
<clipPath id="clip0_182_4384">
<rect width="96" height="96" fill="white"/>
</clipPath>
</defs>
</svg>
